<svg width="40" height="40" viewBox="0 0 40 40" fill="none" xmlns="http://www.w3.org/2000/svg">
<rect width="40" height="40" rx="20"/>
<path  fill-rule="evenodd" clip-rule="evenodd"
	   d="M18.8154 25.9308H20.028C20.028 25.9308 20.3918 25.8727 20.5736 25.6983C20.7555 25.5238 20.7555 25.175 20.7555 25.175C20.7555 25.175 20.7555 23.6633 21.4831 23.4307C22.2107 23.1981 23.1807 24.9424 24.1508 25.582C24.8784 26.1053 25.4241 25.989 25.4241 25.989L28.0918 25.9308C28.0918 25.9308 29.4863 25.8727 28.8194 24.768C28.7587 24.7099 28.4556 24.0121 26.8186 22.5586C25.1209 21.0469 25.3634 21.3376 27.3642 18.7211C28.5768 17.1513 29.0619 16.221 28.9406 15.7559C28.8194 15.3489 27.9099 15.4651 27.9099 15.4651H24.8784C24.8784 15.4651 24.6359 15.407 24.5146 15.5233C24.3327 15.6396 24.2721 15.814 24.2721 15.814C24.2721 15.814 23.787 17.035 23.1807 18.0816C21.8469 20.2329 21.3012 20.3491 21.1193 20.2329C20.6343 19.9421 20.7555 18.9537 20.7555 18.3141C20.7555 16.221 21.1193 15.3489 20.0886 15.1163C19.7855 15.0581 19.5429 15 18.6941 15C17.6028 15 16.6933 15 16.2083 15.2326C15.8445 15.407 15.602 15.7559 15.7839 15.7559C15.9657 15.7559 16.4508 15.8721 16.6933 16.1629C16.9358 16.6861 16.9358 17.5583 16.9358 17.5583C16.9358 17.5583 17.1177 20.0584 16.5114 20.3491C16.087 20.5817 15.5413 20.1166 14.3287 18.1397C13.7224 17.1513 13.2374 15.9884 13.2374 15.9884C13.2374 15.9884 13.1768 15.7559 12.9949 15.6396C12.813 15.5233 12.5098 15.4651 12.5098 15.4651H9.6602C9.6602 15.4651 9.23578 15.4651 9.05389 15.6396C8.93263 15.814 9.05389 16.1047 9.05389 16.1047C9.05389 16.1047 11.2972 21.105 13.8437 23.6633C16.2083 26.1053 18.8154 25.9308 18.8154 25.9308Z" fill="#42426A" fill-opacity="0.8"/>
</svg>
