<svg width="40" height="40" viewBox="0 0 40 40" fill="none" xmlns="http://www.w3.org/2000/svg">
<g filter="url(#filter0_b_202_6315)">
<rect width="40" height="40" rx="20"/>
<path d="M12.0032 28L13.0848 24.0256C12.3721 22.8039 11.9977 21.4144 12 20C12 15.5816 15.5816 12 20 12C24.4184 12 28 15.5816 28 20C28 24.4184 24.4184 28 20 28C18.5862 28.0023 17.1973 27.6281 15.976 26.916L12.0032 28ZM17.1128 16.2464C17.0095 16.2528 16.9085 16.28 16.816 16.3264C16.7292 16.3755 16.65 16.437 16.5808 16.5088C16.4848 16.5992 16.4304 16.6776 16.372 16.7536C16.0763 17.1384 15.9173 17.6107 15.92 18.096C15.9216 18.488 16.024 18.8696 16.184 19.2264C16.5112 19.948 17.0496 20.712 17.7608 21.42C17.932 21.5904 18.0992 21.7616 18.2792 21.9208C19.1619 22.698 20.2138 23.2584 21.3512 23.5576L21.8064 23.6272C21.9544 23.6352 22.1024 23.624 22.2512 23.6168C22.4842 23.6048 22.7117 23.5417 22.9176 23.432C23.0224 23.378 23.1246 23.3193 23.224 23.256C23.224 23.256 23.2584 23.2336 23.324 23.184C23.432 23.104 23.4984 23.0472 23.588 22.9536C23.6544 22.8848 23.712 22.804 23.756 22.712C23.8184 22.5816 23.8808 22.3328 23.9064 22.1256C23.9256 21.9672 23.92 21.8808 23.9176 21.8272C23.9144 21.7416 23.8432 21.6528 23.7656 21.6152L23.3 21.4064C23.3 21.4064 22.604 21.1032 22.1792 20.9096C22.1344 20.8901 22.0864 20.879 22.0376 20.8768C21.9829 20.8712 21.9276 20.8773 21.8754 20.8949C21.8232 20.9124 21.7754 20.9409 21.7352 20.9784V20.9768C21.7312 20.9768 21.6776 21.0224 21.0992 21.7232C21.066 21.7678 21.0203 21.8015 20.9678 21.82C20.9154 21.8386 20.8587 21.8411 20.8048 21.8272C20.7527 21.8133 20.7016 21.7956 20.652 21.7744C20.5528 21.7328 20.5184 21.7168 20.4504 21.6872L20.4464 21.6856C19.9887 21.4858 19.565 21.2159 19.1904 20.8856C19.0896 20.7976 18.996 20.7016 18.9 20.6088C18.5853 20.3074 18.311 19.9664 18.084 19.5944L18.0368 19.5184C18.0029 19.4673 17.9755 19.4122 17.9552 19.3544C17.9248 19.2368 18.004 19.1424 18.004 19.1424C18.004 19.1424 18.1984 18.9296 18.2888 18.8144C18.3641 18.7187 18.4343 18.6191 18.4992 18.516C18.5936 18.364 18.6232 18.208 18.5736 18.0872C18.3496 17.54 18.1176 16.9952 17.8792 16.4544C17.832 16.3472 17.692 16.2704 17.5648 16.2552C17.5216 16.2504 17.4784 16.2456 17.4352 16.2424C17.3278 16.2371 17.2201 16.2381 17.1128 16.2456V16.2464Z" fill="#F4F2FC" fill-opacity="0.8"/>
</g>
<defs>
<filter id="filter0_b_202_6315" x="-15" y="-15" width="70" height="70" filterUnits="userSpaceOnUse" color-interpolation-filters="sRGB">
<feFlood flood-opacity="0" result="BackgroundImageFix"/>
<feGaussianBlur in="BackgroundImageFix" stdDeviation="7.5"/>
<feComposite in2="SourceAlpha" operator="in" result="effect1_backgroundBlur_202_6315"/>
<feBlend mode="normal" in="SourceGraphic" in2="effect1_backgroundBlur_202_6315" result="shape"/>
</filter>
</defs>
</svg>
