<svg width="22" height="23" viewBox="0 0 22 23" fill="none" xmlns="http://www.w3.org/2000/svg">
<g clip-path="url(#clip0_102_4599)">
<mask id="mask0_102_4599" style="mask-type:luminance" maskUnits="userSpaceOnUse" x="0" y="0" width="22" height="23">
<path d="M0 0.5H22.0002V22.5H0V0.5Z" fill="white"/>
</mask>
<g mask="url(#mask0_102_4599)">
<path fill-rule="evenodd" clip-rule="evenodd" d="M0 0.5H33.0035V15.1137H0V0.5Z" fill="#B20000"/>
<path fill-rule="evenodd" clip-rule="evenodd" d="M0 15.1136H33.0035V22.5H0V15.1136Z" fill="#429F00"/>
<path fill-rule="evenodd" clip-rule="evenodd" d="M0 0.5H3.65488V22.5H0V0.5Z" fill="white"/>
<path fill-rule="evenodd" clip-rule="evenodd" d="M0.173828 0.873828H0.34787V1.24766H0.173828V0.873828ZM0.695954 0.873828H1.21808V1.24766H0.695954V0.873828ZM0.869996 0.5H1.04404V0.873828H0.869996V0.5ZM1.74021 0.5H1.91425V0.873828H1.74021V0.5ZM2.43637 0.873828H2.9585V1.24766H2.43637V0.873828ZM2.61042 0.5H2.78446V0.873828H2.61042V0.5ZM0.521912 1.24766H0.869996V1.61719H0.521912V1.24766ZM1.04404 1.24766H1.39212V1.61719H1.04404V1.24766ZM2.26233 1.24766H2.61042V1.61719H2.26233V1.24766ZM2.78446 1.24766H3.13254V1.61719H2.78446V1.24766ZM0.34787 1.61719H0.695954V1.99102H0.34787V1.61719ZM1.21808 1.61719H1.56616V1.99102H1.21808V1.61719ZM2.08829 1.61719H2.43637V1.99102H2.08829V1.61719ZM2.9585 1.61719H3.30658V1.99102H2.9585V1.61719ZM3.30658 0.873828H3.48063V1.24766H3.30658V0.873828ZM0.173828 1.99102H0.521912V2.36484H0.173828V1.99102ZM1.39212 1.99102H1.74021V2.36484H1.39212V1.99102ZM3.13254 1.99102H3.48063V2.36484H3.13254V1.99102ZM0.34787 3.1082H0.695954V3.48203H0.34787V3.1082ZM0.521912 3.48203H0.869996V3.85586H0.521912V3.48203ZM1.21808 3.1125H1.56616V3.48203H1.21808V3.1125ZM1.04404 3.48203H1.39212V3.85586H1.04404V3.48203ZM0.695954 3.85586H1.21808V4.22969H0.695954V3.85586Z" fill="#B20000"/>
<path fill-rule="evenodd" clip-rule="evenodd" d="M0.87021 4.22974H1.04425V4.60356H0.87021V4.22974ZM2.0885 3.11255H2.43659V3.48208H2.0885V3.11255ZM2.26255 3.48208H2.61063V3.85591H2.26255V3.48208ZM2.95871 3.11255H3.3068V3.48208H2.95871V3.11255ZM2.78467 3.48208H3.13276V3.85591H2.78467V3.48208ZM2.43659 3.85591H2.95871V4.22974H2.43659V3.85591ZM2.61063 4.22974H2.78467V4.60356H2.61063V4.22974ZM1.74042 3.85161H1.91446V4.22544H1.74042V3.85161ZM0 3.85161H0.174042V4.22544H0V3.85161ZM3.48084 3.85161H3.65488V4.22544H3.48084V3.85161ZM0.87021 5.71645H1.04425V6.09028H0.87021V5.71645ZM0.696168 6.09458H1.21829V6.46411H0.696168V6.09458ZM0.522126 6.46411H1.39234V6.83794H0.522126V6.46411ZM2.61063 5.72075H2.78467V6.09458H2.61063V5.72075ZM2.43659 6.09458H2.95871V6.46411H2.43659V6.09458ZM2.26255 6.46411H3.13276V6.83794H2.26255V6.46411ZM2.43659 8.32895H3.3068V8.70278H2.43659V8.32895ZM2.0885 6.83794H3.3068V7.21177H2.0885V6.83794ZM0.348084 6.83794H1.56638V7.21177H0.348084V6.83794ZM0.522126 8.70278H1.04425V9.07661H0.522126V8.70278ZM0.348084 8.32895H1.21829V8.70278H0.348084V8.32895ZM2.78467 7.58989H3.65488V7.96372H2.78467V7.58989ZM2.61063 8.70708H3.13276V9.08091H2.61063V8.70708Z" fill="#B20000"/>
<path fill-rule="evenodd" clip-rule="evenodd" d="M0.696168 9.07651H0.87021V9.45034H0.696168V9.07651ZM2.78467 9.07651H2.95871V9.45034H2.78467V9.07651ZM0 7.5855H0.87021V7.95933H0V7.5855ZM1.56638 8.32886H2.0885V8.70269H1.56638V8.32886ZM1.74042 8.70698H1.91446V9.08081H1.74042V8.70698ZM1.21829 7.5898H2.43659V7.96362H1.21829V7.5898ZM1.91446 1.99097H2.26255V2.36479H1.91446V1.99097ZM1.56638 2.36479H2.0885V2.73862H1.56638V2.36479ZM1.39234 2.73862H1.74042V3.10815H1.39234V2.73862ZM1.91446 2.73862H2.26255V3.10815H1.91446V2.73862ZM0 2.36479H0.348084V2.73862H0V2.36479ZM0.174042 2.73862H0.522126V3.10815H0.174042V2.73862ZM3.3068 2.36479H3.65488V2.73433H3.3068V2.36479ZM3.13276 2.73433H3.48084V3.10386H3.13276V2.73433ZM0 6.08589H0.174042V6.45972H0V6.08589ZM3.48084 6.08589H3.65488V6.45972H3.48084V6.08589ZM1.56638 9.07222H2.0885V9.44605H1.56638V9.07222ZM1.39234 9.44605H1.74042V9.81558H1.39234V9.44605ZM1.91446 9.44605H2.26255V9.81558H1.91446V9.44605ZM1.21829 9.81558H1.56638V10.1894H1.21829V9.81558ZM2.0885 9.81558H2.43659V10.1894H2.0885V9.81558ZM1.04425 10.1894H1.39234V10.5632H1.04425V10.1894ZM2.26255 10.1894H2.61063V10.5632H2.26255V10.1894ZM0.87021 10.5675H1.21829V10.9414H0.87021V10.5675ZM2.43659 10.5675H2.78467V10.9414H2.43659V10.5675ZM0.522126 10.9414H1.04425V11.3152H0.522126V10.9414ZM2.61063 10.9414H3.13276V11.3152H2.61063V10.9414ZM2.95871 10.5675H3.3068V10.9414H2.95871V10.5675ZM3.13276 10.1937H3.48084V10.5675H3.13276V10.1937ZM3.3068 9.81987H3.65488V10.1937H3.3068V9.81987ZM0.348084 10.5675H0.696168V10.9414H0.348084V10.5675ZM0.174042 10.1937H0.522126V10.5675H0.174042V10.1937ZM0 9.82417H0.348084V10.198H0V9.82417ZM0.696168 11.3195H0.87021V11.689H0.696168V11.3195ZM2.78467 11.3195H2.95871V11.689H2.78467V11.3195ZM1.74042 10.2023H1.91446V10.5718H1.74042V10.2023ZM1.21829 11.3195H1.39234V11.689H1.21829V11.3195ZM2.26255 11.3195H2.43659V11.689H2.26255V11.3195ZM1.74042 11.3195H1.91446V11.689H1.74042V11.3195ZM0 11.3195H0.174042V11.689H0L0 11.3195ZM3.48084 11.3195H3.65488V11.689H3.48084V11.3195ZM1.74042 6.09448H1.91446V6.46401H1.74042V6.09448ZM0.87021 2.36479H1.04425V2.73862H0.87021V2.36479ZM2.61063 2.36479H2.78467V2.73862H2.61063V2.36479ZM1.56638 4.973H2.0885V5.34683H1.56638V4.973ZM1.21829 5.34683H1.74042V5.72065H1.21829V5.34683ZM1.39234 5.72065H1.56638V6.09448H1.39234V5.72065ZM1.04425 4.973H1.39234V5.34683H1.04425V4.973ZM1.21829 4.60347H1.74042V4.973H1.21829V4.60347ZM1.39234 4.22964H1.56638V4.60347H1.39234V4.22964ZM1.91446 4.60347H2.43659V4.973H1.91446V4.60347ZM2.0885 4.22964H2.26255V4.60347H2.0885V4.22964ZM2.26255 4.973H2.61063V5.34683H2.26255V4.973ZM1.91446 5.34683H2.43659V5.72065H1.91446V5.34683ZM2.0885 5.72065H2.26255V6.09448H2.0885V5.72065ZM2.78467 4.973H3.13276V5.34683H2.78467V4.973ZM2.95871 4.60347H3.48084V4.973H2.95871V4.60347ZM3.3068 4.973H3.65488V5.34683H3.3068V4.973ZM2.95871 5.34683H3.48084V5.72065H2.95871V5.34683ZM3.13276 5.72065H3.3068V6.09448H3.13276V5.72065ZM3.13276 4.22964H3.3068V4.60347H3.13276V4.22964ZM0 4.9687H0.348084V5.34253H0V4.9687ZM0.174042 4.59917H0.696168V4.9687H0.174042V4.59917ZM0.522126 4.9687H0.87021V5.34253H0.522126V4.9687ZM0.174042 5.34253H0.696168V5.71636H0.174042V5.34253Z" fill="#B20000"/>
<path fill-rule="evenodd" clip-rule="evenodd" d="M0.348084 5.72075H0.522126V6.09458H0.348084V5.72075ZM0.348084 4.22974H0.522126V4.60356H0.348084V4.22974ZM0.174042 7.21177H0.87021V7.5856H0.174042V7.21177ZM1.04425 7.21177H1.74042V7.5856H1.04425V7.21177ZM1.91446 7.21177H2.61063V7.5856H1.91446V7.21177ZM2.78467 7.21177H3.48084V7.5856H2.78467V7.21177ZM1.39234 7.95942H2.26255V8.32896H1.39234V7.95942ZM0.174042 7.95942H1.04425V8.32896H0.174042V7.95942ZM2.61063 7.95942H3.48084V8.32896H2.61063V7.95942ZM3.48084 9.45044H3.65488V9.81997H3.48084V9.45044ZM0 9.45044H0.174042V9.81997H0V9.45044ZM0.174042 22.1262H0.348084V21.7567H0.174042V22.1262ZM0.696168 22.1262H1.21829V21.7567H0.696168V22.1262ZM0.87021 22.5001H1.04425V22.1262H0.87021V22.5001ZM1.74042 22.5001H1.91446V22.1262H1.74042V22.5001ZM2.43659 22.1262H2.95871V21.7524H2.43659V22.1262ZM2.61063 22.5001H2.78467V22.1262H2.61063V22.5001ZM0.522126 21.7524H0.87021V21.3829H0.522126V21.7524ZM1.04425 21.7524H1.39234V21.3829H1.04425V21.7524ZM2.26255 21.7524H2.61063V21.3829H2.26255V21.7524ZM2.78467 21.7524H3.13276V21.3829H2.78467V21.7524ZM1.21829 21.3829H1.56638V21.009H1.21829V21.3829ZM2.0885 21.3829H2.43659V21.009H2.0885V21.3829ZM2.95871 21.3829H3.3068V21.009H2.95871V21.3829ZM3.3068 22.1262H3.48084V21.7524H3.3068V22.1262ZM0.174042 21.009H0.522126V20.6352H0.174042V21.009ZM1.39234 21.009H1.74042V20.6352H1.39234V21.009ZM3.13276 21.009H3.48084V20.6352H3.13276V21.009ZM0.348084 19.8918H0.696168V19.518H0.348084V19.8918ZM0.522126 19.518H0.87021V19.1442H0.522126V19.518ZM1.21829 19.8918H1.56638V19.518H1.21829V19.8918ZM1.04425 19.518H1.39234V19.1442H1.04425V19.518ZM0.696168 19.1442H1.21829V18.7704H0.696168V19.1442ZM0.87021 18.7704H1.04425V18.4008H0.87021V18.7704ZM2.0885 19.8876H2.43659V19.518H2.0885V19.8876ZM2.26255 19.518H2.61063V19.1442H2.26255V19.518ZM2.95871 19.8918H3.3068V19.518H2.95871V19.8918ZM2.78467 19.518H3.13276V19.1442H2.78467V19.518ZM2.43659 19.1442H2.95871V18.7704H2.43659V19.1442ZM2.61063 18.7704H2.78467V18.4008H2.61063V18.7704ZM1.74042 19.1485H1.91446V18.7747H1.74042V19.1485ZM0 19.1485H0.174042V18.7747H0V19.1485ZM3.48084 19.1485H3.65488V18.7747H3.48084V19.1485ZM0.87021 17.2836H1.04425V16.9098H0.87021V17.2836ZM0.696168 16.9055H1.21829V16.536H0.696168V16.9055ZM0.522126 16.536H1.39234V16.1622H0.522126V16.536ZM2.61063 17.2793H2.78467V16.9055H2.61063V17.2793Z" fill="#B20000"/>
<path fill-rule="evenodd" clip-rule="evenodd" d="M2.43659 16.9054H2.95871V16.5359H2.43659V16.9054ZM2.26255 16.5359H3.13276V16.1621H2.26255V16.5359ZM2.43659 14.6711H3.3068V14.2929H2.43659V14.6711ZM2.0885 16.1621H3.3068V15.7883H2.0885V16.1621ZM0.348084 16.1621H1.56638V15.7883H0.348084V16.1621ZM0.522126 14.2972H1.04425V13.9234H0.522126V14.2972ZM0.348084 14.6711H1.21829V14.2929H0.348084V14.6711ZM2.78467 15.4101H3.65488V15.0363H2.78467V15.4101ZM2.61063 14.2929H3.13276V13.9191H2.61063V14.2929ZM0 15.4101H0.87021V15.0363H0V15.4101ZM1.56638 14.6668H2.0885V14.2929H1.56638V14.6668ZM1.74042 14.2929H1.91446V13.9191H1.74042V14.2929ZM1.21829 15.4101H2.43659V15.0363H1.21829V15.4101ZM1.91446 21.0047H2.26255V20.6308H1.91446V21.0047ZM1.56638 20.6308H2.0885V20.2656H1.56638V20.6308ZM1.39234 20.257H1.74042V19.8832H1.39234V20.257ZM1.91446 20.257H2.26255V19.8832H1.91446V20.257ZM0 20.6351H0.348084V20.2656H0V20.6351ZM0.174042 20.2613H0.522126V19.8918H0.174042V20.2613ZM3.3068 20.6351H3.65488V20.2656H3.3068V20.6351ZM3.13276 20.2613H3.48084V19.8918H3.13276V20.2613ZM0 16.914H0.174042V16.5402H0V16.914ZM3.48084 16.914H3.65488V16.5402H3.48084V16.914ZM1.39234 13.5539H1.74042V13.1844H1.39234V13.5539ZM1.91446 13.5539H2.26255V13.1844H1.91446V13.5539ZM1.21829 13.1844H1.56638V12.8105H1.21829V13.1844ZM2.0885 13.1844H2.43659V12.8105H2.0885V13.1844ZM1.04425 12.8105H1.39234V12.4367H1.04425V12.8105ZM2.26255 12.8105H2.61063V12.4367H2.26255V12.8105ZM0.87021 12.4324H1.21829V12.0586H0.87021V12.4324ZM2.43659 12.4324H2.78467V12.0586H2.43659V12.4324ZM0.522126 12.0586H1.04425V11.6847H0.522126V12.0586ZM2.61063 12.0586H3.13276V11.6847H2.61063V12.0586ZM2.95871 12.4324H3.3068V12.0586H2.95871V12.4324ZM3.13276 12.8062H3.48084V12.4324H3.13276V12.8062ZM3.3068 13.1801H3.65488V12.8062H3.3068V13.1801ZM0.348084 12.4324H0.696168V12.0586H0.348084V12.4324ZM0.174042 12.8062H0.522126V12.4324H0.174042V12.8062ZM0 13.1758H0.348084V12.8019H0V13.1758ZM0.696168 11.6804H0.87021V11.3109H0.696168V11.6804ZM1.74042 12.7976H1.91446V12.4281H1.74042V12.7976ZM1.74042 16.9011H1.91446V16.5316H1.74042V16.9011ZM0.87021 20.6308H1.04425V20.2656H0.87021V20.6308ZM2.61063 20.6308H2.78467V20.2656H2.61063V20.6308ZM1.56638 18.0312H2.0885V17.6574H1.56638V18.0312ZM1.21829 17.6574H1.74042V17.2836H1.21829V17.6574ZM1.39234 17.2836H1.56638V16.9097H1.39234V17.2836ZM1.04425 18.0312H1.39234V17.6574H1.04425V18.0312ZM1.21829 18.3965H1.74042V18.0312H1.21829V18.3965ZM1.39234 18.7703H1.56638V18.4008H1.39234V18.7703ZM1.91446 18.3965H2.43659V18.0312H1.91446V18.3965ZM2.0885 18.7703H2.26255V18.4008H2.0885V18.7703ZM2.26255 18.0269H2.61063V17.6531H2.26255V18.0269ZM1.91446 17.6531H2.43659V17.2793H1.91446V17.6531ZM2.0885 17.2793H2.26255V16.9054H2.0885V17.2793ZM2.78467 18.0312H3.13276V17.6574H2.78467V18.0312ZM2.95871 18.3965H3.48084V18.0312H2.95871V18.3965ZM3.3068 18.0269H3.65488V17.6531H3.3068V18.0269ZM2.95871 17.6531H3.48084V17.2793H2.95871V17.6531ZM3.13276 17.2793H3.3068V16.9054H3.13276V17.2793ZM3.13276 18.7703H3.3068V18.4008H3.13276V18.7703ZM0 18.0312H0.348084V17.6574H0V18.0312ZM0.174042 18.3965H0.696168V18.0312H0.174042V18.3965Z" fill="#B20000"/>
<path fill-rule="evenodd" clip-rule="evenodd" d="M0.522126 18.027H0.87021V17.6531H0.522126V18.027ZM0.174042 17.6531H0.696168V17.2793H0.174042V17.6531ZM0.348084 17.2793H0.522126V16.9055H0.348084V17.2793ZM0.348084 18.7703H0.522126V18.4008H0.348084V18.7703ZM0.174042 15.7883H0.87021V15.4145H0.174042V15.7883ZM1.04425 15.7883H1.74042V15.4145H1.04425V15.7883ZM1.91446 15.7883H2.61063V15.4145H1.91446V15.7883ZM2.78467 15.7883H3.48084V15.4145H2.78467V15.7883ZM1.39234 15.0406H2.26255V14.6711H1.39234V15.0406ZM0.174042 15.0406H1.04425V14.6711H0.174042V15.0406ZM2.61063 15.0406H3.48084V14.6711H2.61063V15.0406ZM3.48084 13.5539H3.65488V13.1758H3.48084V13.5539ZM0 13.5539H0.174042V13.1758H0V13.5539ZM1.56638 11.6848H1.74042V12.0586H1.56638V11.6848ZM1.91446 11.6848H2.0885V12.0586H1.91446V11.6848ZM1.91446 10.9414H2.0885V11.3152H1.91446V10.9414ZM1.56638 10.9414H1.74042V11.3152H1.56638V10.9414ZM0.348084 21.009H0.696168V21.3828H0.348084V21.009ZM2.78467 13.9234H2.95871V13.5496H2.78467V13.9234ZM0.696168 13.9234H0.87021V13.5496H0.696168V13.9234ZM1.56638 13.5496H2.0885V13.9234H1.56638V13.5496Z" fill="#B20000"/>
</g>
</g>
<defs>
<clipPath id="clip0_102_4599">
<rect y="0.5" width="22" height="22" rx="11" fill="white"/>
</clipPath>
</defs>
</svg>
