<svg width="22" height="23" viewBox="0 0 22 23" fill="none" xmlns="http://www.w3.org/2000/svg">
<g id="gr 1">
<g clip-path="url(#clip0_99_8239)">
<path id="Vector" fill-rule="evenodd" clip-rule="evenodd" d="M0 0.5H22V2.94292H0V0.5Z" fill="#005BAE"/>
<path id="Vector_2" fill-rule="evenodd" clip-rule="evenodd" d="M0 2.94287H22V5.39037H0V2.94287Z" fill="white"/>
<path id="Vector_3" fill-rule="evenodd" clip-rule="evenodd" d="M0 5.39038H22V7.8333H0V5.39038Z" fill="#005BAE"/>
<path id="Vector_4" fill-rule="evenodd" clip-rule="evenodd" d="M0 7.83337H22V10.2763H0V7.83337Z" fill="white"/>
<path id="Vector_5" d="M0 0.5H9.16781V12.7238H0V0.5Z" fill="#005BAE"/>
<path id="Vector_6" fill-rule="evenodd" clip-rule="evenodd" d="M0 10.2762H22V12.7237H0V10.2762Z" fill="#005BAE"/>
<path id="Vector_7" fill-rule="evenodd" clip-rule="evenodd" d="M0 12.7238H22V15.1667H0V12.7238Z" fill="white"/>
<path id="Vector_8" fill-rule="evenodd" clip-rule="evenodd" d="M0 15.1666H22V17.6095H0V15.1666Z" fill="#005BAE"/>
<path id="Vector_9" fill-rule="evenodd" clip-rule="evenodd" d="M0 17.6096H22V20.0571H0V17.6096Z" fill="white"/>
<g id="Group">
<path id="Vector_10" fill-rule="evenodd" clip-rule="evenodd" d="M3.6665 0.5H5.49984V12.7222H3.6665V0.5Z" fill="white"/>
<path id="Vector_11" fill-rule="evenodd" clip-rule="evenodd" d="M0 5.38892H9.16666V7.83336H0V5.38892Z" fill="white"/>
</g>
<path id="Vector_12" d="M0 20.0571H22V22.5H0V20.0571Z" fill="#005BAE"/>
</g>
</g>
<defs>
<clipPath id="clip0_99_8239">
<rect y="0.5" width="22" height="22" rx="11" fill="white"/>
</clipPath>
</defs>
</svg>
