<svg width="22" height="23" viewBox="0 0 22 23" fill="none" xmlns="http://www.w3.org/2000/svg">
<rect y="0.5" width="22" height="22" rx="11" fill="white"/>
<g clip-path="url(#clip0_102_19646)">
<mask id="mask0_102_19646" style="mask-type:luminance" maskUnits="userSpaceOnUse" x="1" y="4" width="20" height="15">
<path d="M1.99951 4.00073H20.0004V18.0007H1.99951V4.00073Z" fill="white"/>
</mask>
<g mask="url(#mask0_102_19646)">
<path fill-rule="evenodd" clip-rule="evenodd" d="M20.6254 18.0007H1.37207V4.00073H20.6254V18.0007Z" fill="white"/>
<path fill-rule="evenodd" clip-rule="evenodd" d="M11.1675 11.0117C11.1675 11.8276 10.855 12.61 10.2987 13.1869C9.74238 13.7638 8.98789 14.0879 8.20117 14.0879C7.41446 14.0879 6.65997 13.7638 6.10367 13.1869C5.54738 12.61 5.23486 11.8276 5.23486 11.0117C5.23486 10.1959 5.54738 9.41343 6.10367 8.83654C6.65997 8.25964 7.41446 7.93555 8.20117 7.93555C8.98789 7.93555 9.74238 8.25964 10.2987 8.83654C10.855 9.41343 11.1675 10.1959 11.1675 11.0117Z" fill="white"/>
<path fill-rule="evenodd" clip-rule="evenodd" d="M14.8877 11.1922C14.8877 13.4071 13.1738 15.2063 11.0565 15.2063C8.93926 15.2063 7.22803 13.4071 7.22803 11.1922C7.22803 8.97737 8.94189 7.17542 11.0592 7.17542C13.1765 7.17542 14.8877 8.97737 14.8877 11.1922Z" fill="#C70000"/>
<path fill-rule="evenodd" clip-rule="evenodd" d="M3.22314 7.46799L5.42744 4.82385L5.95215 5.29143L3.74521 7.93831L3.22314 7.46799ZM3.94561 8.11604L6.1499 5.4719L6.67461 5.93674L4.46768 8.58635L3.94561 8.11604Z" fill="black"/>
<path fill-rule="evenodd" clip-rule="evenodd" d="M3.22314 7.46799L5.42744 4.82385L5.95215 5.29143L3.74521 7.93831L3.22314 7.46799Z" fill="black"/>
<path fill-rule="evenodd" clip-rule="evenodd" d="M3.22314 7.46799L5.42744 4.82385L5.95215 5.29143L3.74521 7.93831L3.22314 7.46799ZM4.68389 8.78049L6.88818 6.13088L7.41289 6.6012L5.20596 9.24807L4.68389 8.78049Z" fill="black"/>
<path fill-rule="evenodd" clip-rule="evenodd" d="M3.22314 7.46799L5.42744 4.82385L5.95215 5.29143L3.74521 7.93831L3.22314 7.46799Z" fill="black"/>
<path fill-rule="evenodd" clip-rule="evenodd" d="M3.22314 7.46792L5.42744 4.82378L5.95215 5.29136L3.74521 7.93823L3.22314 7.46792ZM16.6388 4.82104L18.8272 7.48433L18.2999 7.94917L16.1114 5.28589L16.6388 4.82104ZM15.1701 6.11987L17.3586 8.78315L16.8313 9.248L14.6428 6.58472L15.1701 6.11987Z" fill="black"/>
<path fill-rule="evenodd" clip-rule="evenodd" d="M15.5365 7.65395L17.6037 5.80005L17.9913 6.26489L15.7765 8.32661L15.5312 7.65395H15.5365Z" fill="white"/>
<path fill-rule="evenodd" clip-rule="evenodd" d="M18.0838 14.1835L15.9639 16.8031L15.4444 16.3546L17.5644 13.7351L18.0838 14.1835ZM15.9111 5.46362L18.0996 8.1269L17.5749 8.59175L15.3891 5.92573L15.9111 5.46362ZM18.8036 14.8042L16.6811 17.4238L16.159 16.9753L18.2815 14.3558L18.8036 14.8042ZM17.3508 13.5519L15.2309 16.1714L14.7114 15.723L16.8313 13.1035L17.3508 13.5519Z" fill="black"/>
<path fill-rule="evenodd" clip-rule="evenodd" d="M7.28372 10.484C7.40501 11.4957 7.58167 12.6223 9.08197 12.7371C9.64359 12.7727 10.7378 12.6004 11.1122 11.009C11.6079 9.48322 13.0898 9.04572 14.0996 9.8715C14.6771 10.2598 14.8353 10.875 14.8722 11.3399C14.8274 12.8164 14.0047 14.1016 12.9527 14.6758C11.7398 15.4223 10.0628 15.4387 8.59417 14.3067C7.93236 13.6641 7.00687 12.4746 7.28372 10.484Z" fill="#3D5897"/>
<path fill-rule="evenodd" clip-rule="evenodd" d="M16.0217 14.1453L18.0941 15.9937L17.7092 16.4585L15.4126 14.4953L16.019 14.1453H16.0217Z" fill="white"/>
<path fill-rule="evenodd" clip-rule="evenodd" d="M4.47559 13.7789L6.66406 16.4395L6.13672 16.9043L3.94824 14.2438L4.47559 13.7789Z" fill="black"/>
<path fill-rule="evenodd" clip-rule="evenodd" d="M4.09863 15.9692L6.17109 14.1125L6.55869 14.5774L4.34385 16.6418L4.09863 15.9665V15.9692Z" fill="white"/>
<path fill-rule="evenodd" clip-rule="evenodd" d="M5.20303 13.1364L7.3915 15.7969L6.86416 16.2617L4.67568 13.6012L5.20303 13.1364ZM3.73438 14.4352L5.92285 17.0957L5.39551 17.5606L3.20703 14.9L3.73438 14.4352Z" fill="black"/>
</g>
</g>
<defs>
<clipPath id="clip0_102_19646">
<rect width="18" height="14" fill="white" transform="translate(2 4)"/>
</clipPath>
</defs>
</svg>
