<svg width="22" height="23" viewBox="0 0 22 23" fill="none" xmlns="http://www.w3.org/2000/svg">
<g clip-path="url(#clip0_115_25309)">
<g clip-path="url(#clip1_115_25309)">
<path fill-rule="evenodd" clip-rule="evenodd" d="M-4 0.5H24V22.5H-4V0.5Z" fill="#6FDCFF"/>
<path fill-rule="evenodd" clip-rule="evenodd" d="M-1.41443 16.2346C-1.27006 16.0879 -1.15193 15.6571 -0.758183 15.6846C-0.154433 15.6846 0.0730662 16.0375 0.0730662 16.3079C0.0730662 16.5784 -1.15193 18.7829 -1.19568 19.1817C-1.23943 19.5804 -0.985684 19.6904 -0.780059 19.6904C-0.570059 19.6904 -0.425683 19.5667 -0.425683 19.4521C-0.425683 19.3375 -0.530684 19.3146 -0.675058 19.3146C-0.819433 19.3146 -0.613809 19.3925 -0.736309 19.4521C-0.858809 19.5117 -0.946308 19.3604 -0.946308 19.2642C-0.946308 19.1679 -0.631308 19.1359 -0.421308 19.2092C-0.381933 18.9938 -0.364434 18.98 -0.653183 18.6134C-0.443183 18.7509 -0.425683 18.7875 -0.193809 18.705C-0.425683 18.9159 -0.255058 19.3329 -0.246308 19.4384C-0.237558 19.5438 -0.290059 19.6767 -0.381934 19.7409C-0.548184 19.9013 -0.915684 19.9059 -1.13443 19.805C-1.44943 19.6538 -1.46693 19.2184 -1.38381 19.0717L-0.193809 16.3859C-0.128183 16.2759 -0.294434 15.9092 -0.670684 15.8954C-1.06443 15.8634 -1.20006 16.2988 -1.27006 16.4867L-0.731934 16.4409C-0.731934 16.4409 -0.710059 16.5325 -0.731934 16.5875C-0.912483 16.6013 -1.09214 16.6258 -1.27006 16.6609L-1.29193 16.945H-1.02943L-1.04693 17.0734C-1.04693 17.0734 -1.27006 17.055 -1.29193 17.0734C-1.31381 17.0871 -1.33568 17.3575 -1.33568 17.3575C-1.33568 17.3575 -1.37943 17.3759 -1.42318 17.3759C-1.46693 17.3759 -1.51068 17.3575 -1.51068 17.3575C-1.51068 17.3575 -1.52818 17.0871 -1.55006 17.0734C-1.57193 17.055 -1.79506 17.0734 -1.79506 17.0734L-1.81693 16.945H-1.55006L-1.57193 16.6609C-1.57193 16.6609 -1.83443 16.6059 -2.11006 16.5875C-2.12756 16.5325 -2.11006 16.4454 -2.11006 16.4454L-1.57193 16.4867C-1.64193 16.2988 -1.77756 15.8634 -2.17131 15.8909C-2.54756 15.9092 -2.71381 16.2759 -2.65256 16.3859L-1.46256 19.0717C-1.37943 19.2138 -1.39693 19.6538 -1.71193 19.805C-1.93068 19.9059 -2.29818 19.8967 -2.46443 19.7409C-2.55631 19.6767 -2.60881 19.5484 -2.60006 19.4429C-2.59131 19.3375 -2.42506 18.9113 -2.65256 18.7096C-2.42068 18.7875 -2.39881 18.7554 -2.19318 18.6134C-2.48193 18.98 -2.46443 18.9938 -2.42068 19.2092C-2.21506 19.1359 -1.90006 19.1634 -1.90006 19.2642C-1.90006 19.3559 -1.98756 19.5163 -2.11006 19.4521C-2.23256 19.3879 -2.02256 19.3146 -2.17131 19.3146C-2.31568 19.3146 -2.42068 19.3421 -2.42068 19.4521C-2.42068 19.5621 -2.27631 19.6904 -2.07068 19.6904C-1.86506 19.6904 -1.61131 19.5804 -1.65068 19.1863C-1.69443 18.7875 -2.91943 16.5738 -2.91943 16.3079C-2.91943 16.0329 -2.69193 15.6892 -2.08818 15.6892C-1.69443 15.6571 -1.55006 16.0879 -1.41006 16.2346H-1.41443Z" fill="#FFE400"/>
<path fill-rule="evenodd" clip-rule="evenodd" d="M-1.41443 15.1392C-1.27006 15.2859 -1.15193 15.7167 -0.758183 15.6892C-0.154433 15.6892 0.0730662 15.3363 0.0730662 15.0659C0.0730662 14.7955 -1.15193 12.5909 -1.19568 12.1922C-1.23943 11.7934 -0.985684 11.6834 -0.780059 11.6834C-0.570059 11.6834 -0.425683 11.8072 -0.425683 11.9217C-0.425683 12.0363 -0.530684 12.0592 -0.675058 12.0592C-0.819433 12.0592 -0.613809 11.9859 -0.736309 11.9217C-0.858809 11.8576 -0.946308 12.0134 -0.946308 12.1097C-0.946308 12.2059 -0.631308 12.238 -0.421308 12.1647C-0.381933 12.3801 -0.364434 12.3938 -0.653183 12.7605C-0.443183 12.623 -0.425683 12.5863 -0.193809 12.6688C-0.425683 12.458 -0.255058 12.0409 -0.246308 11.9355C-0.237558 11.8301 -0.290059 11.6972 -0.381934 11.633C-0.548184 11.4772 -0.915684 11.468 -1.13443 11.5688C-1.44943 11.7201 -1.46693 12.1555 -1.38381 12.3022L-0.193809 14.9834C-0.128183 15.0934 -0.294434 15.4601 -0.670684 15.4738C-1.06443 15.5059 -1.20006 15.0705 -1.27006 14.8826L-0.731934 14.9284C-0.731934 14.9284 -0.710059 14.8367 -0.731934 14.7817C-0.912483 14.7679 -1.09214 14.7434 -1.27006 14.7084L-1.29193 14.4242H-1.02943L-1.04693 14.2959C-1.04693 14.2959 -1.27006 14.3142 -1.29193 14.2959C-1.31381 14.2822 -1.33568 14.0117 -1.33568 14.0117C-1.33568 14.0117 -1.37943 13.9934 -1.42318 13.9934C-1.46693 13.9934 -1.51068 14.0117 -1.51068 14.0117C-1.51068 14.0117 -1.52818 14.2822 -1.55006 14.2959C-1.57193 14.3142 -1.79506 14.2959 -1.79506 14.2959L-1.81693 14.4242H-1.55006L-1.57193 14.7084C-1.57193 14.7084 -1.83443 14.7634 -2.11006 14.7817C-2.12756 14.8367 -2.11006 14.9238 -2.11006 14.9238L-1.57193 14.8826C-1.64193 15.0705 -1.77756 15.5059 -2.17131 15.4784C-2.54756 15.4601 -2.71381 15.0934 -2.65256 14.9834L-1.46256 12.3022C-1.37943 12.1555 -1.39693 11.7201 -1.71193 11.5688C-1.93068 11.468 -2.29818 11.4772 -2.46443 11.633C-2.55631 11.6972 -2.60881 11.8255 -2.60006 11.9309C-2.59131 12.0363 -2.42506 12.458 -2.65256 12.6642C-2.42068 12.5863 -2.39881 12.6184 -2.19318 12.7605C-2.48193 12.3938 -2.46443 12.3801 -2.42068 12.1647C-2.21506 12.238 -1.90006 12.2105 -1.90006 12.1097C-1.90006 12.018 -1.98756 11.8576 -2.11006 11.9217C-2.23256 11.9859 -2.02256 12.0592 -2.17131 12.0592C-2.31568 12.0592 -2.42068 12.0317 -2.42068 11.9217C-2.42068 11.8117 -2.27631 11.6834 -2.07068 11.6834C-1.86506 11.6834 -1.61131 11.7934 -1.65068 12.1876C-1.69443 12.5863 -2.91943 14.8001 -2.91943 15.0659C-2.91943 15.3409 -2.69193 15.6847 -2.08818 15.6847C-1.69443 15.7167 -1.55006 15.2859 -1.41006 15.1392H-1.41443Z" fill="#FFE400"/>
<path fill-rule="evenodd" clip-rule="evenodd" d="M-1.41443 7.86083C-1.27006 7.71416 -1.15193 7.28333 -0.758183 7.31083C-0.154433 7.31083 0.0730662 7.66374 0.0730662 7.93416C0.0730662 8.20458 -1.15193 10.4092 -1.19568 10.8125C-1.23943 11.2067 -0.985684 11.3167 -0.780059 11.3167C-0.570059 11.3167 -0.425683 11.1929 -0.425683 11.0829C-0.425683 10.9729 -0.530684 10.9362 -0.675058 10.9362C-0.819433 10.9362 -0.613809 11.0187 -0.736309 11.0829C-0.858809 11.1471 -0.946308 10.9867 -0.946308 10.8904C-0.946308 10.7987 -0.631308 10.7621 -0.421308 10.8354C-0.381933 10.62 -0.364434 10.6062 -0.653183 10.2396C-0.443183 10.3817 -0.425683 10.4137 -0.193809 10.3312C-0.425683 10.5421 -0.255058 10.9637 -0.246308 11.0646C-0.237558 11.1654 -0.290059 11.3029 -0.381934 11.3671C-0.548184 11.5275 -0.915684 11.5321 -1.13443 11.4312C-1.44943 11.28 -1.46693 10.8446 -1.38381 10.6979L-0.193809 8.01666C-0.128183 7.90666 -0.294434 7.54 -0.670684 7.52625C-1.06443 7.49416 -1.20006 7.92958 -1.27006 8.11749L-0.731934 8.07166C-0.731934 8.07166 -0.710059 8.16333 -0.731934 8.21833C-1.01193 8.23666 -1.27006 8.29166 -1.27006 8.29166L-1.29193 8.57583H-1.02943L-1.04693 8.70416C-1.04693 8.70416 -1.27006 8.69041 -1.29193 8.70416C-1.31381 8.71791 -1.33568 8.99291 -1.33568 8.99291C-1.33568 8.99291 -1.37943 9.00666 -1.42318 9.00666C-1.46693 9.00666 -1.51068 8.99291 -1.51068 8.99291C-1.51068 8.99291 -1.52818 8.71791 -1.55006 8.70416C-1.57193 8.69041 -1.79506 8.70416 -1.79506 8.70416L-1.81693 8.57583H-1.55006L-1.57193 8.29166C-1.57193 8.29166 -1.83443 8.23666 -2.11006 8.21833C-2.12756 8.16333 -2.11006 8.07625 -2.11006 8.07625L-1.57193 8.11749C-1.64193 7.92958 -1.77756 7.49416 -2.17131 7.52166C-2.54756 7.53999 -2.71381 7.90666 -2.65256 8.01666L-1.46256 10.6979C-1.37943 10.8446 -1.39693 11.28 -1.71193 11.4312C-1.93068 11.5321 -2.29818 11.5229 -2.46443 11.3671C-2.55631 11.3029 -2.60881 11.1746 -2.60006 11.0692C-2.59131 10.9637 -2.42506 10.5421 -2.65256 10.3358C-2.42068 10.4137 -2.39881 10.3817 -2.19318 10.2396C-2.48193 10.6062 -2.46443 10.62 -2.42068 10.8354C-2.21506 10.7621 -1.90006 10.7942 -1.90006 10.8904C-1.90006 10.9821 -1.98756 11.1425 -2.11006 11.0783C-2.23256 11.0187 -2.02256 10.9408 -2.17131 10.9408C-2.31568 10.9408 -2.42068 10.9683 -2.42068 11.0783C-2.42068 11.1883 -2.27631 11.3167 -2.07068 11.3167C-1.86506 11.3167 -1.61131 11.2067 -1.65068 10.8125C-1.69443 10.4137 -2.91943 8.20458 -2.91943 7.93416C-2.91943 7.66374 -2.69193 7.31541 -2.08818 7.31541C-1.69443 7.28333 -1.55006 7.71416 -1.41006 7.86541L-1.41443 7.86083Z" fill="#FFE400"/>
<path fill-rule="evenodd" clip-rule="evenodd" d="M-1.41443 6.76547C-1.27006 6.91213 -1.15193 7.34755 -0.758183 7.31547C-0.154433 7.31547 0.0730662 6.96255 0.0730662 6.69213C0.0730662 6.42172 -1.15193 4.21713 -1.19568 3.81838C-1.23943 3.41963 -0.985684 3.30963 -0.780059 3.30963C-0.570059 3.30963 -0.425683 3.43797 -0.425683 3.54797C-0.425683 3.65797 -0.530684 3.69005 -0.675058 3.69005C-0.819433 3.69005 -0.613809 3.61213 -0.736309 3.54797C-0.858809 3.4838 -0.946308 3.63963 -0.946308 3.73588C-0.946308 3.83213 -0.631308 3.86422 -0.421308 3.79088C-0.381933 4.0063 -0.364434 4.02005 -0.653183 4.38672C-0.443183 4.24922 -0.425683 4.21255 -0.193809 4.29505C-0.425683 4.0888 -0.255058 3.66713 -0.246308 3.56172C-0.237558 3.4563 -0.290059 3.32338 -0.381934 3.25922C-0.548184 3.10338 -0.915684 3.09422 -1.13443 3.19963C-1.44943 3.3463 -1.46693 3.7863 -1.38381 3.92838L-0.193809 6.61422C-0.128183 6.72422 -0.294434 7.09088 -0.670684 7.10922C-1.06443 7.13672 -1.20006 6.70588 -1.27006 6.51338L-0.731934 6.55922C-0.731934 6.55922 -0.710059 6.46755 -0.731934 6.41255C-0.912386 6.4001 -1.09204 6.37715 -1.27006 6.3438L-1.29193 6.05505H-1.02943L-1.04693 5.92672C-1.04693 5.92672 -1.27006 5.94505 -1.29193 5.92672C-1.31381 5.91297 -1.33568 5.64255 -1.33568 5.64255C-1.33568 5.64255 -1.37943 5.62422 -1.42318 5.62422C-1.46693 5.62422 -1.51068 5.64255 -1.51068 5.64255C-1.51068 5.64255 -1.52818 5.91297 -1.55006 5.92672C-1.57193 5.94505 -1.79506 5.92672 -1.79506 5.92672L-1.81693 6.05505H-1.55006L-1.57193 6.3438C-1.57193 6.3438 -1.83443 6.39422 -2.11006 6.41255C-2.12756 6.47213 -2.11006 6.55922 -2.11006 6.55922L-1.57193 6.51338C-1.64193 6.70588 -1.77756 7.13672 -2.17131 7.10922C-2.54756 7.09088 -2.71381 6.72422 -2.65256 6.61422L-1.46256 3.92838C-1.37943 3.7863 -1.39693 3.3463 -1.71193 3.19505C-1.93068 3.09422 -2.29818 3.10338 -2.46443 3.25922C-2.55631 3.32338 -2.60881 3.45172 -2.60006 3.55713C-2.59131 3.66255 -2.42506 4.0888 -2.65256 4.29047C-2.42068 4.21255 -2.39881 4.24463 -2.19318 4.38672C-2.48193 4.02005 -2.46443 4.0063 -2.42068 3.79088C-2.21068 3.86422 -1.90006 3.83672 -1.90006 3.73588C-1.90006 3.64422 -1.98756 3.4838 -2.11006 3.54797C-2.23256 3.61213 -2.02256 3.69005 -2.17131 3.69005C-2.31568 3.69005 -2.42068 3.65797 -2.42068 3.54797C-2.42068 3.43797 -2.27631 3.30963 -2.07068 3.30963C-1.86506 3.30963 -1.60693 3.41963 -1.65068 3.8138C-1.69443 4.21255 -2.91943 6.4263 -2.91943 6.69213C-2.91943 6.96713 -2.69193 7.31547 -2.08818 7.31547C-1.69443 7.34755 -1.55006 6.91213 -1.41006 6.76547H-1.41443Z" fill="#FFE400"/>
<path d="M15.3165 9.93754C15.3165 7.75865 13.5374 5.99231 11.3428 5.99231C9.14822 5.99231 7.36914 7.75865 7.36914 9.93754C7.36914 12.1164 9.14822 13.8828 11.3428 13.8828C13.5374 13.8828 15.3165 12.1164 15.3165 9.93754Z" fill="#FFE400"/>
<path fill-rule="evenodd" clip-rule="evenodd" d="M11.1558 3.63941C11.1185 3.63941 10.941 4.95041 10.8757 5.24392C10.8103 5.90431 11.7162 5.87985 11.5667 5.21946L11.1558 3.63452V3.63941ZM11.4734 16.3483C11.506 16.3483 11.7769 15.052 11.8656 14.7633C11.973 14.1127 11.0671 14.0785 11.1652 14.7438L11.4734 16.3483ZM5.1416 9.91069C5.1416 9.94493 6.44437 10.2189 6.73388 10.3069C7.3876 10.4194 7.43429 9.52424 6.7619 9.62208L5.1416 9.91558V9.91069ZM17.8285 10.0672C17.8285 10.033 16.5117 9.80796 16.2175 9.7297C15.5591 9.64653 15.5544 10.5417 16.2175 10.4194L17.8285 10.0672ZM6.47706 5.75267C6.45371 5.77713 7.31289 6.79462 7.48566 7.0441C7.93392 7.53328 8.52694 6.84843 7.93392 6.51579L6.47706 5.75756V5.75267ZM16.3342 14.1176C16.3576 14.0932 15.4144 13.154 15.2182 12.924C14.728 12.474 14.2003 13.2029 14.8167 13.4866L16.3342 14.1225V14.1176ZM8.44289 4.33405C8.41488 4.34872 8.81645 5.61081 8.88182 5.90921C9.10595 6.53046 9.91844 6.12444 9.49819 5.59124L8.44756 4.33405H8.44289ZM14.191 15.7026C14.2237 15.6879 13.9108 14.4014 13.8688 14.103C13.6867 13.467 12.8508 13.8095 13.2291 14.3769L14.1956 15.6977L14.191 15.7026ZM15.6058 5.21457C15.5778 5.19011 14.5412 6.02661 14.289 6.19293C13.7894 6.63319 14.4665 7.22999 14.812 6.64787L15.6058 5.21457ZM7.06074 14.69C7.08409 14.7144 8.1814 13.9562 8.44289 13.8046C8.97054 13.4034 8.34017 12.7577 7.9526 13.3154L7.06541 14.69H7.06074ZM5.42644 7.6409C5.41243 7.67025 6.5471 8.35999 6.79458 8.54099C7.37826 8.85896 7.71913 8.02735 7.0514 7.89527L5.42644 7.6409ZM17.2728 12.4544C17.2868 12.4251 16.1988 11.6571 15.9654 11.4614C15.405 11.0994 15.0081 11.9065 15.6665 12.0826L17.2728 12.4544ZM13.5092 3.99651C13.4765 3.98673 12.8275 5.14119 12.6547 5.39068C12.655 5.47034 12.6792 5.54791 12.7237 5.61249C12.7682 5.67708 12.8309 5.72544 12.903 5.75079C12.9751 5.77615 13.053 5.77723 13.1257 5.75388C13.1984 5.73052 13.2623 5.68392 13.3084 5.62059L13.5092 3.99651ZM9.12463 15.9472C9.15732 15.9618 9.88575 14.8514 10.0725 14.6117C10.4134 14.0443 9.58691 13.6823 9.43281 14.3378L9.12463 15.9472ZM5.50582 12.5572C5.51983 12.5865 6.81326 12.2636 7.11677 12.2147C7.75182 12.0288 7.39694 11.207 6.83661 11.5886L5.50582 12.5572ZM17.2775 7.53328C17.2681 7.50393 15.956 7.73384 15.6525 7.76319C14.9988 7.90506 15.3023 8.75134 15.886 8.40891L17.2775 7.53328Z" fill="#FFE400"/>
<path fill-rule="evenodd" clip-rule="evenodd" d="M12.4448 3.72254C12.4121 3.71765 11.9732 4.96506 11.8425 5.239C11.651 5.87493 12.5429 6.03147 12.5289 5.3564L12.4495 3.71765L12.4448 3.72254ZM10.1801 16.2406C10.2128 16.2504 10.7405 15.0324 10.8899 14.7633C11.1234 14.1469 10.2455 13.9317 10.2128 14.6019L10.1755 16.2406H10.1801ZM9.72721 3.84484C9.69452 3.85462 9.81592 5.17541 9.81592 5.4787C9.90464 6.1293 10.7778 5.90428 10.4883 5.2977L9.72721 3.84484ZM12.9024 16.1673C12.9351 16.1624 12.9024 14.8367 12.9258 14.5334C12.8837 13.873 11.9919 14.0393 12.244 14.6655L12.8978 16.1673H12.9024ZM7.47654 4.9406C7.44852 4.96017 8.06956 6.1293 8.18629 6.40814C8.52249 6.98048 9.24625 6.44238 8.73729 5.98744L7.47654 4.9406ZM15.1718 15.1106C15.1998 15.0911 14.6581 13.8779 14.5647 13.5942C14.2706 13.0023 13.5141 13.4915 13.9857 13.9757L15.1718 15.1106ZM5.8329 6.58424C5.81422 6.61359 6.81815 7.48433 7.02827 7.70935C7.54658 8.12026 8.02753 7.35714 7.39249 7.11745L5.8329 6.58424ZM16.7687 13.4181C16.7874 13.3887 15.8488 12.4495 15.6527 12.2147C15.1671 11.7695 14.6348 12.4984 15.2512 12.7821L16.7687 13.4181ZM5.1138 8.6339C5.10446 8.66814 6.34186 9.16221 6.61269 9.30408C7.2384 9.52421 7.43918 8.64858 6.75744 8.62901L5.1138 8.6339ZM17.5999 11.4614C17.6139 11.432 16.4138 10.8548 16.1524 10.6933C15.5453 10.4292 15.2792 11.2901 15.9562 11.3586L17.5999 11.4614ZM5.07178 11.1532C5.07645 11.1825 6.4119 11.163 6.71542 11.1874C7.37848 11.1532 7.21972 10.2678 6.58467 10.5075L5.07178 11.1532ZM17.6886 8.95187C17.6886 8.91763 16.3531 8.84425 16.0543 8.80022C15.3866 8.79044 15.4846 9.68564 16.1337 9.48507L17.6886 8.94698V8.95187ZM6.21579 13.7654C6.23447 13.7947 7.42984 13.1979 7.71001 13.0854C8.28902 12.7675 7.7567 12.0386 7.29443 12.5327L6.21579 13.7654ZM16.5959 6.31519C16.5773 6.28584 15.3492 6.79948 15.055 6.89242C14.4527 7.17126 14.9336 7.93438 15.4286 7.47455L16.5959 6.31519ZM8.15827 15.4971C8.18629 15.5118 9.0408 14.4943 9.25559 14.279C9.66183 13.7556 8.88204 13.3007 8.65323 13.9366L8.15827 15.4971ZM14.6815 4.54926C14.6581 4.52969 13.7336 5.48359 13.5048 5.68415C13.0659 6.17822 13.813 6.68697 14.0838 6.0706L14.6768 4.54926H14.6815Z" fill="#FFE400"/>
<path fill-rule="evenodd" clip-rule="evenodd" d="M5.26686 12.5617C5.3382 12.814 5.34839 14.2268 6.78526 15.5891C8.21194 16.9413 10.6577 17.2441 10.6577 17.2441C10.6577 17.2441 10.6679 17.4358 10.4946 17.4459C10.3214 17.4661 9.48576 17.2945 9.06795 17.1633C8.66032 17.0422 8.29346 16.8202 8.2527 16.8303C8.20175 16.8505 8.12022 16.9918 7.99794 16.9716C7.87565 16.9514 7.2846 16.3459 7.01964 16.1845C6.48969 15.7309 6.02051 15.212 5.62353 14.6405C5.3382 14.1864 5.26686 13.8837 5.17515 13.8837C5.08343 13.8837 4.74714 14.1057 4.74714 14.1057C4.74714 14.1057 4.44142 13.6516 4.17647 12.925C3.90132 12.1984 3.9319 11.7746 3.99304 11.7443C4.06437 11.7141 4.06437 12.2792 4.26818 12.7938C4.47199 13.3186 4.75733 13.48 4.75733 13.48C4.75733 13.48 4.5739 13.2076 4.43123 12.5314C4.28857 11.8553 4.22742 11.1994 4.32933 10.9976C4.43123 10.7957 4.52295 10.7352 4.53314 10.7453C4.55352 10.7655 4.3599 11.0581 4.49238 11.8351C4.62485 12.6122 4.98153 13.2681 5.06305 13.2378C5.14458 13.2076 5.0121 13.0461 4.96114 12.592C4.91019 12.1379 5.0121 11.8553 5.12419 11.815C5.17515 11.7746 5.25667 12.3195 5.26686 12.5617ZM4.26818 13.8534C3.99304 13.6011 3.56503 12.7232 3.47332 12.7635C3.37141 12.814 4.16628 14.0754 4.18666 14.1763C4.20704 14.2974 4.38028 14.6405 4.2478 14.5901C4.11533 14.5396 3.1676 13.5507 3.2797 13.7424C3.3918 13.9341 4.10513 14.802 4.06437 14.8524C4.02361 14.9029 3.47332 14.3681 3.45294 14.4387C3.44275 14.4992 3.99304 15.024 3.98285 15.0845C3.97266 15.1451 3.62618 14.7515 3.62618 14.8323C3.62618 14.913 3.98285 15.3065 3.98285 15.3671C3.98285 15.4276 3.67713 15.0845 3.77904 15.2662C3.87075 15.468 4.13571 15.6396 4.12552 15.7001C4.11533 15.7607 3.90132 15.6194 3.90132 15.6496C3.90132 15.6799 4.29876 15.8212 4.39047 15.9322C4.49238 16.0432 5.14458 16.79 5.63372 17.1633C6.12287 17.5367 7.52917 18.1927 7.63107 18.1927C7.72279 18.1927 7.86546 17.9908 7.83489 17.9101C7.80431 17.8294 6.42859 17.3652 6.05154 17.0221C5.66429 16.679 4.72676 15.8515 4.64524 15.8111C4.5739 15.7607 4.3599 15.7808 4.3599 15.7304C4.3599 15.6799 4.63505 15.7607 4.61467 15.7304C4.60448 15.7001 4.23761 15.5386 4.2478 15.5084C4.26819 15.4781 4.50257 15.5689 4.50257 15.5386C4.50257 15.5084 4.07456 15.2763 4.09495 15.2258C4.10514 15.1754 4.41085 15.3671 4.41085 15.3267C4.41085 15.3065 4.00323 15.024 4.01342 14.9735C4.02361 14.9231 4.32933 15.1955 4.31914 15.135C4.30895 15.0744 4.07456 14.7313 4.07456 14.691C4.07456 14.6405 4.44142 15.0341 4.48219 14.9534C4.50257 14.8827 4.34971 14.2268 4.3599 14.2167C4.37009 14.2066 4.63504 14.358 4.67581 14.2671C4.72676 14.1662 4.49238 14.035 4.26818 13.8534ZM8.96604 18.8183C8.77242 18.8486 8.68071 18.7779 8.7928 18.6165C8.94566 18.6165 9.35328 18.4853 9.49595 18.4248C9.63862 18.3642 9.79148 18.2835 9.91377 18.1725C10.0361 18.0413 10.1176 18.2431 10.0462 18.3541C9.99529 18.4247 9.76091 18.5559 9.58767 18.6266C9.3329 18.7073 9.10871 18.8284 8.96604 18.8183ZM10.2399 18.3037C10.1074 18.1624 10.2195 18.0615 10.4131 17.9505C10.6984 17.7991 10.6169 17.5872 10.9838 17.4156C11.1468 17.3147 13.4295 16.4065 14.1734 15.9221C14.9173 15.4377 17.0064 13.8736 17.5669 12.7938C18.1172 11.7241 17.8522 11.6434 17.9338 11.603C18.0051 11.5526 18.0866 11.7544 18.0764 11.9966C18.056 12.2287 17.8726 12.9351 17.9338 13.0057C17.9949 13.0764 18.7694 12.4507 19.0955 11.6939C19.4216 10.937 19.6662 10.1499 19.819 10.1499C19.9821 10.1499 19.5541 11.4416 19.2789 11.9462C19.014 12.4507 18.698 12.703 18.7694 12.814C18.8509 12.9149 19.6458 12.259 19.9209 11.7746C20.1859 11.2801 20.4406 10.8462 20.4916 10.937C20.4105 11.5282 20.1752 12.0881 19.8088 12.5617C19.3808 13.0461 18.8713 13.3993 18.9528 13.4699C19.0241 13.5507 19.605 13.6314 20.2063 13.2277C20.8177 12.814 20.8788 12.2186 20.9502 12.2489C21.0317 12.2792 20.8788 13.0966 20.298 13.6011C19.7171 14.1057 18.9528 14.1561 18.9732 14.2671C19.014 14.3681 20.6343 13.8029 20.6037 13.9341C20.5731 14.0552 18.5044 14.8625 18.484 14.9433C18.484 15.0038 18.8407 15.024 19.4012 14.8928C19.9515 14.7717 20.4814 14.3378 20.5527 14.4387C20.5731 14.58 20.1553 14.9231 19.5235 15.0845C18.8815 15.246 18.5656 15.4579 18.5452 15.5084C18.535 15.5588 19.6865 15.3671 19.6865 15.4276C19.6865 15.4882 18.1783 15.7808 18.1681 15.8616C18.1478 15.9322 19.5948 15.5689 19.5744 15.6597C19.5337 15.7304 17.6077 16.2955 17.628 16.3258C17.6382 16.3661 19.2381 15.9827 19.2076 16.0432C19.1668 16.1138 16.5173 16.8505 16.4969 16.901C16.4765 16.9413 18.8407 16.3762 18.8203 16.4267C18.8 16.4771 17.5975 16.7698 17.5975 16.8001C17.5975 16.8303 18.5656 16.6487 18.5452 16.6991C18.535 16.7395 16.0994 17.3551 16.0485 17.4459C15.9975 17.5468 17.3121 17.1936 17.2917 17.3753C17.2714 17.5569 14.469 18.4853 14.4588 18.3137C14.4384 18.1422 16.1606 17.7083 16.1504 17.6578C16.13 17.6074 15.1619 17.7587 15.1415 17.6679C15.1313 17.567 15.7835 17.3652 15.7326 17.3248C15.6816 17.2743 15.1925 17.4661 15.2332 17.3551C15.2842 17.2441 16.2115 16.8202 16.1912 16.79C16.181 16.7597 15.8549 16.8909 15.8854 16.79C15.9262 16.679 17.893 16.1138 17.8624 16.0432C17.8318 15.9827 16.9555 16.1845 16.8739 16.2047C16.8434 16.1441 18.0968 15.6799 18.0764 15.5992C18.0357 15.5286 17.4038 15.8717 17.3631 15.7808C17.3427 15.6799 18.4739 15.246 18.4025 15.1754C18.3312 15.1047 17.8217 15.357 17.7503 15.2864C17.679 15.2157 18.8203 14.4387 18.6471 14.4185C18.4739 14.4084 18.2599 14.6607 18.2395 14.4992C18.2599 14.2974 19.1261 13.9644 18.9324 13.8029C18.6267 13.7121 17.5975 13.8736 17.1695 14.1259C16.7415 14.3781 15.3148 15.7808 14.9683 16.0028C14.6218 16.2148 13.4397 16.7092 13.2155 16.8101C12.869 16.9312 12.8079 17.1129 12.4512 17.2945C11.8092 17.4661 11.8194 17.6578 11.5137 17.7688C11.4016 17.7991 10.2501 18.344 10.2399 18.3037ZM8.62975 19.01C8.43613 19.111 8.26289 19.3531 8.37499 19.4541C8.43613 19.5752 8.62975 19.1816 8.78261 19.2018L9.59786 19.2421C10.0361 19.2724 10.2501 19.1513 10.4946 19.1715C10.7392 19.1917 11.2793 19.0403 11.5341 19.0403C11.7888 19.0403 11.8398 19.0706 11.8602 18.9596C11.8907 18.8587 11.0653 18.9293 10.6984 18.9192C10.3316 18.899 9.873 18.9899 9.59786 18.9899C9.34309 18.9798 8.9049 18.899 8.62975 19.01Z" fill="#FFE400"/>
<path d="M9.85283 18.8889C9.85283 18.8053 9.77526 18.7375 9.67959 18.7375C9.58391 18.7375 9.50635 18.8053 9.50635 18.8889C9.50635 18.9725 9.58391 19.0403 9.67959 19.0403C9.77526 19.0403 9.85283 18.9725 9.85283 18.8889Z" fill="#FFE400"/>
<path fill-rule="evenodd" clip-rule="evenodd" d="M13.9185 18.5963C14.0917 18.566 14.5605 18.7275 14.8866 18.7981C15.4776 19.0302 16.5782 18.9192 16.5782 19.0302C16.5782 19.1412 16.5069 19.2724 16.2521 19.2926C15.9973 19.3127 15.3553 19.1917 15.3757 19.1917C15.3961 19.1917 15.8852 19.4238 15.7426 19.4843C15.5999 19.5448 15.1821 19.3531 15.1108 19.4036C15.0394 19.454 15.498 19.5448 15.4165 19.5751C15.3553 19.6054 15.0394 19.5348 14.9375 19.5448C14.8356 19.565 15.019 19.676 14.8968 19.7164C14.7745 19.7669 14.5707 19.6558 14.4891 19.6861C14.3974 19.7164 14.6726 19.888 14.5503 19.9081C14.428 19.9283 14.1426 19.8274 13.9796 19.8072C13.8165 19.8072 14.1325 19.9687 14.0306 19.9889C13.9286 19.999 13.6433 19.8577 13.572 19.8577C13.5006 19.8577 13.572 20.0595 13.4701 20.0595C13.3682 20.0595 13.2459 19.8879 13.1847 19.8879C13.1236 19.8879 13.1847 20.0898 13.0828 20.0898C12.9809 20.0898 12.9402 19.8779 12.8586 19.8879C12.7567 19.9081 12.8586 20.1604 12.716 20.1402C12.5835 20.1301 12.5631 19.8779 12.451 19.8879C12.3491 19.9081 12.4714 20.1402 12.3695 20.1402C12.2676 20.1402 12.2472 19.9081 12.1453 19.8879C12.0434 19.8779 12.0841 20.11 12.023 20.11C11.9619 20.11 11.9007 19.8879 11.86 19.8879C11.8294 19.8879 11.86 20.11 11.7377 20.0898C11.6154 20.0696 11.6154 19.8476 11.5848 19.8577C11.5441 19.8779 11.544 20.0393 11.4625 20.0393C11.381 20.0393 11.3708 19.8779 11.3402 19.898C11.2995 19.9081 11.1772 20.11 11.0957 20.0797C11.0039 20.0494 11.116 19.8879 11.0753 19.8879C11.0345 19.8879 10.9326 19.999 10.8715 19.9889C10.8103 19.9788 10.8715 19.8476 10.8511 19.8476C10.8307 19.8476 10.6779 19.9283 10.6065 19.9283C10.5352 19.9283 10.3416 20.0292 10.2906 19.9384C10.2397 19.8375 10.4231 19.8375 10.4638 19.7467C10.4944 19.6559 10.3619 19.3834 10.5046 19.2926C10.6371 19.1917 11.0753 19.4237 11.7275 19.2623C12.9096 18.9495 13.8267 18.5862 13.9185 18.5963Z" fill="#FFE400"/>
</g>
</g>
<defs>
<clipPath id="clip0_115_25309">
<rect y="0.5" width="22" height="22" rx="11" fill="white"/>
</clipPath>
<clipPath id="clip1_115_25309">
<rect x="-4" y="0.5" width="28" height="22" rx="11" fill="white"/>
</clipPath>
</defs>
</svg>
