<svg width="162" height="162" viewBox="0 0 162 162" fill="none" xmlns="http://www.w3.org/2000/svg" xmlns:xlink="http://www.w3.org/1999/xlink">
<g filter="url(#filter0_b_196_13236)">
<circle cx="81" cy="81" r="80" fill="#F4F2FC" fill-opacity="0.1"/>
<circle cx="81" cy="81" r="80" stroke="#F4F2FC" stroke-opacity="0.1"/>
</g>
<path d="M82.022 95.3393C81.5534 96.1007 80.4466 96.1007 79.978 95.3393L66.1255 72.8289C65.6335 72.0294 66.2087 71 67.1475 71L94.8525 71C95.7913 71 96.3665 72.0294 95.8745 72.8289L82.022 95.3393Z" fill="url(#paint0_linear_196_13236)"/>
	<g id="circle">
<path d="M103.015 137.849L103.937 137.425L108.148 146.585L114.086 143.853L109.875 134.693L110.796 134.269L115.398 144.279L107.617 147.858L103.015 137.849Z" fill="#F4F2FC"/>
<path class="circle" d="M95.7137 139.935C96.5434 139.738 97.3043 139.702 97.9962 139.826C98.6881 139.951 99.3039 140.205 99.8436 140.59C100.376 140.987 100.827 141.494 101.197 142.111C101.567 142.727 101.845 143.43 102.032 144.219C102.218 145.007 102.284 145.761 102.229 146.478C102.177 147.206 102.001 147.862 101.701 148.445C101.39 149.031 100.954 149.535 100.391 149.957C99.8303 150.389 99.1352 150.703 98.3055 150.9C97.4757 151.097 96.7187 151.127 96.0346 150.99C95.3427 150.866 94.7307 150.605 94.1987 150.208C93.659 149.823 93.2041 149.323 92.8338 148.706C92.4636 148.089 92.1853 147.386 91.9989 146.597C91.8125 145.809 91.7467 145.056 91.8014 144.338C91.8562 143.62 92.0387 142.968 92.349 142.382C92.6492 141.799 93.0795 141.291 93.64 140.859C94.1927 140.44 94.8839 140.132 95.7137 139.935ZM98.094 150.005C98.7719 149.844 99.3352 149.583 99.7838 149.22C100.232 148.858 100.573 148.424 100.807 147.921C101.043 147.427 101.176 146.883 101.207 146.288C101.237 145.694 101.178 145.083 101.03 144.456C100.882 143.83 100.661 143.257 100.368 142.74C100.064 142.224 99.6967 141.799 99.2647 141.464C98.8328 141.128 98.3403 140.898 97.7871 140.773C97.2238 140.65 96.6032 140.669 95.9252 140.83C95.2472 140.991 94.6827 141.247 94.2318 141.6C93.7832 141.962 93.446 142.389 93.2201 142.881C92.9943 143.372 92.8662 143.915 92.8357 144.509C92.8052 145.104 92.8653 145.719 93.0158 146.356C93.164 146.983 93.3848 147.555 93.6781 148.073C93.9715 148.591 94.3341 149.017 94.766 149.353C95.1902 149.701 95.6839 149.936 96.2472 150.059C96.8004 150.184 97.416 150.166 98.094 150.005Z" fill="#F4F2FC"/>
<path class="circle" d="M88.6899 138.527L88.8122 142.593L88.6563 142.598C88.4277 142.605 88.2319 142.668 88.0691 142.787C87.8962 142.918 87.7552 143.073 87.6462 143.253C87.5076 143.486 87.4008 143.739 87.3257 144.011C87.2507 144.284 87.2009 144.53 87.1763 144.749C87.1081 145.25 87.0671 145.787 87.0531 146.359C87.0391 146.931 87.0286 147.446 87.0216 147.903C87.0044 148.715 87.0026 149.521 87.0163 150.321C87.0196 151.121 87.023 151.927 87.0266 152.737L80.1518 152.951L79.8485 142.872L78.4767 142.914L78.3544 138.848L79.3676 138.817L79.4618 141.948L87.7708 141.69L87.6766 138.558L88.6899 138.527ZM80.8462 142.84L81.1214 151.985L86.0008 151.834L86.0188 147.249C86.0246 146.749 86.0345 146.214 86.0485 145.641C86.0628 145.08 86.1145 144.553 86.2038 144.062C86.2571 143.759 86.3425 143.486 86.46 143.243C86.5775 143 86.7121 142.804 86.8636 142.653L80.8462 142.84Z" fill="#F4F2FC"/>
<path class="circle" d="M74.3887 152.722L70.6895 152.154C69.5079 151.973 68.6275 151.544 68.0485 150.866C67.4694 150.189 67.2743 149.239 67.4632 148.017C67.5584 147.4 67.7488 146.883 68.0344 146.464C68.3097 146.044 68.6562 145.708 69.0737 145.456C69.4794 145.213 69.9451 145.059 70.4708 144.992C70.9862 144.924 71.5317 144.934 72.1071 145.022L74.4962 145.389L75.0699 141.676L76.0717 141.829L74.3887 152.722ZM71.9951 145.951C71.5327 145.88 71.1035 145.867 70.7074 145.912C70.3113 145.956 69.9623 146.071 69.6602 146.256C69.3581 146.441 69.1082 146.697 68.9103 147.024C68.7023 147.35 68.5609 147.754 68.4863 148.237C68.3435 149.161 68.4937 149.857 68.9369 150.324C69.3785 150.802 70.036 151.108 70.9094 151.242L73.5297 151.644L74.3533 146.313L71.9951 145.951Z" fill="#F4F2FC"/>
<path class="circle" d="M61.2645 138.473C62.0676 138.758 62.7257 139.14 63.2387 139.62C63.7517 140.1 64.1302 140.648 64.374 141.264C64.6046 141.887 64.7075 142.558 64.6829 143.277C64.6582 143.996 64.5098 144.738 64.2376 145.502C63.9654 146.265 63.6113 146.934 63.1753 147.507C62.7358 148.09 62.2315 148.545 61.6624 148.873C61.0835 149.197 60.4434 149.383 59.7419 149.432C59.0369 149.49 58.2829 149.377 57.4798 149.092C56.6767 148.807 56.0252 148.421 55.5255 147.935C55.0125 147.455 54.6407 146.904 54.4101 146.281C54.1663 145.665 54.0567 144.997 54.0813 144.278C54.106 143.559 54.2544 142.817 54.5266 142.054C54.7988 141.29 55.1529 140.621 55.589 140.048C56.025 139.475 56.5324 139.026 57.1113 138.702C57.6803 138.375 58.3174 138.182 59.0223 138.123C59.714 138.071 60.4614 138.187 61.2645 138.473ZM57.7886 148.225C58.4448 148.458 59.0597 148.544 59.6332 148.483C60.2066 148.422 60.7282 148.243 61.198 147.947C61.6643 147.66 62.0718 147.275 62.4204 146.792C62.7691 146.309 63.0516 145.764 63.268 145.157C63.4843 144.55 63.6101 143.95 63.6454 143.355C63.6708 142.758 63.5935 142.201 63.4133 141.684C63.2332 141.168 62.9451 140.707 62.5489 140.302C62.1429 139.893 61.6119 139.572 60.9557 139.339C60.2994 139.106 59.6864 139.015 59.1164 139.067C58.5429 139.128 58.0279 139.304 57.5714 139.594C57.1149 139.884 56.7124 140.27 56.3637 140.753C56.0151 141.236 55.7308 141.786 55.5109 142.403C55.2946 143.01 55.1688 143.611 55.1335 144.205C55.0983 144.799 55.1708 145.354 55.3509 145.871C55.5177 146.393 55.8041 146.859 56.2101 147.268C56.6062 147.673 57.1324 147.992 57.7886 148.225Z" fill="#F4F2FC"/>
<path class="circle" d="M48.1023 145.112L41.7738 141.391L42.249 140.585L47.7041 143.792L49.6045 140.567L47.1995 139.153C46.7337 138.879 46.3114 138.583 45.9326 138.264C45.5486 137.953 45.2579 137.608 45.0605 137.226C44.8489 136.848 44.7494 136.434 44.7619 135.983C44.7743 135.532 44.9416 135.033 45.2637 134.487C45.5857 133.941 45.949 133.539 46.3535 133.282C46.7528 133.035 47.1797 132.894 47.6341 132.859C48.0833 132.834 48.5519 132.898 49.0399 133.053C49.5137 133.211 49.9924 133.432 50.4761 133.716L53.7008 135.612L48.1023 145.112ZM52.3523 135.905L50.1622 134.617C49.8039 134.406 49.4414 134.223 49.0746 134.068C48.7026 133.922 48.3471 133.839 48.0081 133.821C47.6639 133.812 47.3391 133.892 47.0337 134.062C46.7194 134.227 46.4355 134.525 46.1821 134.955C45.9287 135.385 45.8114 135.768 45.8301 136.105C45.8345 136.445 45.9297 136.754 46.1155 137.032C46.3014 137.31 46.5495 137.565 46.8598 137.796C47.1611 138.021 47.482 138.234 47.8224 138.434L50.0797 139.761L52.3523 135.905Z" fill="#F4F2FC"/>
<path class="circle" d="M39.8934 133.809L35.0107 129.544L31.6216 133.419L30.8587 132.753L38.1196 124.452L38.8825 125.118L35.6269 128.84L40.5096 133.105L43.7652 129.383L44.5281 130.049L37.2672 138.35L36.5043 137.684L39.8934 133.809Z" fill="#F4F2FC"/>
<path class="circle" d="M27.2854 129.038L22.7417 123.393L23.471 122.807L27.3796 127.662L30.613 125.061L27.0952 120.691L27.8246 120.105L31.3423 124.474L34.5149 121.922L30.6063 117.067L31.3356 116.48L35.8793 122.124L27.2854 129.038Z" fill="#F4F2FC"/>
<path class="circle" d="M20.1053 119.527L16.5555 113.211L17.3715 112.752L20.4251 118.186L24.0427 116.153L21.2945 111.262L22.1105 110.804L24.8587 115.694L28.4083 113.699L25.3547 108.265L26.1707 107.807L29.7205 114.123L20.1053 119.527Z" fill="#F4F2FC"/>
<path class="circle" d="M20.8095 70.8474L20.7024 71.8549L10.6682 70.8003L9.97801 77.2953L20.0122 78.3499L19.9051 79.3575L8.94042 78.2051L9.84476 69.6949L20.8095 70.8474Z" fill="#F4F2FC"/>
<path class="circle" d="M22.7832 63.4879C22.5264 64.3007 22.1671 64.9723 21.7052 65.5026C21.2434 66.0329 20.7088 66.4313 20.1013 66.6979C19.4871 66.9515 18.82 67.0794 18.0998 67.0817C17.3797 67.0839 16.633 66.9634 15.8596 66.7201C15.0863 66.4768 14.4053 66.1482 13.8167 65.7342C13.2182 65.317 12.7452 64.8304 12.3977 64.2743C12.0533 63.7083 11.8443 63.0759 11.7708 62.3771C11.6873 61.6753 11.774 60.9179 12.0308 60.1052C12.2876 59.2924 12.6503 58.6274 13.1189 58.1101C13.5807 57.5798 14.1188 57.1878 14.733 56.9343C15.3404 56.6677 16.0042 56.5333 16.7243 56.531C17.4444 56.5287 18.1911 56.6492 18.9645 56.8925C19.7378 57.1358 20.4188 57.4645 21.0074 57.8785C21.596 58.2925 22.0625 58.7825 22.4069 59.3485C22.7544 59.9046 22.9699 60.5336 23.0533 61.2355C23.13 61.9244 23.0399 62.6752 22.7832 63.4879ZM12.9082 60.3812C12.6984 61.0453 12.6342 61.6626 12.7156 62.233C12.797 62.8035 12.9942 63.3178 13.3073 63.7759C13.6104 64.2309 14.0096 64.6234 14.5048 64.9536C15 65.2837 15.5549 65.5455 16.1697 65.7389C16.7844 65.9323 17.3894 66.0354 17.9848 66.0484C18.5834 66.0515 19.1375 65.9534 19.6474 65.7542C20.1572 65.555 20.6078 65.25 20.9992 64.8391C21.3937 64.4184 21.6959 63.876 21.9057 63.2119C22.1155 62.5478 22.1847 61.9321 22.1132 61.3647C22.0319 60.7943 21.838 60.2865 21.5317 59.8415C21.2254 59.3964 20.8247 59.0088 20.3295 58.6786C19.8343 58.3485 19.2744 58.0852 18.6498 57.8887C18.0351 57.6953 17.43 57.5921 16.8346 57.5791C16.2392 57.5662 15.6866 57.6593 15.1767 57.8585C14.6601 58.0447 14.2046 58.3481 13.81 58.7688C13.4186 59.1797 13.118 59.7171 12.9082 60.3812Z" fill="#F4F2FC"/>
<path class="circle" d="M27.5597 58.2665L23.9935 56.3088L24.0687 56.1721C24.179 55.9718 24.2242 55.7712 24.2042 55.5704C24.1801 55.3556 24.1182 55.1556 24.0185 54.9704C23.8883 54.7328 23.7248 54.5126 23.5281 54.3097C23.3313 54.1068 23.1448 53.9392 22.9686 53.8069C22.5715 53.494 22.1299 53.1864 21.644 52.884C21.158 52.5817 20.7196 52.3114 20.3289 52.0731C19.6384 51.6467 18.945 51.2364 18.2486 50.8422C17.5572 50.439 16.8613 50.0332 16.1608 49.625L19.4769 43.5995L28.3173 48.4525L28.979 47.2501L32.5452 49.2078L32.0564 50.0959L29.31 48.5882L25.3021 55.8707L28.0485 57.3784L27.5597 58.2665ZM27.836 49.3269L19.8155 44.924L17.4619 49.2006L21.4038 51.5424C21.831 51.8006 22.2876 52.0809 22.7735 52.3833C23.2504 52.6806 23.6778 52.9924 24.0558 53.3185C24.2899 53.5181 24.4816 53.7301 24.631 53.9545C24.7803 54.1788 24.8812 54.3942 24.9335 54.6009L27.836 49.3269Z" fill="#F4F2FC"/>
<path class="circle" d="M22.6388 38.7173L25.0178 35.8268C25.7777 34.9035 26.5972 34.3655 27.4763 34.213C28.3554 34.0605 29.2725 34.3767 30.2277 35.1616C30.7094 35.5573 31.0574 35.9846 31.2718 36.4435C31.4929 36.8943 31.6048 37.3631 31.6077 37.8501C31.6092 38.3224 31.5043 38.8014 31.2928 39.2872C31.088 39.7649 30.8006 40.2286 30.4305 40.6783L28.8941 42.545L31.7959 44.9295L31.1516 45.7123L22.6388 38.7173ZM29.6883 40.1087C29.9856 39.7474 30.2164 39.3852 30.3807 39.0222C30.5449 38.6591 30.6246 38.3007 30.6198 37.9468C30.6151 37.5929 30.5225 37.2477 30.3421 36.911C30.1683 36.5663 29.8927 36.2389 29.5154 35.9289C28.793 35.3353 28.1174 35.1099 27.4885 35.2527C26.8517 35.3889 26.2524 35.7982 25.6907 36.4807L24.0055 38.5281L28.1716 41.9514L29.6883 40.1087Z" fill="#F4F2FC"/>
<path class="circle" d="M41.4989 34.8012C40.8426 35.3458 40.1768 35.7162 39.5014 35.9122C38.826 36.1083 38.161 36.154 37.5062 36.0494C36.8529 35.9301 36.2231 35.6765 35.617 35.2886C35.0108 34.9007 34.4489 34.3951 33.9311 33.7718C33.4134 33.1485 33.0195 32.5034 32.7495 31.8365C32.4728 31.1616 32.3392 30.4962 32.3487 29.8403C32.3663 29.1777 32.5335 28.5327 32.8505 27.9051C33.1608 27.2696 33.6441 26.6795 34.3003 26.1348C34.9565 25.5902 35.6217 25.2271 36.2957 25.0457C36.9711 24.8497 37.6355 24.8113 38.2888 24.9305C38.9436 25.0351 39.574 25.2814 40.1802 25.6693C40.7863 26.0572 41.3483 26.5629 41.866 27.1862C42.3837 27.8095 42.7776 28.4546 43.0476 29.1215C43.3177 29.7884 43.4439 30.4531 43.4264 31.1156C43.4169 31.7715 43.257 32.4172 42.9467 33.0528C42.6377 33.6737 42.1551 34.2565 41.4989 34.8012ZM34.8877 26.842C34.3515 27.287 33.963 27.7715 33.7222 28.2954C33.4813 28.8193 33.3683 29.3586 33.383 29.9134C33.391 30.4603 33.5136 31.0066 33.7506 31.5523C33.9876 32.0981 34.3119 32.6188 34.7234 33.1142C35.135 33.6096 35.5873 34.024 36.0804 34.3572C36.5815 34.6838 37.1002 34.9013 37.6365 35.0098C38.1727 35.1182 38.7165 35.1056 39.268 34.972C39.8274 34.8316 40.3753 34.539 40.9114 34.094C41.4476 33.6489 41.8395 33.1685 42.087 32.6526C42.3278 32.1287 42.4402 31.5967 42.4241 31.0565C42.4081 30.5163 42.2815 29.9733 42.0445 29.4275C41.8075 28.8817 41.4799 28.3571 41.0617 27.8537C40.6502 27.3582 40.1978 26.9439 39.7047 26.6107C39.2116 26.2774 38.6969 26.0566 38.1607 25.9481C37.6258 25.8251 37.0786 25.8337 36.5192 25.974C35.9677 26.1077 35.4239 26.397 34.8877 26.842Z" fill="#F4F2FC"/>
<path class="circle" d="M42.8986 19.8595L49.359 16.3586L49.8043 17.1806L44.2356 20.1984L46.0171 23.4864L48.4723 22.1559C48.9478 21.8982 49.4202 21.6895 49.8896 21.5296C50.354 21.3607 50.8007 21.2899 51.2296 21.3174C51.6627 21.3308 52.0693 21.459 52.4494 21.702C52.8295 21.9451 53.1704 22.3451 53.4723 22.9023C53.7742 23.4594 53.9306 23.9772 53.9414 24.4558C53.9474 24.9252 53.8476 25.3632 53.6421 25.77C53.4317 26.1676 53.1343 26.5355 52.7498 26.8738C52.3695 27.1981 51.9325 27.494 51.4387 27.7616L48.1468 29.5455L42.8986 19.8595ZM48.5929 28.2403L50.8287 27.0288C51.1945 26.8305 51.5387 26.6145 51.8614 26.3805C52.1792 26.1374 52.4336 25.8755 52.6245 25.5948C52.8105 25.3049 52.9095 24.9855 52.9214 24.6364C52.9425 24.2823 52.8343 23.8861 52.5967 23.4476C52.3592 23.0092 52.0913 22.7113 51.7931 22.5539C51.4991 22.3824 51.1849 22.3046 50.8504 22.3204C50.5159 22.3363 50.1697 22.4176 49.8115 22.5644C49.4625 22.7063 49.1143 22.8714 48.7668 23.0597L46.4625 24.3084L48.5929 28.2403Z" fill="#F4F2FC"/>
<path class="circle" d="M56.594 18.7181L62.7617 16.6996L61.1647 11.8116L62.1284 11.4962L65.5499 21.9684L64.5862 22.2838L63.0521 17.5884L56.8843 19.6068L58.4185 24.3023L57.4547 24.6176L54.0333 14.1454L54.997 13.83L56.594 18.7181Z" fill="#F4F2FC"/>
<path class="circle" d="M67.1187 10.3018L74.3021 9.29809L74.4307 10.2243L68.2515 11.0877L68.8217 15.1938L74.383 14.4167L74.5116 15.3429L68.9503 16.1199L69.5098 20.1489L75.689 19.2855L75.8176 20.2117L68.6342 21.2153L67.1187 10.3018Z" fill="#F4F2FC"/>
<path class="circle" d="M78.7451 8.98271L85.995 9.15791L85.9714 10.0928L79.735 9.94212L79.6303 14.087L85.2431 14.2226L85.2195 15.1575L79.6067 15.0219L79.5041 19.0888L85.7405 19.2395L85.7169 20.1744L78.4671 19.9992L78.7451 8.98271Z" fill="#F4F2FC"/>
<path class="circle" d="M120.185 34.1656L119.372 33.5613L125.399 25.4669L120.158 21.5717L114.131 29.6661L113.318 29.0618L119.904 20.2167L126.771 25.3205L120.185 34.1656Z" fill="#F4F2FC"/>
<path class="circle" d="M125.534 39.5338C124.966 38.8998 124.57 38.2494 124.349 37.5826C124.128 36.9158 124.058 36.2534 124.138 35.5955C124.233 34.9383 124.463 34.2994 124.828 33.6789C125.194 33.0583 125.679 32.4772 126.282 31.9357C126.886 31.3942 127.517 30.9755 128.174 30.6797C128.838 30.3769 129.498 30.2173 130.155 30.2011C130.818 30.1926 131.469 30.3343 132.108 30.6262C132.755 30.9111 133.363 31.3706 133.932 32.0046C134.501 32.6385 134.889 33.2885 135.095 33.9546C135.316 34.6214 135.38 35.2833 135.285 35.9405C135.204 36.5985 134.982 37.2377 134.616 37.8583C134.251 38.4789 133.766 39.0599 133.162 39.6015C132.558 40.143 131.928 40.5617 131.271 40.8575C130.614 41.1534 129.954 41.3055 129.291 41.3141C128.635 41.3303 127.983 41.196 127.336 40.911C126.704 40.6268 126.103 40.1678 125.534 39.5338ZM133.247 32.619C132.782 32.101 132.283 31.732 131.75 31.512C131.218 31.2921 130.674 31.2003 130.12 31.2368C129.573 31.2663 129.032 31.4101 128.495 31.6683C127.958 31.9264 127.45 32.2707 126.969 32.7011C126.489 33.1316 126.092 33.5996 125.777 34.1051C125.469 34.6184 125.271 35.1449 125.182 35.6847C125.094 36.2245 125.127 36.7671 125.281 37.3126C125.442 37.8658 125.755 38.4014 126.22 38.9194C126.685 39.4374 127.18 39.8098 127.705 40.0367C128.237 40.2567 128.774 40.348 129.313 40.3108C129.853 40.2736 130.391 40.1259 130.928 39.8677C131.465 39.6096 131.977 39.2618 132.465 38.8244C132.945 38.394 133.342 37.926 133.657 37.4205C133.972 36.9149 134.174 36.3923 134.262 35.8525C134.366 35.3135 134.337 34.7674 134.175 34.2142C134.021 33.6687 133.712 33.137 133.247 32.619Z" fill="#F4F2FC"/>
<path class="circle" d="M127.79 46.5116L131.301 44.4486L131.38 44.5829C131.495 44.7799 131.645 44.9211 131.828 45.0064C132.025 45.0955 132.228 45.1444 132.439 45.1534C132.71 45.1628 132.983 45.1349 133.258 45.0695C133.533 45.0041 133.773 44.9296 133.977 44.8458C134.449 44.6645 134.94 44.4423 135.449 44.1794C135.958 43.9164 136.415 43.678 136.82 43.464C137.541 43.0888 138.249 42.7028 138.944 42.306C139.645 41.9182 140.351 41.5277 141.061 41.1346L144.543 47.0589L135.84 52.173L136.535 53.3551L133.025 55.4182L132.511 54.545L135.215 52.9562L131.007 45.796L128.303 47.3848L127.79 46.5116ZM135.335 51.3132L143.23 46.6734L140.759 42.4686L136.726 44.6581C136.285 44.8932 135.81 45.1422 135.301 45.4051C134.801 45.6628 134.314 45.8707 133.84 46.0288C133.548 46.1279 133.268 46.1843 132.998 46.198C132.729 46.2118 132.492 46.1884 132.288 46.1278L135.335 51.3132Z" fill="#F4F2FC"/>
<path class="circle" d="M147.153 52.2519L148.422 55.7696C148.828 56.8933 148.872 57.8717 148.553 58.7048C148.235 59.5379 147.493 60.1648 146.329 60.5854C145.743 60.7975 145.197 60.8787 144.693 60.8291C144.192 60.7892 143.731 60.6464 143.311 60.4007C142.904 60.1612 142.545 59.8268 142.235 59.3975C141.929 58.978 141.677 58.4946 141.48 57.9474L140.66 55.6756L137.124 56.9535L136.78 56.0008L147.153 52.2519ZM142.349 57.5999C142.508 58.0396 142.702 58.4226 142.93 58.7488C143.158 59.075 143.426 59.3262 143.733 59.5025C144.04 59.6788 144.384 59.7752 144.766 59.7918C145.151 59.8182 145.574 59.7483 146.034 59.5822C146.914 59.264 147.454 58.7984 147.652 58.1853C147.861 57.5686 147.815 56.845 147.516 56.0145L146.616 53.5228L141.54 55.3574L142.349 57.5999Z" fill="#F4F2FC"/>
<path class="circle" d="M140.951 70.6792C140.821 69.8372 140.846 69.0763 141.025 68.3967C141.205 67.7171 141.508 67.1234 141.934 66.6156C142.373 66.1166 142.915 65.7067 143.56 65.3859C144.205 65.0651 144.928 64.8426 145.73 64.7184C146.531 64.5941 147.288 64.5873 147.999 64.6978C148.721 64.8067 149.361 65.0334 149.919 65.3779C150.479 65.7327 150.946 66.2069 151.322 66.8006C151.708 67.3926 151.966 68.1096 152.095 68.9516C152.225 69.7936 152.195 70.5501 152.003 71.2211C151.824 71.9007 151.515 72.4901 151.077 72.9891C150.65 73.4968 150.114 73.9111 149.469 74.2318C148.824 74.5526 148.101 74.7751 147.299 74.8994C146.498 75.0236 145.741 75.0305 145.03 74.92C144.318 74.8095 143.683 74.5768 143.123 74.222C142.565 73.8775 142.093 73.4092 141.707 72.8172C141.333 72.2338 141.081 71.5212 140.951 70.6792ZM151.186 69.0926C151.08 68.4046 150.864 67.823 150.538 67.3479C150.212 66.8727 149.808 66.4991 149.324 66.2272C148.85 65.9536 148.318 65.7785 147.728 65.7018C147.137 65.6251 146.523 65.6362 145.886 65.7349C145.249 65.8337 144.661 66.009 144.121 66.2609C143.582 66.5231 143.129 66.8563 142.76 67.2604C142.391 67.6646 142.122 68.1374 141.953 68.6788C141.785 69.2304 141.754 69.8502 141.86 70.5382C141.967 71.2262 142.177 71.8085 142.493 72.2853C142.819 72.7605 143.217 73.1297 143.689 73.393C144.161 73.6563 144.693 73.8262 145.283 73.9029C145.874 73.9796 146.493 73.9678 147.14 73.8674C147.777 73.7686 148.366 73.5933 148.906 73.3414C149.445 73.0895 149.9 72.7615 150.269 72.3573C150.65 71.9618 150.924 71.4883 151.092 70.9366C151.261 70.3952 151.292 69.7806 151.186 69.0926Z" fill="#F4F2FC"/>
<path class="circle" d="M153.077 79.2233L152.784 86.5591L151.849 86.5228L152.102 80.1994L148.362 80.054L148.25 82.8419C148.229 83.3818 148.167 83.8942 148.064 84.379C147.972 84.8642 147.804 85.284 147.561 85.6385C147.328 86.0039 147.01 86.2879 146.606 86.4906C146.203 86.6933 145.684 86.7823 145.05 86.7577C144.416 86.7331 143.891 86.6034 143.474 86.3688C143.067 86.1346 142.741 85.8256 142.496 85.4417C142.262 85.0582 142.098 84.615 142.003 84.1122C141.919 83.6202 141.888 83.0938 141.91 82.5331L142.06 78.7951L153.077 79.2233ZM142.954 79.8438L142.853 82.3825C142.836 82.7979 142.846 83.2038 142.882 83.6004C142.929 83.9974 143.024 84.3495 143.168 84.6566C143.322 84.9642 143.546 85.2121 143.84 85.4003C144.134 85.599 144.53 85.7079 145.029 85.7273C145.528 85.7467 145.921 85.6684 146.209 85.4924C146.507 85.3272 146.735 85.0969 146.892 84.8014C147.05 84.5059 147.157 84.1669 147.214 83.7844C147.27 83.4122 147.306 83.0288 147.322 82.6342L147.427 80.0177L142.954 79.8438Z" fill="#F4F2FC"/>
<path class="circle" d="M147.036 91.7268L145.605 98.0527L150.625 99.1817L150.402 100.17L139.647 97.7513L139.87 96.7628L144.692 97.8474L146.123 91.5215L141.301 90.4369L141.525 89.4485L152.279 91.8674L152.056 92.8558L147.036 91.7268Z" fill="#F4F2FC"/>
<path class="circle" d="M148.898 105.021L146.094 111.708L145.231 111.347L147.643 105.595L143.817 103.996L141.647 109.173L140.784 108.813L142.954 103.635L139.2 102.067L136.788 107.819L135.925 107.459L138.729 100.771L148.898 105.021Z" fill="#F4F2FC"/>
<path class="circle" d="M144.127 115.653L140.285 121.804L139.491 121.309L142.796 116.018L139.278 113.825L136.303 118.587L135.51 118.092L138.484 113.33L135.032 111.178L131.727 116.469L130.933 115.975L134.776 109.824L144.127 115.653Z" fill="#F4F2FC"/>
<path class="circle" d="M102.229 17.8132L102.824 19.2523L102.083 19.5909L101.471 18.1219L100.282 19.1516L99.7671 18.5504L100.971 17.5196L99.6249 16.6856L100.043 16.0124L101.374 16.8476L101.757 15.3173L102.537 15.4916L102.17 17.0362L103.741 16.915L103.8 17.692L102.229 17.8132Z" fill="#F4F2FC"/>
<path class="circle" d="M15.965 94.4738L17.0949 93.3997L17.6769 93.9681L16.5256 95.0696L17.9136 95.806L17.5374 96.5033L16.1427 95.7528L15.8476 97.3092L15.0692 97.1626L15.3709 95.6203L13.8046 95.8149L13.6872 95.0249L15.261 94.8096L14.5838 93.3889L15.2878 93.0531L15.965 94.4738Z" fill="#F4F2FC"/>
<path class="circle" d="M125.649 129.874L126.778 128.8L127.36 129.369L126.209 130.47L127.597 131.206L127.221 131.904L125.826 131.153L125.531 132.71L124.753 132.563L125.054 131.021L123.488 131.215L123.371 130.425L124.944 130.21L124.267 128.789L124.971 128.454L125.649 129.874Z" fill="#F4F2FC"/>
	</g>
<animateTransform xlink:href="#circle" attributeName="transform" attributeType="XML" type="rotate" from="0 81 81" to="360 81 81" dur="8s" repeatCount="indefinite"></animateTransform>
<defs>
<filter id="filter0_b_196_13236" x="-4.5" y="-4.5" width="171" height="171" filterUnits="userSpaceOnUse" color-interpolation-filters="sRGB">
<feFlood flood-opacity="0" result="BackgroundImageFix"/>
<feGaussianBlur in="BackgroundImageFix" stdDeviation="2.5"/>
<feComposite in2="SourceAlpha" operator="in" result="effect1_backgroundBlur_196_13236"/>
<feBlend mode="normal" in="SourceGraphic" in2="effect1_backgroundBlur_196_13236" result="shape"/>
</filter>
<linearGradient id="paint0_linear_196_13236" x1="66.7897" y1="84.6094" x2="87.0534" y2="64.3913" gradientUnits="userSpaceOnUse">
<stop stop-color="#7313BE"/>
<stop offset="0.935927" stop-color="#2BFBBC"/>
</linearGradient>
</defs>

</svg>
