<svg width="18" height="18" viewBox="0 0 18 18" fill="none" xmlns="http://www.w3.org/2000/svg">
<path d="M12.5033 4.9312L4.51421 12.0329C4.24972 12.2881 4.10761 12.6224 4.11731 12.9667C4.127 13.3109 4.28776 13.6387 4.56629 13.8822C4.84482 14.1257 5.2198 14.2663 5.61359 14.2747C6.00737 14.2832 6.3898 14.159 6.68171 13.9278L16.2053 5.48457C16.7342 4.97419 17.0185 4.30552 16.9991 3.617C16.9797 2.92848 16.6582 2.27285 16.1011 1.78585C15.544 1.29884 14.7941 1.01777 14.0065 1.00081C13.2189 0.983862 12.4541 1.23233 11.8703 1.69478L2.34671 10.138C1.48443 10.8918 1 11.9142 1 12.9803C1 14.0464 1.48443 15.0688 2.34671 15.8227C3.20899 16.5765 4.3785 17 5.59796 17C6.81741 17 7.98692 16.5765 8.8492 15.8227L16.7232 8.95576" stroke="url(#paint0_linear_238_6935)" stroke-linecap="round" stroke-linejoin="round"/>
<defs>
<linearGradient id="paint0_linear_238_6935" x1="-0.454546" y1="16.9999" x2="17.4821" y2="16.9333" gradientUnits="userSpaceOnUse">
<stop stop-color="#E636C3"/>
<stop offset="0.9999" stop-color="#8E1BE8"/>
<stop offset="1" stop-color="#8E1BE8"/>
</linearGradient>
</defs>
</svg>
