<svg width="40" height="30" viewBox="0 0 40 30" fill="none" xmlns="http://www.w3.org/2000/svg">
<path d="M40 21.9881C40 26.3881 36.1611 29.955 31.4256 29.955C27.308 29.955 23.6338 26.7206 22.8383 23.6614C22.8383 23.6614 19.8526 16.8994 23.6338 9.35208C27.1582 2.31744 34.2343 0 34.2343 0L35.3053 1.95664C35.3053 1.95664 30.5081 3.81247 27.9526 7.76024C24.9901 12.3368 26.7687 15.2976 26.7687 15.2976C28.1096 14.4902 29.7087 14.0213 31.4256 14.0213C36.1611 14.0213 40 17.5882 40 21.9881Z" fill="url(#paint0_linear_352_643)"/>
<path d="M9.70662 30C14.4421 30 18.281 26.4331 18.281 22.0332C18.281 17.6332 14.4421 14.0663 9.70662 14.0663C7.98971 14.0663 6.39065 14.5352 5.04969 15.3427C5.04969 15.3427 3.27114 12.3818 6.23362 7.80526C8.78907 3.85749 13.5863 2.00166 13.5863 2.00166L12.5153 0.0450202C12.5153 0.0450202 5.4392 2.36246 1.91483 9.3971C-1.8664 16.9444 1.11936 23.7064 1.11936 23.7064C1.91483 26.7656 5.58898 30 9.70662 30Z" fill="url(#paint1_linear_352_643)"/>
<defs>
<linearGradient id="paint0_linear_352_643" x1="-3.63636" y1="29.9997" x2="41.2048" y2="29.7779" gradientUnits="userSpaceOnUse">
<stop stop-color="#E636C3"/>
<stop offset="0.9999" stop-color="#8E1BE8"/>
<stop offset="1" stop-color="#8E1BE8"/>
</linearGradient>
<linearGradient id="paint1_linear_352_643" x1="-3.63636" y1="29.9997" x2="41.2048" y2="29.7779" gradientUnits="userSpaceOnUse">
<stop stop-color="#E636C3"/>
<stop offset="0.9999" stop-color="#8E1BE8"/>
<stop offset="1" stop-color="#8E1BE8"/>
</linearGradient>
</defs>
</svg>
