<svg width="24" height="24" viewBox="0 0 24 24" fill="none" xmlns="http://www.w3.org/2000/svg">
<path d="M19 11.9996C18.447 11.9996 18 12.4476 18 12.9997V20.9999C18 21.5509 17.552 21.9999 17 21.9999H3C2.448 21.9999 2 21.5509 2 20.9999V6.99947C2 6.44845 2.448 5.99944 3 5.99944H11C11.553 5.99944 12 5.55142 12 4.99941C12 4.44739 11.553 3.99938 11 3.99938H3C1.346 3.99938 0 5.34542 0 6.99947V20.9999C0 22.654 1.346 24 3 24H17C18.654 24 20 22.654 20 20.9999V12.9997C20 12.4466 19.553 11.9996 19 11.9996Z" fill="white"/>
<path d="M9.376 11.0886C9.306 11.1586 9.259 11.2476 9.239 11.3436L8.532 14.8797C8.499 15.0437 8.551 15.2127 8.669 15.3317C8.764 15.4267 8.892 15.4777 9.023 15.4777C9.055 15.4777 9.088 15.4747 9.121 15.4677L12.656 14.7607C12.754 14.7407 12.843 14.6937 12.912 14.6237L20.824 6.71146L17.289 3.17635L9.376 11.0886Z" fill="white"/>
<path d="M23.268 0.731273C22.293 -0.243758 20.707 -0.243758 19.733 0.731273L18.349 2.11532L21.884 5.65043L23.268 4.26638C23.74 3.79537 24 3.16735 24 2.49933C24 1.83131 23.74 1.20329 23.268 0.731273Z" fill="white"/>
</svg>
