<svg width="10" height="27" viewBox="0 0 10 27" fill="none" xmlns="http://www.w3.org/2000/svg">
<g id="arrow">
<path id="Vector" d="M9.70711 10.7071C10.0976 10.3166 10.0976 9.68342 9.70711 9.29289C9.31658 8.90237 8.68342 8.90237 8.29289 9.29289L5 12.5858L1.70711 9.29289C1.31658 8.90237 0.683418 8.90237 0.292894 9.29289C-0.0976312 9.68342 -0.0976312 10.3166 0.292894 10.7071L3.58579 14L0.292893 17.2929C-0.0976309 17.6834 -0.0976309 18.3166 0.292893 18.7071C0.683418 19.0976 1.31658 19.0976 1.70711 18.7071L5 15.4142L8.29289 18.7071C8.68342 19.0976 9.31658 19.0976 9.70711 18.7071C10.0976 18.3166 10.0976 17.6834 9.70711 17.2929L6.41421 14L9.70711 10.7071Z" fill="white" fill-opacity="0.6"/>
</g>
</svg>
