<svg width="24.000000" height="24.000000" viewBox="0 0 24 24" fill="none" xmlns="http://www.w3.org/2000/svg" xmlns:xlink="http://www.w3.org/1999/xlink">
    <defs>
        <clipPath id="clip5_1570">
            <rect id="Variant=Settings" width="24.000000" height="24.000000" fill="white" fill-opacity="0"/>
        </clipPath>
    </defs>
    <g clip-path="url(#clip5_1570)">
        <path id="path (Border)" d="M15.66 12.8C15.72 12.54 15.75 12.27 15.75 12C15.75 11.49 15.65 11 15.45 10.54C15.26 10.09 14.99 9.69 14.65 9.34C14.47 9.16 14.27 9 14.06 8.86C13.87 8.74 13.67 8.63 13.46 8.54C13.24 8.45 13.03 8.38 12.8 8.33C12.54 8.27 12.27 8.25 12 8.25C11.49 8.25 11 8.34 10.54 8.54C10.32 8.63 10.12 8.74 9.93 8.86C9.72 9 9.52 9.16 9.34 9.34C9.16 9.52 9 9.72 8.86 9.93C8.74 10.12 8.63 10.32 8.54 10.54C8.45 10.75 8.38 10.96 8.33 11.19C8.27 11.45 8.25 11.72 8.25 12C8.25 12.5 8.34 12.99 8.54 13.46C8.63 13.67 8.74 13.87 8.86 14.06C9 14.27 9.16 14.47 9.34 14.65C9.52 14.83 9.72 14.99 9.93 15.13C10.12 15.25 10.32 15.36 10.54 15.45C10.75 15.54 10.96 15.61 11.19 15.66C11.45 15.72 11.72 15.75 12 15.75C12.5 15.75 12.99 15.65 13.46 15.45C13.9 15.26 14.3 14.99 14.65 14.65C14.83 14.47 14.99 14.27 15.13 14.06C15.25 13.87 15.36 13.67 15.45 13.46C15.54 13.24 15.61 13.03 15.66 12.8ZM14.08 11.13C14.19 11.4 14.25 11.68 14.25 12C14.25 12.62 14.03 13.15 13.59 13.59C13.37 13.81 13.12 13.97 12.86 14.08C12.59 14.19 12.31 14.25 12 14.25C11.37 14.25 10.84 14.03 10.4 13.59C10.18 13.37 10.02 13.12 9.91 12.86C9.8 12.59 9.75 12.31 9.75 12C9.75 11.37 9.96 10.84 10.4 10.4C10.62 10.18 10.87 10.02 11.13 9.91C11.4 9.8 11.68 9.75 12 9.75C12.62 9.75 13.15 9.96 13.59 10.4C13.81 10.62 13.97 10.87 14.08 11.13Z" fill="#FFFFFF" fill-opacity="1.000000" fill-rule="evenodd"/>
        <path id="path (Border)" d="M1.3 10.58C1.26 10.76 1.25 10.93 1.25 11.12L1.25 12.87C1.25 13.23 1.31 13.58 1.45 13.9C1.59 14.22 1.78 14.5 2.02 14.74C2.26 14.99 2.54 15.18 2.86 15.31C3.19 15.46 3.54 15.53 3.9 15.53C4.23 15.53 4.51 15.58 4.73 15.68C4.89 15.76 5.01 15.86 5.08 15.99C5.16 16.11 5.19 16.27 5.17 16.45C5.15 16.69 5.05 16.96 4.89 17.25C4.71 17.56 4.6 17.89 4.55 18.25C4.51 18.59 4.54 18.92 4.62 19.26C4.71 19.59 4.86 19.9 5.07 20.17C5.29 20.46 5.55 20.69 5.86 20.87L7.58 21.85C7.86 22.02 8.15 22.12 8.45 22.17C8.76 22.21 9.09 22.19 9.42 22.1C9.73 22.02 10 21.89 10.24 21.72C10.5 21.53 10.72 21.28 10.89 20.98L11 20.79C11.17 20.5 11.36 20.29 11.56 20.15C11.71 20.04 11.86 19.99 12 19.99C12.15 19.99 12.3 20.04 12.45 20.15C12.65 20.29 12.83 20.5 13 20.79L13.11 20.99C13.45 21.56 13.94 21.93 14.58 22.1C15.23 22.28 15.84 22.19 16.41 21.86L18.14 20.87C18.45 20.69 18.71 20.46 18.93 20.17C19.14 19.9 19.29 19.6 19.38 19.26C19.42 19.09 19.45 18.92 19.46 18.75C19.47 18.58 19.47 18.42 19.45 18.25C19.4 17.9 19.29 17.56 19.11 17.25C18.95 16.96 18.85 16.69 18.83 16.45C18.81 16.27 18.84 16.11 18.91 15.99C18.99 15.86 19.11 15.76 19.27 15.68C19.5 15.58 19.77 15.53 20.11 15.53C20.46 15.53 20.81 15.46 21.14 15.31C21.46 15.18 21.74 14.99 21.98 14.74C22.22 14.5 22.41 14.22 22.55 13.9C22.69 13.58 22.75 13.23 22.75 12.87L22.75 11.12C22.75 10.76 22.68 10.41 22.54 10.08C22.41 9.76 22.22 9.48 21.97 9.24C21.84 9.11 21.71 9 21.56 8.9C21.42 8.81 21.28 8.74 21.13 8.67C20.8 8.53 20.46 8.47 20.11 8.47C19.77 8.47 19.5 8.41 19.27 8.31C19.11 8.23 18.99 8.13 18.91 8C18.84 7.88 18.81 7.72 18.83 7.54C18.85 7.3 18.95 7.03 19.11 6.74C19.2 6.58 19.28 6.42 19.33 6.25C19.39 6.09 19.43 5.92 19.45 5.75C19.49 5.4 19.46 5.07 19.38 4.73C19.29 4.4 19.14 4.09 18.93 3.82C18.71 3.53 18.45 3.3 18.14 3.12L16.42 2.14C16.14 1.97 15.85 1.87 15.55 1.82C15.24 1.78 14.91 1.8 14.58 1.89C14.27 1.97 14 2.1 13.76 2.27C13.5 2.46 13.28 2.71 13.11 3.01L13 3.2C12.83 3.49 12.64 3.7 12.44 3.84C12.29 3.95 12.14 4 12 4C11.85 4 11.7 3.95 11.55 3.84C11.35 3.7 11.17 3.49 11 3.2L10.89 3C10.72 2.71 10.51 2.48 10.26 2.29C10.02 2.11 9.74 1.97 9.42 1.89C9.07 1.8 8.74 1.78 8.42 1.83C8.13 1.87 7.86 1.98 7.59 2.13L5.86 3.12C5.7 3.22 5.55 3.32 5.41 3.45C5.29 3.56 5.17 3.68 5.07 3.82C4.97 3.95 4.89 4.08 4.82 4.22C4.74 4.38 4.67 4.55 4.62 4.73C4.58 4.91 4.55 5.09 4.54 5.27C4.53 5.43 4.53 5.59 4.55 5.75C4.6 6.1 4.71 6.43 4.89 6.74C5.05 7.03 5.15 7.3 5.17 7.54C5.19 7.72 5.16 7.88 5.08 8C5.01 8.13 4.89 8.23 4.73 8.31C4.51 8.41 4.23 8.47 3.9 8.47C3.71 8.47 3.52 8.48 3.34 8.52C3.18 8.56 3.02 8.61 2.86 8.68C2.54 8.81 2.26 9 2.02 9.25C1.89 9.38 1.78 9.52 1.68 9.66C1.59 9.8 1.52 9.94 1.45 10.09C1.39 10.25 1.33 10.41 1.3 10.58ZM2.75 12.87L2.75 11.12C2.75 10.8 2.86 10.53 3.08 10.3C3.2 10.19 3.33 10.1 3.47 10.04C3.6 9.99 3.74 9.97 3.9 9.97C4.45 9.97 4.94 9.87 5.36 9.67C5.68 9.52 5.95 9.32 6.16 9.07C6.24 8.97 6.32 8.87 6.38 8.75C6.45 8.64 6.5 8.52 6.55 8.4C6.66 8.09 6.7 7.76 6.66 7.41C6.62 6.94 6.46 6.47 6.18 5.99C6.11 5.86 6.06 5.73 6.04 5.6C6.02 5.44 6.03 5.29 6.07 5.12C6.16 4.81 6.33 4.58 6.61 4.43L8.34 3.44C8.45 3.37 8.57 3.33 8.69 3.31C8.8 3.3 8.92 3.31 9.03 3.34C9.15 3.37 9.26 3.42 9.35 3.49C9.45 3.56 9.53 3.65 9.6 3.77L9.71 3.95C9.98 4.43 10.31 4.8 10.69 5.07C10.98 5.28 11.29 5.41 11.6 5.47C11.73 5.49 11.86 5.5 12 5.5C12.46 5.5 12.89 5.36 13.3 5.07C13.68 4.81 14.01 4.43 14.29 3.95L14.4 3.76C14.46 3.66 14.54 3.57 14.63 3.5C14.72 3.43 14.84 3.37 14.97 3.34C15.1 3.3 15.22 3.3 15.34 3.31C15.45 3.33 15.55 3.37 15.65 3.43L17.39 4.43C17.52 4.5 17.63 4.59 17.72 4.7C17.82 4.82 17.88 4.96 17.93 5.12C18.01 5.43 17.97 5.72 17.82 5.99C17.54 6.47 17.38 6.94 17.34 7.41C17.29 7.9 17.38 8.35 17.62 8.75C17.85 9.15 18.19 9.46 18.64 9.67C19.06 9.87 19.55 9.97 20.11 9.97C20.42 9.97 20.69 10.08 20.92 10.3C21.14 10.53 21.25 10.8 21.25 11.12L21.25 12.87C21.25 13.19 21.14 13.46 20.92 13.69C20.69 13.91 20.42 14.03 20.11 14.03C19.55 14.03 19.06 14.12 18.64 14.32C18.19 14.53 17.85 14.84 17.62 15.24C17.38 15.64 17.29 16.09 17.34 16.58C17.38 17.05 17.54 17.52 17.82 18C17.97 18.27 18.01 18.56 17.93 18.87C17.84 19.18 17.67 19.41 17.39 19.56L15.66 20.55C15.44 20.68 15.21 20.72 14.97 20.65C14.72 20.59 14.53 20.44 14.4 20.22L14.29 20.04C14.02 19.56 13.69 19.19 13.31 18.92C13.02 18.71 12.71 18.58 12.4 18.52C12.27 18.5 12.14 18.49 12 18.49C11.54 18.49 11.11 18.63 10.7 18.92C10.32 19.18 9.99 19.56 9.71 20.04L9.6 20.23C9.47 20.45 9.28 20.59 9.03 20.65C8.79 20.72 8.56 20.69 8.35 20.56L6.61 19.56C6.48 19.49 6.37 19.4 6.28 19.29C6.18 19.17 6.12 19.03 6.07 18.87C5.99 18.56 6.03 18.27 6.18 18C6.46 17.52 6.62 17.05 6.66 16.58C6.71 16.09 6.62 15.64 6.38 15.24C6.32 15.12 6.24 15.02 6.16 14.92C5.95 14.67 5.68 14.47 5.36 14.32C4.94 14.12 4.45 14.03 3.9 14.03C3.74 14.03 3.6 14 3.47 13.95C3.33 13.89 3.2 13.8 3.08 13.69C2.86 13.46 2.75 13.19 2.75 12.87Z" fill="#FFFFFF" fill-opacity="1.000000" fill-rule="evenodd"/>
    </g>
</svg>
