<svg width="20" height="20" viewBox="0 0 20 20" fill="none" xmlns="http://www.w3.org/2000/svg">
<g clip-path="url(#clip0_1305_6828)">
<path d="M20 10C20 6.30866 20 4.45681 18.7037 3.14816C17.5926 2.03705 15.9753 1.87656 13.5185 1.85187V0.728412C13.5185 0.321004 13.1852 -0.0123291 12.7778 -0.0123291C12.3704 -0.0123291 12.037 0.321004 12.037 0.728412V19.2469C12.037 19.6543 12.3704 19.9877 12.7778 19.9877C13.1852 19.9877 13.5185 19.6543 13.5185 19.2469V18.1235C15.963 18.0988 17.5803 17.9506 18.6914 16.8272C20 15.5309 20 13.6667 20 9.97533V10ZM17.6543 15.8025C16.963 16.4938 15.7654 16.642 13.5185 16.6667V3.3457C15.7531 3.37039 16.9506 3.50619 17.6543 4.20989C18.5185 5.07409 18.5185 6.72841 18.5185 10.0124C18.5185 13.2963 18.5185 14.9383 17.6543 15.8148V15.8025Z" fill="white"/>
<path d="M10.7407 2.59261C10.7407 2.1852 10.4074 1.85187 10 1.85187H8.14815C4.45679 1.85187 2.60494 1.85187 1.2963 3.14816C0 4.44446 0 6.30866 0 10C0 13.6914 0 15.5432 1.2963 16.8395C2.59259 18.1358 4.45679 18.1358 8.14815 18.1358H10C10.4074 18.1358 10.7407 17.8025 10.7407 17.3951C10.7407 16.9877 10.4074 16.6543 10 16.6543H8.14815C4.8642 16.6543 3.22222 16.6543 2.34568 15.7901C1.48148 14.9259 1.48148 13.2716 1.48148 9.98767C1.48148 6.70372 1.48148 5.06174 2.34568 4.1852C3.20988 3.321 4.8642 3.321 8.14815 3.321H10C10.4074 3.321 10.7407 2.98767 10.7407 2.58026V2.59261Z" fill="white"/>
<path d="M6.58024 14.5926C6.69135 14.7037 6.81481 14.7531 6.9753 14.7531C7.1358 14.7531 7.25925 14.7037 7.37037 14.5926C7.48148 14.4815 7.53086 14.358 7.53086 14.1975V7.49382H9.81481C9.96296 7.49382 10.0864 7.44444 10.1852 7.34568C10.2839 7.24691 10.3333 7.12345 10.3333 6.97531C10.3333 6.82716 10.2839 6.7037 10.1852 6.60494C10.0864 6.50617 9.96296 6.45679 9.81481 6.45679H4.1358C3.98765 6.45679 3.86419 6.50617 3.76543 6.60494C3.66666 6.7037 3.61728 6.82716 3.61728 6.97531C3.61728 7.12345 3.66666 7.24691 3.76543 7.34568C3.86419 7.44444 3.98765 7.49382 4.1358 7.49382H6.41975V14.1975C6.41975 14.358 6.46913 14.4815 6.58024 14.5926Z" fill="white"/>
</g>
<defs>
<clipPath id="clip0_1305_6828">
<rect width="20" height="20" fill="white"/>
</clipPath>
</defs>
</svg>
