<svg width="20" height="20" viewBox="0 0 20 20" fill="none" xmlns="http://www.w3.org/2000/svg">
<g clip-path="url(#clip0_1305_6848)">
<path d="M10.7407 2.59261C10.7407 2.1852 10.4074 1.85187 10 1.85187H8.14815C4.45679 1.85187 2.60494 1.85187 1.30864 3.14816C0 4.44446 0 6.30866 0 10C0 13.6914 0 15.5432 1.2963 16.8395C2.59259 18.1358 4.45679 18.1358 8.14815 18.1358H10C10.4074 18.1358 10.7407 17.8025 10.7407 17.3951C10.7407 16.9877 10.4074 16.6543 10 16.6543H8.14815C4.8642 16.6543 3.22222 16.6543 2.34568 15.7901C1.48148 14.9259 1.48148 13.2716 1.48148 9.98767C1.48148 6.70372 1.48148 5.06174 2.34568 4.1852C3.20988 3.321 4.8642 3.321 8.14815 3.321H10C10.4074 3.321 10.7407 2.98767 10.7407 2.58026V2.59261Z" fill="white"/>
<path d="M20 10C20 6.30864 20 4.45679 18.7037 3.16049C17.5926 2.04938 15.9753 1.88889 13.5185 1.8642V0.740741C13.5185 0.333333 13.1852 0 12.7778 0C12.3704 0 12.037 0.333333 12.037 0.740741V19.2593C12.037 19.6667 12.3704 20 12.7778 20C13.1852 20 13.5185 19.6667 13.5185 19.2593V18.1358C15.963 18.1111 17.5802 17.9506 18.7037 16.8395C20 15.5432 20 13.6914 20 10ZM17.6543 15.8025C16.963 16.4938 15.7654 16.642 13.5185 16.6667V3.33333C15.7531 3.35802 16.9506 3.49383 17.6543 4.19753C18.5185 5.06173 18.5185 6.71605 18.5185 10C18.5185 13.284 18.5185 14.9259 17.6543 15.8025Z" fill="white"/>
<path d="M7.64197 9.99998L4.53086 13.6296C4.4321 13.7284 4.38271 13.8642 4.38271 14.0247C4.38271 14.1852 4.4321 14.3086 4.54321 14.4197C4.65432 14.5308 4.77778 14.5802 4.93827 14.5802H8.98765C9.14815 14.5802 9.28395 14.5308 9.39506 14.4197C9.50617 14.3086 9.55555 14.1728 9.55555 14.0247C9.55555 13.8765 9.50617 13.7531 9.39506 13.642C9.28395 13.5308 9.14815 13.4691 8.98765 13.4691H5.92592L8.4321 10.6173C8.58024 10.4444 8.74074 10.2469 8.88889 10.0247C9.03703 9.80245 9.16049 9.58023 9.25926 9.33332C9.35802 9.09875 9.4074 8.85184 9.4074 8.61727C9.4074 8.0864 9.30864 7.62961 9.11111 7.23455C8.91358 6.85184 8.62963 6.54319 8.25926 6.33332C7.88889 6.12344 7.46913 6.01233 6.96296 6.01233C6.45679 6.01233 6.03703 6.12344 5.64197 6.34566C5.24691 6.56788 4.93827 6.87653 4.71605 7.27159C4.49382 7.66665 4.38271 8.11109 4.38271 8.60492C4.38271 8.75307 4.4321 8.87653 4.54321 8.98764C4.65432 9.09875 4.79012 9.14813 4.93827 9.14813C5.08642 9.14813 5.23457 9.09875 5.33333 8.98764C5.44444 8.87653 5.49382 8.75307 5.49382 8.60492C5.49382 8.32097 5.55555 8.06171 5.69136 7.82714C5.81481 7.59258 6 7.39505 6.22222 7.25924C6.44444 7.11109 6.69136 7.04937 6.97531 7.04937C7.25926 7.04937 7.50617 7.11109 7.7037 7.2469C7.91358 7.37035 8.06173 7.55554 8.17284 7.79011C8.28395 8.02467 8.33333 8.29628 8.33333 8.61727C8.33333 8.82714 8.2716 9.03702 8.14815 9.25924C8.02469 9.48147 7.86419 9.72838 7.64197 9.98764V9.99998Z" fill="white"/>
</g>
<defs>
<clipPath id="clip0_1305_6848">
<rect width="20" height="20" fill="white"/>
</clipPath>
</defs>
</svg>
