<svg width="27" height="27" viewBox="0 0 27 27" fill="none" xmlns="http://www.w3.org/2000/svg">
<g id="icon_download">
<g id="Group 1">
<path id="Vector" d="M6.5 19V17H4.5V19C4.5 20.6569 5.84315 22 7.5 22H19.5C21.1569 22 22.5 20.6569 22.5 19V17H20.5V19C20.5 19.5523 20.0523 20 19.5 20H7.5C6.94772 20 6.5 19.5523 6.5 19Z" fill="white"/>
<path id="Vector 6 (Stroke)" fill-rule="evenodd" clip-rule="evenodd" d="M12.7929 16.7071C13.1834 17.0976 13.8166 17.0976 14.2071 16.7071L16.7071 14.2071C17.0976 13.8166 17.0976 13.1834 16.7071 12.7929C16.3166 12.4024 15.6834 12.4024 15.2929 12.7929L14.5 13.5858V4C14.5 3.44771 14.0523 3 13.5 3C12.9477 3 12.5 3.44771 12.5 4V13.5858L11.7071 12.7929C11.3166 12.4024 10.6834 12.4024 10.2929 12.7929C9.90237 13.1834 9.90237 13.8166 10.2929 14.2071L12.7929 16.7071Z" fill="white"/>
</g>
</g>
</svg>
