<svg width="35" height="35" viewBox="0 0 35 35" fill="none" xmlns="http://www.w3.org/2000/svg">
<g id="icon_trash">
<path id="Vector" fill-rule="evenodd" clip-rule="evenodd" d="M12 12H23C24.1046 12 25 12.8954 25 14V23C25 25.2091 23.2091 27 21 27H14C11.7909 27 10 25.2091 10 23V14C10 12.8954 10.8954 12 12 12ZM15 23.5V15.5C15 14.6716 14.3284 14 13.5 14C12.6716 14 12 14.6716 12 15.5V23.5C12 24.3284 12.6716 25 13.5 25C14.3284 25 15 24.3284 15 23.5ZM19 23.5V15.5C19 14.6716 18.3284 14 17.5 14C16.6716 14 16 14.6716 16 15.5V23.5C16 24.3284 16.6716 25 17.5 25C18.3284 25 19 24.3284 19 23.5ZM23 23.5V15.5C23 14.6716 22.3284 14 21.5 14C20.6716 14 20 14.6716 20 15.5V23.5C20 24.3284 20.6716 25 21.5 25C22.3284 25 23 24.3284 23 23.5Z" fill="#FF3333"/>
<rect id="Rectangle 2" x="10" y="8" width="15" height="3" rx="1.5" fill="#FF3333"/>
<path id="Rectangle 3" d="M15 8C15 6.89543 15.8954 6 17 6H18C19.1046 6 20 6.89543 20 8H15Z" fill="#FF3333"/>
</g>
</svg>
