<svg width="27" height="27" viewBox="0 0 27 27" fill="none" xmlns="http://www.w3.org/2000/svg">
<g id="icon_trash">
<path id="Vector" fill-rule="evenodd" clip-rule="evenodd" d="M8 8H19C20.1046 8 21 8.89543 21 10V19C21 21.2091 19.2091 23 17 23H10C7.79086 23 6 21.2091 6 19V10C6 8.89543 6.89543 8 8 8ZM11 19.5V11.5C11 10.6716 10.3284 10 9.5 10C8.67157 10 8 10.6716 8 11.5V19.5C8 20.3284 8.67157 21 9.5 21C10.3284 21 11 20.3284 11 19.5ZM15 19.5V11.5C15 10.6716 14.3284 10 13.5 10C12.6716 10 12 10.6716 12 11.5V19.5C12 20.3284 12.6716 21 13.5 21C14.3284 21 15 20.3284 15 19.5ZM19 19.5V11.5C19 10.6716 18.3284 10 17.5 10C16.6716 10 16 10.6716 16 11.5V19.5C16 20.3284 16.6716 21 17.5 21C18.3284 21 19 20.3284 19 19.5Z" fill="#FF3333"/>
<rect id="Rectangle 2" x="6" y="4" width="15" height="3" rx="1.5" fill="#FF3333"/>
<path id="Rectangle 3" d="M11 4C11 2.89543 11.8954 2 13 2H14C15.1046 2 16 2.89543 16 4H11Z" fill="#FF3333"/>
</g>
</svg>
