<svg width="22" height="23" viewBox="0 0 22 23" fill="none" xmlns="http://www.w3.org/2000/svg">
<g id="icon">
<path id="Vector" d="M20.8303 4.5H1.17536C0.525818 4.5 0 5.0332 0 5.68923V17.3108C0 17.9668 0.525818 18.5 1.17255 18.5H20.8274C21.4742 18.5 22 17.9668 22 17.3108V5.68923C22.0028 5.0332 21.477 4.5 20.8303 4.5ZM8.18532 14.2009H6.49821V11.0184C6.49821 10.957 6.44759 10.9068 6.38573 10.9068C6.3295 10.9068 6.28451 10.9459 6.27607 10.9989L5.28911 14.2009H4.0772L3.09305 10.9961C3.08461 10.9459 3.03962 10.9068 2.98338 10.9068C2.92152 10.9068 2.87091 10.957 2.87091 11.0184V14.2009H1.18379V8.72931H3.06493C3.37423 8.72931 3.70041 8.96939 3.79039 9.26251L4.61145 11.9285C4.65363 12.0625 4.7183 12.0597 4.76048 11.9285L5.58154 9.26251C5.67152 8.9666 5.9977 8.72931 6.307 8.72931H8.18532V14.2009ZM14.4558 14.2009H12.7687V10.9487C12.7658 10.8956 12.7237 10.8509 12.6674 10.8509C12.6281 10.8509 12.5971 10.8705 12.5803 10.904V10.9068C12.5803 10.9096 12.5774 10.9124 12.5774 10.9152L11.1996 13.8492C11.1125 14.039 10.8763 14.1925 10.6626 14.2037H8.97546V8.7321H10.6626V11.9146C10.6626 11.976 10.7132 12.0262 10.775 12.0262C10.8144 12.0262 10.8482 12.0067 10.8678 11.9788C10.8735 11.9676 10.8791 11.9592 10.8819 11.9453L12.2232 9.08664C12.3131 8.89402 12.555 8.74048 12.7687 8.7321H14.4558V14.2009ZM18.8985 12.4422H16.9864V14.2288H15.2993V11.2139H20.6447C20.386 11.9257 19.7027 12.4366 18.8985 12.4422ZM20.715 10.9347C20.715 10.9347 17.785 10.9347 17.7822 10.9347C16.3482 10.9347 15.1728 9.96042 15.0744 8.72931H18.8929C19.9192 8.73769 20.7487 9.56401 20.7487 10.5857C20.7487 10.7058 20.7375 10.823 20.715 10.9347Z" fill="#271C46"/>
</g>
</svg>
