<?xml version="1.0" encoding="utf-8"?>
<!-- Generator: Adobe Illustrator 24.1.1, SVG Export Plug-In . SVG Version: 6.00 Build 0)  -->
<svg version="1.1" id="Layer_1" xmlns="http://www.w3.org/2000/svg" xmlns:xlink="http://www.w3.org/1999/xlink" x="0px" y="0px"
	 viewBox="0 0 512 512" style="enable-background:new 0 0 512 512;" xml:space="preserve">
<style type="text/css">
	.st0{fill:white;}
</style>
<g>
	<path class="st0" d="M69.4,33.3c-10-10-26.3-10-36.3,0c-10,10-10,26.3,0,36.3L177,213.6c-23.4,43.5-7.1,97.8,36.4,121.2
		c26.5,14.2,58.3,14.2,84.7,0l143.9,143.9c9.9,10,26.1,10.1,36.2,0.1l0.1-0.1c10-9.9,10.1-26.1,0.1-36.1l-0.1-0.1L69.4,33.3z
		 M255.7,294.3c-21.2,0-38.3-17.2-38.3-38.3v-1.8l39.9,39.9L255.7,294.3z"/>
	<path class="st0" d="M261.4,383.8C151.4,386.4,79.3,292,56.8,256c16-25.5,35.3-48.9,57.3-69.5l-37.3-36
		c-28.9,27.2-53.6,58.5-73.4,92.8c-4.6,7.9-4.6,17.7,0,25.6c16.1,27.9,102.3,166.2,252.8,166.2h6.4c28.3-0.8,56.3-6.6,82.6-17.1
		l-40.4-40.4C290.6,381.1,276,383.3,261.4,383.8z"/>
	<path class="st0" d="M508,243.2C491.7,214.8,401.4,72.4,248.8,77c-28.3,0.8-56.3,6.6-82.6,17.1l40.4,40.4
		c14.2-3.7,28.8-5.9,43.5-6.4c109.7-2.8,181.8,91.8,204.5,127.8c-16.4,25.6-36.1,49-58.5,69.5l38.6,36
		c29.2-27.1,54.3-58.4,74.4-92.8C513.3,260.7,512.9,250.9,508,243.2z"/>
</g>
</svg>
