<?xml version="1.0" encoding="utf-8"?>
<!-- Generator: Adobe Illustrator 24.1.1, SVG Export Plug-In . SVG Version: 6.00 Build 0)  -->
<svg version="1.1" id="Layer_1" xmlns="http://www.w3.org/2000/svg" xmlns:xlink="http://www.w3.org/1999/xlink" x="0px" y="0px"
	 viewBox="0 0 512 512" style="enable-background:new 0 0 512 512;" xml:space="preserve">
<style type="text/css">
	.st0{fill:white;}
</style>
<g>
	<path class="st0" d="M508.6,243.3C492.2,214.9,402.1,72.3,249.1,76.9C107.6,80.5,25.7,204.9,3.4,243.3c-4.6,7.9-4.6,17.7,0,25.6
		c16.1,27.9,102.4,166.3,253.1,166.3h6.4c141.5-3.6,223.6-127.9,245.7-166.3C513.1,260.9,513.1,251.2,508.6,243.3z M261.6,384
		c-110.3,2.6-182.2-91.9-204.7-127.9c25.6-41.2,92.4-125.4,194.7-127.9c109.8-2.8,181.9,91.9,204.7,127.9
		C430,297.3,364,381.5,261.6,384z"/>
	<path class="st0" d="M256,166.5c-49.5,0-89.6,40.1-89.6,89.6c0,49.5,40.1,89.6,89.6,89.6s89.6-40.1,89.6-89.6
		C345.6,206.6,305.5,166.5,256,166.5z M256,294.4c-21.2,0-38.4-17.2-38.4-38.4c0-21.2,17.2-38.4,38.4-38.4s38.4,17.2,38.4,38.4
		C294.4,277.3,277.2,294.4,256,294.4z"/>
</g>
</svg>
