<svg width="24" height="33" viewBox="0 0 24 33" fill="none" xmlns="http://www.w3.org/2000/svg">
<g id="eye">
<path id="Vector" d="M18.1131 11.7575C16.227 10.6077 14.1131 10 12 10C9.88688 10 7.77299 10.6078 5.88688 11.7576C4.01309 12.8998 2.3606 14.5799 1.10798 16.6162C1.03746 16.7309 1 16.864 1 17C1 17.136 1.03746 17.2692 1.10798 17.3838C2.3606 19.4201 4.01309 21.1003 5.88688 22.2425C7.77299 23.3923 9.88688 24 12 24C14.1131 24 16.227 23.3922 18.1131 22.2424C19.9869 21.1002 21.6394 19.4201 22.892 17.3838C22.9625 17.2691 23 17.136 23 17C23 16.864 22.9625 16.7308 22.892 16.6162C21.6394 14.5799 19.9869 12.8998 18.1131 11.7575ZM12 22.5732C8.33227 22.5732 4.81493 20.4986 2.51129 17C4.81493 13.5014 8.33227 11.4268 12 11.4268C15.6677 11.4268 19.1851 13.5014 21.4887 17C19.1851 20.4986 15.6677 22.5732 12 22.5732ZM12 12.9427C11.2266 12.9427 10.4707 13.1806 9.82763 13.6265C9.18461 14.0723 8.68344 14.706 8.38749 15.4473C8.09153 16.1887 8.0141 17.0045 8.16497 17.7915C8.31585 18.5786 8.68826 19.3015 9.2351 19.869C9.78195 20.4364 10.4787 20.8228 11.2372 20.9794C11.9957 21.1359 12.7819 21.0556 13.4964 20.7485C14.2108 20.4414 14.8215 19.9214 15.2512 19.2541C15.6808 18.5869 15.9102 17.8025 15.9102 17C15.909 15.9243 15.4967 14.893 14.7636 14.1323C14.0306 13.3717 13.0367 12.9439 12 12.9427ZM12 19.6306C11.4986 19.6306 11.0084 19.4763 10.5915 19.1872C10.1746 18.8982 9.8497 18.4874 9.65782 18.0067C9.46594 17.526 9.41574 16.9971 9.51356 16.4868C9.61137 15.9765 9.85283 15.5078 10.2074 15.1399C10.5619 14.772 11.0136 14.5215 11.5054 14.42C11.9972 14.3185 12.5069 14.3706 12.9702 14.5697C13.4334 14.7688 13.8293 15.1059 14.1079 15.5385C14.3865 15.9711 14.5352 16.4797 14.5352 17C14.5344 17.6974 14.2671 18.3661 13.7918 18.8592C13.3165 19.3524 12.6721 19.6298 12 19.6306Z" fill="white" fill-opacity="0.6"/>
</g>
</svg>
