<svg width="24" height="24" viewBox="0 0 24 24" fill="none" xmlns="http://www.w3.org/2000/svg">
<path fill-rule="evenodd" clip-rule="evenodd" d="M7.7657 3.43434C8.07813 3.74675 8.07813 4.25328 7.7657 4.5657L5.93139 6.40002H14.4C18.3765 6.40002 21.6 9.62357 21.6 13.6C21.6 17.5765 18.3765 20.8 14.4 20.8H8.00002C7.55819 20.8 7.20002 20.4418 7.20002 20C7.20002 19.5583 7.55819 19.2 8.00002 19.2H14.4C17.4928 19.2 20 16.6928 20 13.6C20 10.5072 17.4928 8.00002 14.4 8.00002H5.93139L7.7657 9.83434C8.07813 10.1468 8.07813 10.6533 7.7657 10.9657C7.45328 11.2781 6.94675 11.2781 6.63434 10.9657L3.43434 7.7657C3.1219 7.45328 3.1219 6.94675 3.43434 6.63434L6.63434 3.43434C6.94675 3.1219 7.45328 3.1219 7.7657 3.43434Z" fill="white"/>
</svg>
