<svg width="22" height="20" viewBox="0 0 22 20" fill="none" xmlns="http://www.w3.org/2000/svg">
<path d="M11 12.1661C11.6087 12.1661 12.1021 11.6709 12.1021 11.0601V6.63658C12.1021 6.02527 11.6086 5.53059 11 5.53059C10.3914 5.53059 9.89792 6.02527 9.89792 6.63658V11.0601C9.89787 11.6709 10.3914 12.1661 11 12.1661Z" fill="#FFC736"/>
<path d="M3.31149 20H18.6885C19.8837 20 20.9546 19.3795 21.552 18.3404C22.1493 17.3019 22.1493 16.0614 21.552 15.0229L13.863 1.65901C13.2656 0.620542 12.1952 0 11 0C9.8048 0 8.73441 0.620499 8.1371 1.65901L0.448014 15.0224C-0.149338 16.0614 -0.149338 17.302 0.448014 18.3404C1.04537 19.3795 2.11628 20 3.31149 20ZM2.35737 16.129L10.0453 2.76504C10.3327 2.26605 10.8084 2.21202 11 2.21202C11.1916 2.21202 11.6673 2.26601 11.9547 2.76504L19.6427 16.1295C19.93 16.628 19.7384 17.0686 19.6427 17.235C19.5474 17.4013 19.2627 17.788 18.6885 17.788H3.31149C2.7373 17.788 2.45259 17.4013 2.35737 17.235C2.2616 17.0686 2.07 16.628 2.35737 16.129Z" fill="#FFC736"/>
<path d="M11 16.636C11.6087 16.636 12.1021 16.1409 12.1021 15.53C12.1021 14.9192 11.6087 14.424 11 14.424C10.3913 14.424 9.89792 14.9192 9.89792 15.53C9.89792 16.1409 10.3913 16.636 11 16.636Z" fill="#FFC736"/>
</svg>
