<svg width="128" height="19" viewBox="0 0 128 19" fill="none" xmlns="http://www.w3.org/2000/svg">
<path d="M128 14.3045C128 15.2968 127.714 16.1439 127.143 16.8459C126.572 17.5478 125.731 18.0843 124.62 18.4554C123.509 18.8185 122.16 19 120.574 19C118.939 19 117.507 18.7943 116.277 18.3828C115.047 17.9633 114.091 17.3783 113.409 16.628C112.726 15.8777 112.362 15.0023 112.314 14.0019H116.348C116.499 14.6796 116.955 15.2121 117.717 15.5994C118.479 15.9866 119.471 16.1803 120.693 16.1803C122.97 16.1803 124.108 15.6679 124.108 14.6433C124.108 14.3851 124.017 14.1754 123.834 14.014C123.66 13.8527 123.37 13.7236 122.966 13.6268C122.561 13.5219 122.002 13.4372 121.288 13.3726L118.764 13.1548C116.59 12.9853 115.035 12.5416 114.099 11.8236C113.163 11.0975 112.695 10.1495 112.695 8.97962C112.695 8.01147 112.992 7.19257 113.587 6.52293C114.19 5.85329 115.035 5.34904 116.122 5.01019C117.209 4.67134 118.479 4.50191 119.931 4.50191C121.375 4.50191 122.672 4.70361 123.823 5.10701C124.973 5.50234 125.889 6.05902 126.572 6.77707C127.262 7.49512 127.651 8.31805 127.738 9.24586H123.704C123.585 8.6811 123.2 8.20913 122.549 7.82994C121.899 7.44268 120.958 7.24904 119.729 7.24904C118.737 7.24904 117.971 7.3741 117.432 7.6242C116.892 7.86624 116.622 8.21316 116.622 8.66497C116.622 9.00382 116.793 9.2741 117.134 9.47579C117.483 9.66943 118.09 9.80255 118.955 9.87516L122.24 10.1535C123.668 10.2745 124.802 10.5125 125.644 10.8675C126.492 11.2225 127.095 11.6864 127.453 12.2592C127.818 12.824 128 13.5057 128 14.3045Z" fill="white"/>
<path d="M106.845 10.4682L111.951 18.6369H107.392L104.31 13.4573L99.9301 18.6369H96.312V0H100.299V13.5057L107.226 4.87707H111.57L106.845 10.4682Z" fill="white"/>
<path d="M85.3194 19C83.6532 19 82.1774 18.6975 80.8921 18.0924C79.6146 17.4873 78.6228 16.6401 77.9167 15.551C77.2105 14.4537 76.8575 13.1911 76.8575 11.7631C76.8575 10.327 77.2105 9.0603 77.9167 7.96306C78.6228 6.86582 79.6146 6.01465 80.8921 5.40955C82.1774 4.80446 83.6532 4.50191 85.3194 4.50191C86.9856 4.50191 88.4574 4.80446 89.7348 5.40955C91.0202 6.01465 92.0159 6.86582 92.7221 7.96306C93.4282 9.0603 93.7813 10.327 93.7813 11.7631C93.7813 13.1911 93.4282 14.4537 92.7221 15.551C92.0159 16.6401 91.0202 17.4873 89.7348 18.0924C88.4574 18.6975 86.9856 19 85.3194 19ZM85.3194 15.9382C86.2318 15.9382 87.0173 15.7688 87.6759 15.4299C88.3423 15.0911 88.8541 14.611 89.2112 13.9898C89.5682 13.3605 89.7467 12.6183 89.7467 11.7631C89.7467 10.9079 89.5682 10.1656 89.2112 9.53631C88.8541 8.90701 88.3423 8.42293 87.6759 8.08408C87.0094 7.74522 86.2239 7.5758 85.3194 7.5758C84.4069 7.5758 83.6175 7.74522 82.951 8.08408C82.2845 8.42293 81.7728 8.90701 81.4157 9.53631C81.0587 10.1656 80.8801 10.9079 80.8801 11.7631C80.8801 12.6183 81.0587 13.3605 81.4157 13.9898C81.7728 14.611 82.2845 15.0911 82.951 15.4299C83.6175 15.7688 84.4069 15.9382 85.3194 15.9382Z" fill="white"/>
<path d="M66.5551 19C64.8889 19 63.4131 18.6975 62.1278 18.0924C60.8503 17.4873 59.8585 16.6401 59.1524 15.551C58.4462 14.4537 58.0932 13.1911 58.0932 11.7631C58.0932 10.327 58.4462 9.0603 59.1524 7.96306C59.8585 6.86582 60.8503 6.01465 62.1278 5.40955C63.4131 4.80446 64.8889 4.50191 66.5551 4.50191C68.2213 4.50191 69.6931 4.80446 70.9705 5.40955C72.2559 6.01465 73.2516 6.86582 73.9578 7.96306C74.6639 9.0603 75.017 10.327 75.017 11.7631C75.017 13.1911 74.6639 14.4537 73.9578 15.551C73.2516 16.6401 72.2559 17.4873 70.9705 18.0924C69.6931 18.6975 68.2213 19 66.5551 19ZM66.5551 15.9382C67.4675 15.9382 68.253 15.7688 68.9116 15.4299C69.5781 15.0911 70.0898 14.611 70.4469 13.9898C70.8039 13.3605 70.9824 12.6183 70.9824 11.7631C70.9824 10.9079 70.8039 10.1656 70.4469 9.53631C70.0898 8.90701 69.5781 8.42293 68.9116 8.08408C68.2451 7.74522 67.4596 7.5758 66.5551 7.5758C65.6426 7.5758 64.8532 7.74522 64.1867 8.08408C63.5202 8.42293 63.0085 8.90701 62.6514 9.53631C62.2944 10.1656 62.1159 10.9079 62.1159 11.7631C62.1159 12.6183 62.2944 13.3605 62.6514 13.9898C63.0085 14.611 63.5202 15.0911 64.1867 15.4299C64.8532 15.7688 65.6426 15.9382 66.5551 15.9382Z" fill="white"/>
<path d="M52.2667 9.10064C53.5838 9.39108 54.5755 9.93164 55.242 10.7223C55.9085 11.5049 56.2417 12.465 56.2417 13.6025C56.2417 14.5949 56.0156 15.4703 55.5634 16.2287C55.1111 16.979 54.4407 17.5679 53.552 17.9955C52.6634 18.4231 51.5804 18.6369 50.3029 18.6369H37.7588L39.1513 9.31847L37.7588 0.484076H49.8507C50.9456 0.484076 51.8819 0.661571 52.6594 1.01656C53.437 1.37155 54.0281 1.87983 54.4327 2.5414C54.8453 3.20297 55.0516 3.9896 55.0516 4.90127C55.0516 5.78875 54.8255 6.60764 54.3732 7.35796C53.921 8.10021 53.2188 8.6811 52.2667 9.10064ZM50.9575 5.49427C50.9575 4.90531 50.7552 4.4293 50.3505 4.06624C49.9459 3.70318 49.3786 3.52166 48.6486 3.52166H42.1028L42.7812 7.84204H48.482C49.212 7.84204 49.807 7.63227 50.2672 7.21274C50.7274 6.79321 50.9575 6.22038 50.9575 5.49427ZM49.4579 15.5994C50.3069 15.5994 50.9654 15.3977 51.4336 14.9943C51.9096 14.5828 52.1477 14.0059 52.1477 13.2637C52.1477 12.4972 51.8739 11.8962 51.3265 11.4605C50.779 11.0168 49.9935 10.7949 48.97 10.7949H42.7931L42.079 15.5994H49.4579Z" fill="white"/>
<path d="M24.0584 18.6369V0.484076H28.093V18.6369H24.0584Z" fill="white"/>
<path d="M21.8987 18.6369H17.5903L15.9003 14.8127H5.99833L4.30832 18.6369H0L8.34291 0.484076H13.5557L21.8987 18.6369ZM10.9493 3.64267L7.48601 11.4726H14.4245L10.9493 3.64267Z" fill="white"/>
</svg>
