<svg width="30" height="30" viewBox="0 0 30 30" fill="none" xmlns="http://www.w3.org/2000/svg">
<g clip-path="url(#clip0_243_3000)">
<rect width="30" height="30" rx="15" fill="url(#paint0_linear_243_3000)"/>
<path d="M-4.88 23.374V21.372C-4.488 21.372 -4.166 21.3393 -3.914 21.274C-3.65267 21.2087 -3.438 21.0967 -3.27 20.938C-3.102 20.7887 -2.94333 20.5787 -2.794 20.308L-5.888 12.622H-3.62L-1.674 18.11L-0.148 12.622H1.98L0.0200001 18.964C-0.0826664 19.3373 -0.208666 19.7107 -0.358 20.084C-0.498 20.4573 -0.656666 20.8167 -0.834 21.162C-1.002 21.5073 -1.20267 21.82 -1.436 22.1C-1.66 22.38 -1.91667 22.6087 -2.206 22.786C-2.43933 22.9447 -2.67267 23.066 -2.906 23.15C-3.13933 23.234 -3.41 23.29 -3.718 23.318C-4.026 23.3553 -4.41333 23.374 -4.88 23.374ZM2.18038 22.072V18.25C2.40438 18.25 2.59104 18.194 2.74038 18.082C2.89904 17.9607 3.02504 17.802 3.11838 17.606C3.22104 17.41 3.30038 17.1907 3.35638 16.948C3.42171 16.696 3.47304 16.4393 3.51038 16.178C3.56638 15.758 3.59904 15.3287 3.60838 14.89C3.62704 14.442 3.63638 14.036 3.63638 13.672C3.63638 13.4947 3.63638 13.322 3.63638 13.154C3.63638 12.9767 3.63638 12.7993 3.63638 12.622H9.58638V18.25H10.5104V22.072H8.57838V20H4.12638V22.072H2.18038ZM4.86838 18.25H7.62638V14.372H5.38638C5.38638 14.68 5.38171 15.0113 5.37238 15.366C5.36304 15.7207 5.34438 16.0613 5.31638 16.388C5.29771 16.584 5.27438 16.7893 5.24638 17.004C5.21838 17.2187 5.17638 17.4333 5.12038 17.648C5.06438 17.8627 4.98038 18.0633 4.86838 18.25ZM13.731 20.098C13.4137 20.098 13.1057 20.056 12.807 19.972C12.5084 19.8787 12.2377 19.7387 11.995 19.552C11.7617 19.3653 11.575 19.132 11.435 18.852C11.295 18.572 11.225 18.2453 11.225 17.872C11.225 17.368 11.3277 16.9667 11.533 16.668C11.7384 16.36 12.0137 16.1267 12.359 15.968C12.7044 15.8093 13.101 15.702 13.549 15.646C14.0064 15.59 14.4777 15.562 14.963 15.562H16.027C16.027 15.2913 15.9757 15.0533 15.873 14.848C15.7797 14.6333 15.635 14.47 15.439 14.358C15.243 14.2367 14.991 14.176 14.683 14.176C14.487 14.176 14.2957 14.204 14.109 14.26C13.9317 14.3067 13.7824 14.3767 13.661 14.47C13.5397 14.5633 13.4604 14.6847 13.423 14.834H11.435C11.491 14.4233 11.6217 14.0733 11.827 13.784C12.0324 13.4853 12.289 13.2427 12.597 13.056C12.905 12.8693 13.241 12.734 13.605 12.65C13.9784 12.5567 14.361 12.51 14.753 12.51C15.4717 12.51 16.0597 12.6453 16.517 12.916C16.9837 13.1867 17.329 13.5833 17.553 14.106C17.7864 14.6287 17.903 15.268 17.903 16.024V20H16.139L16.111 19.132C15.8964 19.384 15.6584 19.5847 15.397 19.734C15.145 19.874 14.879 19.9673 14.599 20.014C14.319 20.07 14.0297 20.098 13.731 20.098ZM14.263 18.544C14.599 18.544 14.9024 18.4787 15.173 18.348C15.4437 18.208 15.6537 18.026 15.803 17.802C15.9617 17.5687 16.041 17.312 16.041 17.032V16.878H14.697C14.4917 16.878 14.2957 16.8873 14.109 16.906C13.9317 16.9247 13.7684 16.962 13.619 17.018C13.479 17.0647 13.367 17.144 13.283 17.256C13.2084 17.3587 13.171 17.4987 13.171 17.676C13.171 17.872 13.2177 18.0353 13.311 18.166C13.4137 18.2967 13.549 18.3947 13.717 18.46C13.885 18.516 14.067 18.544 14.263 18.544ZM19.4341 22.758V12.622H21.2681L21.3661 13.56C21.6647 13.168 22.0194 12.8973 22.4301 12.748C22.8407 12.5893 23.2747 12.51 23.7321 12.51C24.4321 12.51 25.0154 12.678 25.4821 13.014C25.9487 13.35 26.3034 13.8073 26.5461 14.386C26.7887 14.9553 26.9101 15.5993 26.9101 16.318C26.9101 17.0367 26.7887 17.6853 26.5461 18.264C26.3034 18.8333 25.9347 19.2813 25.4401 19.608C24.9454 19.9347 24.3201 20.098 23.5641 20.098C23.2187 20.098 22.9061 20.0607 22.6261 19.986C22.3554 19.9113 22.1174 19.8087 21.9121 19.678C21.7161 19.5473 21.5434 19.412 21.3941 19.272V22.758H19.4341ZM23.2421 18.334C23.6807 18.334 24.0261 18.236 24.2781 18.04C24.5301 17.844 24.7074 17.5967 24.8101 17.298C24.9127 16.99 24.9641 16.6727 24.9641 16.346C24.9641 15.9913 24.9081 15.6553 24.7961 15.338C24.6841 15.0207 24.4974 14.7687 24.2361 14.582C23.9841 14.386 23.6387 14.288 23.2001 14.288C22.8081 14.288 22.4767 14.386 22.2061 14.582C21.9354 14.7687 21.7301 15.016 21.5901 15.324C21.4501 15.632 21.3801 15.9633 21.3801 16.318C21.3801 16.6727 21.4454 17.004 21.5761 17.312C21.7161 17.62 21.9214 17.8673 22.1921 18.054C22.4721 18.2407 22.8221 18.334 23.2421 18.334ZM31.4897 20.098C30.715 20.098 30.057 19.944 29.5157 19.636C28.9744 19.328 28.559 18.894 28.2697 18.334C27.9804 17.7647 27.8357 17.102 27.8357 16.346C27.8357 15.5807 27.985 14.9133 28.2837 14.344C28.5824 13.7653 29.0024 13.3127 29.5437 12.986C30.0944 12.6593 30.743 12.496 31.4897 12.496C32.0404 12.496 32.5257 12.5893 32.9457 12.776C33.375 12.9627 33.7344 13.224 34.0237 13.56C34.3224 13.8867 34.5464 14.274 34.6957 14.722C34.845 15.1607 34.915 15.6413 34.9057 16.164C34.8964 16.2947 34.887 16.4207 34.8777 16.542C34.8777 16.6633 34.8637 16.7847 34.8357 16.906H29.7817C29.8097 17.186 29.889 17.4427 30.0197 17.676C30.1504 17.9093 30.3324 18.096 30.5657 18.236C30.8084 18.3667 31.107 18.432 31.4617 18.432C31.695 18.432 31.9097 18.4087 32.1057 18.362C32.3017 18.306 32.4697 18.222 32.6097 18.11C32.7497 17.998 32.8477 17.8673 32.9037 17.718H34.8357C34.7144 18.2687 34.4857 18.7213 34.1497 19.076C33.823 19.4307 33.4264 19.692 32.9597 19.86C32.493 20.0187 32.003 20.098 31.4897 20.098ZM29.8237 15.534H33.0297C33.0204 15.282 32.955 15.0487 32.8337 14.834C32.7217 14.61 32.549 14.4327 32.3157 14.302C32.0917 14.162 31.8024 14.092 31.4477 14.092C31.093 14.092 30.7944 14.162 30.5517 14.302C30.3184 14.442 30.141 14.624 30.0197 14.848C29.9077 15.0627 29.8424 15.2913 29.8237 15.534Z" fill="white" fill-opacity="0.6"/>
<path d="M15 10L16 7L15 7.00001L15 10Z" fill="white" stroke="white" stroke-width="2" stroke-linecap="round" stroke-linejoin="round"/>
</g>
<defs>
<linearGradient id="paint0_linear_243_3000" x1="0" y1="0" x2="30" y2="30" gradientUnits="userSpaceOnUse">
<stop stop-color="white" stop-opacity="0.32"/>
<stop offset="1" stop-color="white" stop-opacity="0"/>
</linearGradient>
<clipPath id="clip0_243_3000">
<rect width="30" height="30" rx="15" fill="white"/>
</clipPath>
</defs>
</svg>

