<svg width="30" height="30" viewBox="0 0 30 30" fill="none" xmlns="http://www.w3.org/2000/svg">
<g id="icon">
<rect width="30" height="30" rx="15" fill="url(#paint0_linear_243_2993)"/>
<path id="&#208;&#157;&#208;&#181; &#208;&#184;c&#208;&#191;&#208;&#190;&#208;&#187;&#209;&#140;&#208;&#183;&#209;&#131;&#208;&#185;&#209;&#130;&#208;&#181; &#208;&#178; &#209;&#130;&#208;&#181;&#208;&#186;&#209;&#129;&#209;&#130;&#208;&#181; &#208;&#189;&#208;&#181;&#208;&#177;&#209;&#131;&#208;&#186;&#208;&#178;&#208;&#181;&#208;&#189;&#208;&#189;&#209;&#139;&#208;&#181; &#209;&#129;&#208;&#184;&#208;&#188;&#208;&#178;&#208;&#190;&#208;&#187;&#209;&#139;" d="M12.6687 21.1899C12.1297 21.9156 11.1069 22.0719 10.3758 21.5402C9.63419 21.0009 9.47519 19.9601 10.022 19.224L12.3333 16.1122L8.53839 14.8947C7.68857 14.622 7.22039 13.7124 7.49238 12.8624C7.76467 12.0114 8.6755 11.5427 9.52622 11.8156L13.3188 13.0323V9.18116C13.3188 8.25268 14.0715 7.5 15 7.5C15.9285 7.5 16.6812 8.25268 16.6812 9.18116V13.0323L20.4326 11.8156C21.2774 11.5416 22.1856 11.9975 22.4706 12.8387C22.7616 13.6975 22.2926 14.6281 21.4292 14.9051L17.6667 16.1122L19.978 19.224C20.5248 19.9601 20.3658 21.0009 19.6242 21.5402C18.8931 22.0719 17.8703 21.9156 17.3313 21.1899L15 18.0513L12.6687 21.1899Z" fill="#FF3333"/>
</g>
<defs>
<linearGradient id="paint0_linear_243_2993" x1="0" y1="0" x2="7.61668" y2="34.8868" gradientUnits="userSpaceOnUse">
<stop stop-color="#FF3333" stop-opacity="0.32"/>
<stop offset="1" stop-color="#FF3333" stop-opacity="0"/>
</linearGradient>
</defs>
</svg>
