<svg width="15" height="17" viewBox="0 0 15 17" fill="none" xmlns="http://www.w3.org/2000/svg">
<g id="&#208;&#161;&#208;&#145;&#208;&#159;_&#208;&#187;&#208;&#190;&#208;&#179;&#208;&#190;&#209;&#130;&#208;&#184;&#208;&#191; 1" clip-path="url(#clip0_510_9640)">
<path id="path66" d="M0 3.70044L2.19965 7.38023V9.6248L0.00257322 13.2974L0 3.70044Z" fill="#5B57A2"/>
<path id="path68" d="M8.4458 6.04101L10.507 4.85866L14.7252 4.85498L8.4458 8.4553V6.04101Z" fill="#D90751"/>
<path id="path70" d="M8.43411 3.67866L8.44576 8.55058L6.24097 7.28266V0L8.43411 3.67866Z" fill="#FAB718"/>
<path id="path72" d="M14.7252 4.85506L10.5068 4.85874L8.43411 3.67866L6.24097 0L14.7252 4.85506Z" fill="#ED6F26"/>
<path id="path74" d="M8.44576 13.3177V10.954L6.24097 9.71021L6.24218 17.0001L8.44576 13.3177Z" fill="#63B22F"/>
<path id="path76" d="M10.5018 12.1462L2.1995 7.38023L0 3.70044L14.7163 12.1414L10.5018 12.1462Z" fill="#1487C9"/>
<path id="path78" d="M6.24243 17.0001L8.44571 13.3178L10.5017 12.1462L14.7162 12.1414L6.24243 17.0001Z" fill="#017F36"/>
<path id="path80" d="M0.00268555 13.2973L6.2591 9.71029L4.15571 8.50244L2.19976 9.62473L0.00268555 13.2973Z" fill="#984995"/>
</g>
<defs>
<clipPath id="clip0_510_9640">
<rect width="15" height="17" fill="white"/>
</clipPath>
</defs>
</svg>
