<svg width="22" height="21" viewBox="0 0 22 21" fill="none" xmlns="http://www.w3.org/2000/svg">
<g id="d6400f9d-63bb-4076-b887-7aa967baf8a9 1">
<path id="Vector" d="M22.2305 9.6591L22.5301 8.69819L21.5388 8.72932C21.4551 8.72932 20.8463 8.712 20.2557 8.28303C20.2998 8.28735 20.3438 8.29342 20.3887 8.29342C20.9966 8.29342 21.5846 7.92667 21.8203 7.4026L22.2468 6.45555C21.7124 6.46243 21.2237 6.39496 21.2237 6.39496C21.2194 6.39414 20.8342 6.3448 20.3887 5.88902C20.0692 5.56212 19.6738 5.38915 19.2455 5.38915C19.0581 5.38915 18.8906 5.42285 18.7464 5.46868C18.7688 5.39172 18.7904 5.31389 18.8025 5.23346C18.9389 4.34696 18.3691 3.67062 18.3691 3.67146L17.6239 2.74691L17.162 3.83319C17.1602 3.83666 17.0436 4.09092 16.8347 4.21547C16.7717 3.89633 16.6171 3.5374 16.2864 3.19407C15.663 2.54711 14.904 2.45111 14.5068 2.45111C14.3229 2.45111 14.1917 2.47099 14.1597 2.47619L13.2599 2.65348C13.3118 2.45195 13.4223 2.10169 13.6244 1.78602L14.1209 1.01109L12.8714 1.15379L12.4733 0.307045L11.7031 0.704889L10.9908 0L10.2802 0.704889L9.50733 0.307045L9.11014 1.15379L7.86158 1.01109L8.35893 1.78602C8.56099 2.10169 8.6715 2.45111 8.72245 2.65264L7.86421 2.48313L7.83482 2.47792C7.79163 2.47099 7.66127 2.45111 7.47648 2.45111C7.07933 2.45111 6.32032 2.54796 5.69859 3.19407C5.36702 3.53655 5.21248 3.89633 5.14859 4.21547C4.94136 4.09265 4.82564 3.84186 4.82564 3.84186L4.36286 2.74948L3.60555 3.68009C3.5132 3.80033 3.05644 4.43603 3.18074 5.23517C3.19372 5.31475 3.21446 5.39261 3.2369 5.46958C3.09356 5.42374 2.92604 5.38996 2.73866 5.38996C2.31042 5.38996 1.91492 5.56297 1.59459 5.88987C1.15073 6.34399 0.76737 6.39496 0.770849 6.39496C0.770849 6.39496 0.365854 6.46765 -0.261019 6.4564L0.162968 7.40345C0.398675 7.92842 0.987581 8.29428 1.59459 8.29428C1.64032 8.29428 1.68436 8.28825 1.72928 8.28389C1.14038 8.7129 0.53168 8.73022 0.458274 8.73103L-0.552002 8.69819L-0.246333 9.65824C-0.0926351 10.1529 0.421129 10.9729 1.40548 11.0611C1.2984 11.5108 1.06097 12.0142 0.539443 12.2312L-0.212625 12.5417L0.197508 13.257C0.428892 13.6427 0.972055 14.0942 1.7457 14.0942C1.91318 14.0934 2.07464 14.0769 2.23011 14.0441C2.26982 14.2205 2.31988 14.3969 2.37859 14.5716C2.60915 15.2584 2.41053 15.7375 2.40799 15.7427L2.03667 16.5219L2.86559 16.7407C2.87594 16.7442 3.12635 16.8126 3.43976 16.8126C3.58226 16.8126 3.71784 16.7979 3.84565 16.7675C3.94233 16.7451 4.03473 16.7148 4.12364 16.6785C4.23072 16.8714 4.36112 17.0469 4.51312 17.2044C5.04411 17.7501 5.7962 18.0269 6.74946 18.0269H6.75289L7.43334 18.0182L6.02761 18.6029L7.09485 19.1192C7.4825 19.3087 7.94278 19.5326 8.41073 19.7038L8.27778 20.0688L8.64562 20.2367C8.67841 20.2513 9.38558 20.5688 10.5616 20.6362C10.5616 20.6362 10.8457 20.6492 11.002 20.6492C11.1583 20.6492 11.4389 20.6353 11.4389 20.6353C12.6072 20.5661 13.3092 20.2522 13.342 20.2367L13.7107 20.068L13.576 19.7021C14.0578 19.5257 14.5344 19.2931 14.9057 19.1114L15.9531 18.602L14.5517 18.0165L15.2347 18.0251C16.1888 18.0251 16.9418 17.7484 17.4719 17.2017C17.6231 17.0452 17.7534 16.8696 17.8613 16.6768C17.9503 16.7131 18.0435 16.7434 18.1403 16.7658C18.2671 16.7961 18.4027 16.8108 18.5452 16.8108C18.8535 16.8108 19.1065 16.7425 19.1134 16.7407L19.9457 16.5202L19.5831 15.7557C19.5745 15.7357 19.3759 15.2575 19.6064 14.5699C19.6651 14.3943 19.7143 14.2179 19.7541 14.0423C19.9103 14.0752 20.0735 14.0925 20.2419 14.0925C21.2271 14.0925 21.6994 13.398 21.791 13.2475L22.1968 12.54L21.4447 12.2304C20.9223 12.0133 20.6857 11.5091 20.5795 11.0602C21.5501 10.9772 22.0716 10.1573 22.2305 9.6591ZM8.78811 2.98387L8.77772 2.98649L8.78633 2.97524L8.78811 2.98387Z" fill="white"/>
<path id="Vector_2" d="M10.9917 2.94141C10.1955 2.94225 9.59887 3.20345 9.46851 3.51049L10.9917 4.11245L12.5148 3.51049C12.3853 3.20345 11.7887 2.94225 10.9917 2.94141Z" fill="white"/>
<path id="Vector_3" d="M11.0071 18.8769H11.0054H10.9924H10.9778H10.9769C10.4942 18.8804 9.83019 18.7809 9.50982 18.6875L9.12476 19.7314C9.37861 19.8222 10.2386 19.9952 10.9924 19.9952C11.7445 19.9952 12.6054 19.8214 12.8584 19.7314L12.4742 18.6875C12.1529 18.7817 11.4898 18.8804 11.0071 18.8769Z" fill="white"/>
<path id="Vector_4" d="M13.9215 17.8391C13.6348 18.0017 12.995 18.2456 12.6228 18.3589L12.9354 19.2212C13.5113 19.0638 13.9862 18.8796 14.3791 18.6824L13.7306 18.4661L13.9215 17.8391Z" fill="white"/>
<path id="Vector_5" d="M8.06283 17.8391L8.25453 18.4661L7.60522 18.6824C7.9972 18.8796 8.4747 19.0638 9.04803 19.2212L9.36063 18.3589C8.99021 18.2456 8.34951 18.0009 8.06283 17.8391Z" fill="white"/>
<path id="Vector_6" d="M10.9918 1.94344C11.5919 1.94344 12.1807 2.08703 12.6332 2.3396C12.6747 2.20033 12.7325 2.03166 12.8111 1.85527L12.6401 1.87599L12.4605 1.89502L12.3845 1.73156L12.1558 1.24722L11.7387 1.4652L11.5763 1.54822L11.4468 1.4202L10.9935 0.970459L10.5411 1.4202L10.4115 1.54822L10.2492 1.4652L9.82957 1.24722L9.60334 1.73156L9.52562 1.89502L9.34601 1.87599L9.17505 1.85527C9.25366 2.03255 9.31063 2.20033 9.35292 2.3396C9.80624 2.08703 10.3934 1.94344 10.9918 1.94344Z" fill="white"/>
<path id="Vector_7" d="M20.1538 7.54098C20.2315 7.56779 20.311 7.5799 20.3895 7.5799C20.7289 7.5799 21.057 7.36019 21.1701 7.10851C21.1701 7.10851 20.5476 7.07045 19.8784 6.38979C19.6651 6.16924 19.4398 6.10352 19.2463 6.10352C18.9458 6.10352 18.7205 6.26263 18.7205 6.26263C19.5287 6.69339 19.6936 7.38529 20.1538 7.54098Z" fill="white"/>
<path id="Vector_8" d="M1.59392 7.5799C1.67248 7.5799 1.75194 7.56779 1.82792 7.54098C2.28989 7.38529 2.45567 6.69339 3.26385 6.26263C3.26385 6.26263 3.03761 6.10352 2.73884 6.10352C2.54459 6.10352 2.3192 6.16924 2.1051 6.38979C1.43675 7.07045 0.814209 7.10851 0.814209 7.10851C0.925566 7.36019 1.25455 7.5799 1.59392 7.5799Z" fill="white"/>
<path id="Vector_9" d="M20.3734 10.3528C20.3873 10.3536 20.3993 10.3536 20.414 10.3536C21.2611 10.3536 21.5486 9.44464 21.5486 9.44464H21.5322C21.3767 9.44464 20.1169 9.4083 19.2267 8.27442C18.6404 7.5289 18.1604 6.8733 17.2114 6.61559L17.1182 6.59912L17.0974 6.50402C17.0715 6.35868 17.1708 6.22292 17.3962 6.07591C18.7052 5.21707 17.8167 4.1221 17.8167 4.1221C17.8167 4.1221 17.4429 4.99822 16.6061 4.99822C16.5863 4.99822 16.5647 4.99737 16.5439 4.99737C16.449 4.9922 16.3574 4.98873 16.2651 4.96885L16.1105 4.93857C16.1105 4.93857 16.3488 4.28905 15.7737 3.69224C15.3403 3.24165 14.8127 3.16553 14.5079 3.16553C14.3542 3.16553 14.2567 3.18545 14.2567 3.18545C14.5459 3.56426 14.7549 4.19218 14.4207 4.5796C14.1323 4.91262 13.4277 4.92904 13.4277 5.42548C13.4277 5.63565 13.6237 5.88131 13.976 6.10182C15.0355 6.77038 16.0872 7.65692 16.5241 8.84523C17.0707 10.3277 16.455 11.311 15.576 11.875C15.576 11.875 15.8515 12.1292 16.2512 12.1612C16.3324 12.169 16.4118 12.1725 16.4861 12.1725C17.3297 12.1725 17.7658 11.7764 17.7658 11.7764C17.7658 11.7764 17.6941 12.3238 17.2546 12.8324C16.8496 13.302 16.3178 13.5779 15.5069 13.59C15.5069 13.59 15.481 13.9671 15.8402 14.2932C16.0699 14.499 16.601 14.5665 16.601 14.5665C16.601 14.5665 15.6071 14.768 15.4974 16.2383C15.4378 17.0349 15.2349 17.3116 15.2349 17.3116H15.2531C17.5594 17.3116 17.4998 15.3302 17.4998 15.3302C17.4998 15.3302 17.6604 15.9166 18.3037 16.0696C18.3814 16.0904 18.4643 16.0982 18.5437 16.0982C18.751 16.0982 18.9306 16.0498 18.9306 16.0498C18.9306 16.0498 18.5938 15.338 18.928 14.3425C19.2051 13.5165 19.1602 12.9042 19.1602 12.9042C19.1602 12.9042 19.4711 13.3746 20.2413 13.379H20.2491C20.8906 13.379 21.1704 12.8921 21.1704 12.8921C19.6326 12.2529 19.7845 10.1893 19.7845 10.1893C19.7845 10.1893 19.984 10.3381 20.3734 10.3528ZM19.9106 12.508C19.2854 12.1993 18.89 11.3794 18.7941 11.0836C18.6906 12.7096 17.8979 13.8383 16.9714 14.9246C16.4904 15.4876 16.3229 16.0351 16.3229 16.0351C16.3229 16.0351 16.4153 15.4149 16.8315 14.9098C17.6959 13.8694 18.5169 12.5746 18.5783 11.0775C18.6206 10.0327 18.352 9.18517 17.9333 8.4872C18.1672 9.21455 18.1345 10.1054 17.3392 10.9365C17.3392 10.9365 18.9219 9.03641 16.7089 7.08868C15.823 6.34744 14.8542 5.88995 14.3551 5.56557C16.158 6.15459 17.0379 5.50592 17.0379 5.50592C16.4619 6.00583 15.7168 5.99719 15.2548 5.92539C15.38 5.98684 15.5104 6.05081 15.6511 6.12607C17.1708 6.95288 18.5368 8.31334 18.7699 10.1979V10.1832C19.124 12.0332 19.9106 12.508 19.9106 12.508Z" fill="white"/>
<path id="Vector_10" d="M5.38273 14.5665C5.38273 14.5665 5.91372 14.4999 6.14344 14.2932C6.50173 13.9671 6.47674 13.59 6.47674 13.59C5.66505 13.5788 5.13406 13.302 4.72647 12.8333C4.29046 12.3247 4.21792 11.7772 4.21792 11.7772C4.21792 11.7772 4.65393 12.1733 5.49668 12.1733C5.5727 12.1733 5.65126 12.1699 5.73241 12.1621C6.1322 12.1301 6.40849 11.8758 6.40849 11.8758C5.52951 11.3119 4.913 10.3277 5.45871 8.84523C5.8965 7.65778 6.94733 6.77038 8.00677 6.10182C8.35908 5.88131 8.55507 5.63651 8.55507 5.42548C8.55507 4.92904 7.85138 4.91262 7.56299 4.5796C7.2288 4.19218 7.43861 3.56337 7.72699 3.18545C7.72699 3.18545 7.63116 3.16553 7.47658 3.16553C7.17267 3.16553 6.64507 3.24165 6.21165 3.69224C5.63484 4.28905 5.87402 4.93857 5.87402 4.93857L5.71948 4.96885C5.62708 4.98873 5.53469 4.9922 5.44055 4.99737C5.419 4.99737 5.39996 4.99822 5.37925 4.99822C4.54083 4.99822 4.16867 4.12299 4.16867 4.12299C4.16867 4.12299 3.28015 5.21788 4.58835 6.07672C4.81369 6.22377 4.91211 6.35958 4.88623 6.50488L4.86549 6.60002L4.7705 6.61644C3.82331 6.87416 3.34238 7.5298 2.75607 8.27532C1.86755 9.40744 0.609492 9.44464 0.452354 9.44464H0.435059C0.435059 9.44464 0.722588 10.3536 1.56966 10.3536C1.58345 10.3536 1.59554 10.3536 1.61022 10.3528C1.99969 10.3389 2.20001 10.1893 2.20001 10.1893C2.20001 10.1893 2.35022 12.2521 0.814134 12.8921C0.814134 12.8921 1.0939 13.379 1.73545 13.379H1.74321C2.51427 13.3746 2.82428 12.9042 2.82428 12.9042C2.82428 12.9042 2.77936 13.5165 3.05565 14.3425C3.38985 15.338 3.05485 16.0498 3.05485 16.0498C3.05485 16.0498 3.23442 16.0982 3.4408 16.0982C3.52106 16.0982 3.60314 16.0904 3.67997 16.0696C4.32236 15.9166 4.48386 15.3302 4.48386 15.3302C4.48386 15.3302 4.42511 17.3116 6.73144 17.3116H6.74786C6.74786 17.3116 6.54581 17.0349 6.4871 16.2383C6.37654 14.768 5.38273 14.5665 5.38273 14.5665ZM5.01231 14.9246C4.08578 13.8383 3.29402 12.7096 3.18949 11.0836C3.0937 11.3785 2.6999 12.1993 2.07482 12.508C2.07482 12.508 2.86055 12.0332 3.21367 10.1832V10.1979C3.44771 8.31423 4.81284 6.95288 6.3334 6.12607C6.47242 6.04991 6.60448 5.98594 6.72886 5.92539C6.26688 5.99719 5.52175 6.00583 4.94583 5.50592C4.94583 5.50592 5.8257 6.15459 7.62769 5.56557C7.12864 5.88995 6.1607 6.34744 5.27477 7.08868C3.06087 9.03641 4.64447 10.9365 4.64447 10.9365C3.84834 10.1045 3.8164 9.21455 4.0504 8.4872C3.63076 9.18599 3.36304 10.0327 3.40627 11.0775C3.46667 12.5746 4.28783 13.8694 5.15047 14.9098C5.56748 15.4141 5.66161 16.0351 5.66161 16.0351C5.66161 16.0351 5.49235 15.4876 5.01231 14.9246Z" fill="white"/>
<path id="Vector_11" d="M9.28655 7.32202C9.32452 7.36265 9.36163 7.40677 9.39706 7.4509C9.40571 7.46129 9.41347 7.47079 9.42204 7.48289C9.45488 7.52702 9.4886 7.57371 9.5205 7.6213C9.52742 7.63079 9.53433 7.64204 9.5421 7.65329C9.58096 7.71208 9.61722 7.77263 9.6535 7.83489C9.98595 8.4101 10.5187 8.75342 10.991 8.75432C11.4642 8.75342 11.9952 8.4101 12.3294 7.83489C12.3665 7.77092 12.4036 7.70866 12.4425 7.65068C12.4485 7.64204 12.4546 7.63426 12.4597 7.62558C12.4926 7.57632 12.5271 7.52787 12.5634 7.48118C12.5711 7.47079 12.578 7.46215 12.5849 7.45351C12.6221 7.40767 12.66 7.36265 12.6989 7.32117C12.7059 7.31424 12.711 7.30821 12.7171 7.303C12.8863 7.12918 13.0884 6.99683 13.3526 6.92333L13.2352 6.855H13.2282L12.7602 6.58253L12.2793 6.30664L10.9944 7.00718L10.991 7.00461L10.9884 7.00718L9.7027 6.30664L9.22262 6.58167L8.75378 6.85414H8.7486L8.62939 6.92243C8.89449 6.99598 9.09569 7.12657 9.2658 7.30043C9.27357 7.30736 9.27874 7.31514 9.28655 7.32202ZM10.4712 7.26579H11.0152H11.5583V7.63943C11.4305 7.48289 11.1818 7.51492 11.1818 7.51492V8.05374C11.1818 8.05374 11.1913 8.31838 11.2837 8.43345H11.0152H10.7458C10.8399 8.31923 10.8485 8.05374 10.8485 8.05374V7.51492C10.8485 7.51492 10.6007 7.48289 10.4712 7.63943V7.26579Z" fill="white"/>
<path id="Vector_12" d="M10.8804 6.54112V4.35385L9.49023 3.88159L9.85722 6.00149L10.8804 6.54112ZM10.5817 4.89096V5.24207L10.5143 5.21094C10.5109 5.20837 10.4124 5.18584 10.2397 5.04922C9.95475 4.82781 9.94962 4.62371 9.94962 4.62371L10.5817 4.89096Z" fill="white"/>
<path id="Vector_13" d="M12.1273 6.00149L12.4926 3.88159L11.1033 4.35385V6.54112L12.1273 6.00149ZM11.402 4.89096L12.034 4.62457C12.034 4.62457 12.0289 4.82866 11.7431 5.05007C11.5712 5.18674 11.4719 5.20918 11.4685 5.21184L11.4011 5.24296V4.89096H11.402Z" fill="white"/>
<path id="Vector_14" d="M8.9142 11.612C9.04973 11.6613 9.21382 11.6717 9.2976 11.6717C9.30104 11.6613 9.30537 11.6483 9.30969 11.6327C9.31746 11.6076 9.32433 11.5834 9.32955 11.5558C9.35283 11.4347 9.36149 11.2971 9.36319 11.2089C9.30621 11.1734 9.22591 11.1103 9.18099 11.016C9.12919 10.9071 9.0558 10.8569 8.94784 10.8569C8.80801 10.8569 8.65776 10.9408 8.59387 10.9806C8.54292 11.2824 8.76483 11.5566 8.9142 11.612Z" fill="white"/>
<path id="Vector_15" d="M11.9892 10.4512C11.731 10.7322 11.2259 11.2218 11.2008 11.2469L11.1706 11.278L9.57406 11.2529C9.57316 11.4112 9.54729 11.5461 9.52222 11.6447C9.51793 11.6612 9.5136 11.6785 9.50928 11.6957L11.4089 12.0374C11.6066 11.8989 12.1506 11.5011 12.3613 11.3455C12.2076 11.1206 12.193 10.8542 12.2275 10.6665C12.1273 10.6016 12.0505 10.529 11.9892 10.4512Z" fill="white"/>
<path id="Vector_16" d="M12.2055 8.52796C11.8377 8.89386 11.4845 9.02876 11.1694 9.05989C11.1124 9.06592 11.0546 9.06939 10.9958 9.06939H10.9915H10.988C10.9293 9.06939 10.8706 9.06592 10.8136 9.05989C10.7584 9.05472 10.7005 9.04604 10.6426 9.03308C10.6219 9.11527 10.596 9.28738 10.6703 9.44995C10.7368 9.59786 10.8723 9.70767 11.0701 9.78036L11.1366 9.80631L11.1374 9.87807C11.1374 9.8997 11.153 10.365 11.6598 10.4939C11.7427 10.4082 11.8178 10.3313 11.8731 10.2673C11.7695 10.0234 11.8239 9.77429 11.9741 9.65238C11.9672 9.67829 11.9016 10.2889 12.3903 10.5155L12.4706 10.5536L12.4464 10.6392C12.4387 10.6652 12.2755 11.2558 12.8669 11.4755L12.9715 11.5153L12.9248 11.6174C12.9144 11.6399 12.6822 12.1761 13.2287 12.4805H14.4143V11.5378C13.9929 11.4859 13.8142 11.1468 13.7684 10.9064C13.5724 10.8727 13.4204 10.788 13.3168 10.6495C13.0681 10.3218 13.2823 10.0217 13.2849 10.0052C13.284 10.0078 13.2849 10.3278 13.4817 10.525C13.5793 10.6201 13.695 10.6936 13.8703 10.7101L13.9566 10.7179L13.9644 10.8061C13.9662 10.8251 14.0136 11.2576 14.4151 11.3259L14.4143 9.40069C14.4143 9.10227 14.5015 8.80213 14.606 8.52539H12.2055V8.52796Z" fill="white"/>
<path id="Vector_17" d="M9.01534 9.40974L8.9834 10.6361L9.12241 10.6569L9.46259 9.48068L9.28989 9.11914L9.01534 9.40974Z" fill="white"/>
<path id="Vector_18" d="M12.7661 15.0343C12.7765 15.0343 12.7886 15.0361 12.7998 15.0387C13.0113 15.0992 13.0649 15.8637 13.4362 15.9321C13.4724 15.9399 13.5061 15.9416 13.5355 15.9416C13.6425 15.9416 13.7064 15.8957 13.7755 15.8145C13.7755 15.8145 13.589 15.5204 13.4491 15.3223C13.2634 15.0629 13.1193 14.7489 12.7739 14.7489C12.7661 14.7489 12.7557 14.7489 12.7471 14.7498C12.6331 14.7558 12.5632 14.8112 12.5632 14.8112C12.4233 14.723 12.2929 14.6927 12.1746 14.6927C11.9579 14.6927 11.7895 14.7921 11.7058 14.7921H11.7023L10.9304 14.716C10.8095 14.7048 10.7145 14.5829 10.68 14.5353C10.6714 14.5223 10.667 14.5145 10.667 14.5145C10.667 14.4938 10.667 14.4721 10.6653 14.4531C10.6394 13.8209 10.1507 13.5502 9.97712 13.5459C9.97712 13.5459 9.99787 13.4257 9.9504 13.3798L9.78029 13.5865L9.22159 13.3054L9.61964 13.7716L9.28205 14.1513C9.23975 14.1945 9.24493 14.2533 9.26219 14.2775L9.40812 14.4064L9.59287 14.2939C9.60241 14.2871 9.61883 14.2853 9.63949 14.2853C9.69044 14.2853 9.76731 14.2983 9.83637 14.2983C9.9115 14.2983 9.97712 14.2818 9.98493 14.211C9.9616 14.4453 9.74487 14.8527 9.88736 15.1727L9.99269 15.414L9.31055 15.3154L8.99108 15.8559C8.89266 16.0359 8.87705 16.2305 8.97203 16.336L9.09123 16.4856C9.09123 16.4856 9.25876 16.3074 9.29672 16.1907L9.24234 16.131C9.19657 16.0808 9.19915 16.0359 9.22681 15.9814L9.42708 15.6484L10.2327 15.8387L10.275 15.7661C10.3294 15.6752 10.408 15.6475 10.4944 15.6475C10.5298 15.6475 10.566 15.6518 10.604 15.6579C10.7534 15.6873 10.9995 15.7271 11.2456 15.7271C11.5158 15.7271 11.7835 15.6787 11.926 15.5187C12.2178 15.952 12.8093 16.0212 12.7627 16.2409L12.6073 16.9829C12.71 16.9786 12.8093 16.9717 12.9034 16.9587L13.051 16.1863C13.0675 16.1025 13.083 15.9892 13.083 15.9892C13.0261 15.9312 12.8879 15.8084 12.8101 15.6596C12.7057 15.459 12.7627 15.3543 12.6651 15.0931C12.6686 15.0948 12.6979 15.0343 12.7661 15.0343ZM9.75263 13.9497C9.71292 13.9489 9.68441 13.9151 9.68615 13.8754C9.68963 13.8373 9.72158 13.807 9.76043 13.8105C9.80014 13.8123 9.82861 13.8468 9.82691 13.8849C9.82343 13.9229 9.79064 13.9524 9.75263 13.9497Z" fill="white"/>
<path id="Vector_19" d="M8.65288 15.7364C8.65288 15.7364 8.91971 15.6266 8.94389 15.5479L8.90852 15.4588C8.88344 15.4009 8.88692 15.3378 8.93528 15.3031L9.22367 15.1033L9.70549 15.1959C9.70549 15.1959 9.61827 15.0869 9.62693 14.9407L9.16754 14.843L8.73408 15.1077C8.54844 15.2469 8.53461 15.4744 8.59591 15.6093L8.65288 15.7364Z" fill="white"/>
<path id="Vector_20" d="M12.0583 16.994C12.1447 16.9906 12.2397 16.9888 12.3442 16.9888C12.3442 16.9888 12.592 16.2632 12.6058 16.2398C12.4668 16.1784 12.1784 16.0254 12.067 15.9553C12.1404 16.0651 12.3191 16.1914 12.2837 16.2883L12.0583 16.994Z" fill="white"/>
<path id="Vector_21" d="M14.4172 12.6904H7.56738V15.2713C7.56738 16.3264 8.32983 16.9872 9.45493 16.9872C10.3953 16.9872 10.643 17.0235 10.9928 17.3712C11.2336 17.1308 11.4331 17.0409 11.8424 17.0071L11.8519 16.9673L12.0678 16.2987C12.0557 16.284 11.7026 15.8819 11.7026 15.8819C11.5627 15.9286 11.4452 15.9364 11.2475 15.9364C11.0446 15.9364 10.8157 15.913 10.568 15.8663C10.5429 15.8603 10.5196 15.8585 10.4963 15.8585C10.4661 15.8585 10.4634 15.8611 10.4557 15.8758L10.4125 15.9467L10.3339 16.0765L10.1863 16.0427L9.52917 15.888L9.43941 16.0367L9.45319 16.0522L9.5335 16.1405L9.49812 16.2555C9.44976 16.406 9.29259 16.5816 9.24512 16.63L9.08107 16.8064L8.93166 16.617L8.81942 16.4761C8.70114 16.3437 8.67348 16.1404 8.74 15.9277C8.73822 15.9295 8.73567 15.9303 8.73309 15.9303L8.54745 16.0073L8.46367 15.8257L8.40496 15.6968C8.30391 15.4702 8.34107 15.1389 8.61303 14.9391L9.14237 14.6399L9.64579 14.7394C9.65788 14.6909 9.67599 14.518 9.69063 14.4738C9.68117 14.473 9.67167 14.4704 9.66216 14.4704L9.37204 14.5785L9.09227 14.3848C9.09227 14.3848 8.98265 14.2793 9.08188 14.1737L9.35304 13.7629L8.66661 12.8997L9.72172 13.3339L9.79168 13.2466L9.93417 13.0762L10.0956 13.2301C10.1414 13.2742 10.1673 13.3287 10.1802 13.3832C10.4712 13.4965 10.9919 13.8312 11.0376 14.3753L10.8744 14.441V14.4453C10.9116 14.4894 10.9427 14.5076 10.9522 14.5093L11.7051 14.5837C11.7241 14.5802 11.7483 14.5716 11.7751 14.5638C11.8683 14.5318 12.0091 14.4859 12.1757 14.4859C12.3113 14.4859 12.4425 14.5171 12.5686 14.5759C12.6152 14.5586 12.6722 14.5456 12.7378 14.5413L12.7741 14.5404C13.1773 14.5404 13.3776 14.8423 13.5383 15.0827C13.565 15.1242 13.5918 15.164 13.6194 15.2029C13.7601 15.4019 13.9441 15.6933 13.9518 15.7055L14.0347 15.8351L13.9329 15.9537C13.8543 16.0445 13.7368 16.1509 13.5348 16.1509C13.4933 16.1509 13.4476 16.1465 13.3984 16.137C13.3552 16.1292 13.3164 16.1163 13.2783 16.1007C13.2723 16.1404 13.2645 16.188 13.2568 16.2287L13.1246 16.9189C13.9147 16.7243 14.4164 16.1266 14.4164 15.2721L14.4172 12.6904Z" fill="#FFDD2D"/>
<path id="Vector_22" d="M7.56741 12.4829H12.8941C12.6281 12.2079 12.6316 11.8594 12.6998 11.6328C12.6221 11.5956 12.5582 11.5506 12.5013 11.5022C12.2931 11.6561 11.6576 12.1197 11.4918 12.2356L11.4565 12.2598L9.366 11.881H9.32366C9.2736 11.881 9.20021 11.8793 9.11991 11.8698C9.09747 11.964 9.01627 12.0289 8.92303 12.0289C8.91268 12.0289 8.90059 12.0281 8.88935 12.0254C8.83496 12.0159 8.78745 11.9882 8.75551 11.9424C8.72272 11.8975 8.70978 11.8438 8.71928 11.7885L8.72704 11.7435C8.51116 11.5913 8.31258 11.2514 8.40065 10.8933L8.40926 10.8552L8.43947 10.8336C8.44379 10.8302 8.48006 10.806 8.53364 10.7748L8.38165 10.7514C8.32467 10.7411 8.28666 10.6883 8.29532 10.6321C8.30482 10.575 8.35836 10.5344 8.41448 10.5456L8.77625 10.6027L8.80909 9.32612L9.34784 8.75527L9.68374 9.46364L9.32888 10.6918L9.64836 10.742C9.70448 10.7506 9.74334 10.8034 9.73468 10.8613C9.72607 10.9124 9.68289 10.9478 9.63194 10.9478C9.62676 10.9478 9.6207 10.9478 9.61557 10.9469L9.3556 10.9046C9.35908 10.9124 9.36426 10.9166 9.36769 10.9253C9.39535 10.9824 9.45665 11.0239 9.49297 11.0412L11.0869 11.0663C11.1542 11.0006 11.3217 10.8362 11.4936 10.6624C11.1016 10.5136 10.9591 10.1746 10.9349 9.94969C10.7156 9.85631 10.5645 9.71618 10.4807 9.53368C10.3788 9.30795 10.4151 9.08222 10.4419 8.97237C10.2294 8.89454 10.0058 8.75271 9.77787 8.52612H7.37744C7.48019 8.80287 7.56741 9.10296 7.56741 9.40138V12.4829Z" fill="#FFDD2D"/>
<path id="Vector_23" d="M9.76117 13.8106C9.72231 13.8071 9.68948 13.8374 9.68693 13.8754C9.6843 13.9152 9.71366 13.9489 9.75341 13.9498C9.79137 13.9532 9.82506 13.9238 9.82849 13.8849C9.82849 13.8468 9.80088 13.8114 9.76117 13.8106Z" fill="black"/>
<path id="Vector_24" d="M14.4076 18.4903L14.013 18.339L14.1218 17.9308L14.2418 17.4854C14.2418 17.4854 13.5424 17.8651 12.5572 18.1504C12.2774 18.2309 12.0659 18.2672 12.0659 18.2672V18.5699C12.0659 18.5699 11.5391 18.6616 11.0064 18.6616H11.0004H10.9926H10.9822H10.9762C10.4434 18.6616 9.91672 18.5699 9.91672 18.5699V18.2672C9.91672 18.2672 9.70431 18.2309 9.42543 18.1504C8.44019 17.8651 7.74163 17.4854 7.74163 17.4854L7.85994 17.9308L7.97134 18.339L7.57585 18.4903L7.13721 18.6547C7.64062 18.8977 8.33744 19.2523 8.97555 19.427L8.82533 19.8387C8.82533 19.8387 9.63436 20.208 10.9822 20.2115V20.2123H10.9865H10.9926H10.9978H11.0013V20.2115C12.3508 20.208 13.159 19.8387 13.159 19.8387L13.0079 19.427C13.646 19.2523 14.3446 18.8977 14.8454 18.6547L14.4076 18.4903ZM7.60524 18.6824L8.25455 18.4661L8.06289 17.8391C8.34868 18.0017 8.99023 18.2456 9.3615 18.3589L9.04805 19.2212C8.47476 19.0629 7.99726 18.8787 7.60524 18.6824ZM10.9926 19.9952C10.2388 19.9952 9.37792 19.8214 9.12491 19.7315L9.51002 18.6876C9.8295 18.7809 10.4944 18.8804 10.977 18.877H10.9779H10.9926H11.0056H11.0073C11.49 18.8804 12.1531 18.7809 12.4743 18.6876L12.8585 19.7315C12.6055 19.8223 11.7455 19.9952 10.9926 19.9952ZM12.9354 19.2212L12.6228 18.3589C12.995 18.2456 13.6348 18.0017 13.9214 17.8391L13.7306 18.4661L14.3791 18.6824C13.9862 18.8787 13.5113 19.0629 12.9354 19.2212Z" fill="black"/>
<path id="Vector_25" d="M10.9915 2.19588C11.7945 2.19588 12.437 2.46228 12.7918 2.74683C12.7918 2.74683 12.8972 2.11112 13.2572 1.54982L12.6105 1.62333L12.272 0.902872L11.6218 1.23846L10.9915 0.614014L10.3629 1.23846L9.71185 0.902872L9.37426 1.62333L8.72754 1.54982C9.08757 2.11112 9.19295 2.74683 9.19295 2.74683C9.5487 2.46228 10.1893 2.19588 10.9915 2.19588ZM9.3449 1.8759L9.52452 1.89493L9.60219 1.73142L9.82847 1.24709L10.2481 1.46418L10.4104 1.54724L10.54 1.41922L10.9924 0.969479L11.4457 1.41922L11.5752 1.54724L11.7375 1.46418L12.1546 1.24709L12.3834 1.73142L12.4594 1.89493L12.639 1.8759L12.8099 1.85513C12.7314 2.03242 12.6736 2.20019 12.6321 2.33946C12.1796 2.08689 11.5907 1.94335 10.9906 1.94335C10.3931 1.94335 9.80513 2.08689 9.35097 2.33946C9.30863 2.20019 9.25166 2.03157 9.17309 1.85513L9.3449 1.8759Z" fill="black"/>
<path id="Vector_26" d="M20.413 10.6311C21.4518 10.6311 21.7988 9.57251 21.8135 9.52753L21.9292 9.15479L21.5398 9.16689H21.5381C21.4008 9.16689 20.255 9.13661 19.4424 8.1022L19.3656 8.00621C18.8345 7.32987 18.3312 6.68727 17.4315 6.39406C17.4573 6.37071 17.4945 6.3413 17.5454 6.30841C18.0229 5.99361 18.301 5.61134 18.3709 5.16766C18.4728 4.49991 18.048 3.96802 18.029 3.9464L17.7397 3.58836L17.5593 4.01302C17.5472 4.03983 17.2432 4.71966 16.6042 4.71966H16.5568C16.5127 4.71701 16.4713 4.7153 16.4298 4.71188C16.4523 4.40828 16.397 3.93862 15.9722 3.4984C15.4619 2.96822 14.835 2.88867 14.5069 2.88867C14.3316 2.88867 14.215 2.91028 14.203 2.91201L13.766 2.9985L14.0354 3.35397C14.247 3.62815 14.4387 4.1341 14.2116 4.39879C14.1391 4.48264 13.9897 4.55097 13.8464 4.6193C13.5519 4.75506 13.1504 4.94364 13.1504 5.42447C13.1504 5.73585 13.3913 6.06109 13.8282 6.33783C15.1217 7.15258 15.9195 8.00274 16.2641 8.94116C16.7968 10.3847 16.1017 11.208 15.4265 11.6413L15.1234 11.8367L15.3885 12.0807C15.4239 12.1118 15.7485 12.3981 16.2278 12.4396C16.3184 12.4457 16.4057 12.4509 16.4868 12.4509C16.7942 12.4509 17.0559 12.4024 17.2683 12.3376C17.2095 12.4405 17.1379 12.5451 17.0472 12.6506C16.6612 13.0986 16.1863 13.3027 15.5033 13.3132L15.2495 13.3175L15.2296 13.5726C15.227 13.6236 15.208 14.0968 15.6553 14.4989C15.7235 14.5612 15.8064 14.6122 15.8928 14.6546C15.5897 14.9279 15.2814 15.4036 15.2219 16.2192C15.1717 16.8998 15.0095 17.1515 15.0077 17.1541L14.7271 17.5831L15.234 17.59C16.0715 17.59 16.713 17.3582 17.1577 16.8998C17.4202 16.6283 17.5705 16.3221 17.6594 16.0505C17.8053 16.1751 17.9936 16.2841 18.2388 16.342C18.3321 16.3636 18.4339 16.3757 18.5436 16.3757C18.7802 16.3757 18.9779 16.3255 19.0003 16.3204L19.3241 16.2339L19.1808 15.9312C19.1704 15.907 18.9002 15.2998 19.1912 14.4332C19.3164 14.0587 19.3803 13.7231 19.4114 13.4619C19.6152 13.5683 19.888 13.6565 20.2411 13.6574C21.0424 13.6574 21.3956 13.058 21.412 13.0329L21.57 12.7579L21.2773 12.6368C20.3223 12.2398 20.1108 11.1734 20.0685 10.5957C20.1548 10.6121 20.2532 10.6277 20.3646 10.6311H20.413ZM21.1702 12.892C21.1702 12.892 20.8905 13.3789 20.2489 13.3789H20.2411C19.4709 13.3746 19.1601 12.904 19.1601 12.904C19.1601 12.904 19.205 13.5164 18.9269 14.3424C18.5928 15.3378 18.9295 16.0497 18.9295 16.0497C18.9295 16.0497 18.75 16.0981 18.5427 16.0981C18.4633 16.0981 18.3804 16.0903 18.3027 16.0695C17.6594 15.9165 17.4988 15.33 17.4988 15.33C17.4988 15.33 17.5584 17.3115 15.2521 17.3115H15.234C15.234 17.3115 15.4368 17.0348 15.4973 16.2382C15.6069 14.7679 16.6008 14.5664 16.6008 14.5664C16.6008 14.5664 16.0707 14.4998 15.8409 14.2931C15.4818 13.967 15.5068 13.5899 15.5068 13.5899C16.3184 13.5787 16.8495 13.3019 17.2544 12.8322C17.6931 12.3237 17.7656 11.7762 17.7656 11.7762C17.7656 11.7762 17.3296 12.1724 16.4859 12.1724C16.4117 12.1724 16.3322 12.1689 16.2511 12.1611C15.8522 12.1291 15.5759 11.8748 15.5759 11.8748C16.454 11.3109 17.0705 10.3267 16.524 8.84426C16.0862 7.65677 15.0345 6.76941 13.9759 6.10081C13.6236 5.88034 13.4276 5.63554 13.4276 5.42447C13.4276 4.92807 14.1322 4.91251 14.4214 4.57864C14.7547 4.1912 14.5458 3.56239 14.2565 3.18447C14.2565 3.18447 14.3541 3.16454 14.5078 3.16454C14.8126 3.16454 15.3402 3.24152 15.7736 3.69125C16.3495 4.28804 16.1104 4.93756 16.1104 4.93756L16.2649 4.96784C16.3573 4.98772 16.4488 4.99119 16.5438 4.9955C16.5646 4.9955 16.5852 4.9964 16.606 4.9964C17.4427 4.9964 17.8165 4.12027 17.8165 4.12027C17.8165 4.12027 18.7059 5.21606 17.3969 6.074C17.1715 6.22105 17.0723 6.35686 17.0981 6.50216L17.1188 6.5973L17.2121 6.61372C18.1611 6.87144 18.6412 7.52708 19.2275 8.2726C20.1177 9.40647 21.3775 9.44278 21.5329 9.44278H21.5493C21.5493 9.44278 21.2618 10.3518 20.4147 10.3518C20.4009 10.3518 20.3888 10.3518 20.3741 10.3509C19.9847 10.3371 19.7853 10.1874 19.7853 10.1874C19.7853 10.1874 19.6324 12.2519 21.1702 12.892Z" fill="black"/>
<path id="Vector_27" d="M18.5886 6.50822C18.9763 6.71496 19.2017 6.99171 19.3994 7.23732C19.5937 7.47691 19.7785 7.70781 20.0669 7.80381C20.1696 7.8393 20.2784 7.85572 20.3889 7.85572C20.8224 7.85572 21.2575 7.59018 21.4225 7.22261L21.5883 6.85419L21.1867 6.82994C21.1678 6.82909 20.6514 6.78239 20.0764 6.19342C19.8397 5.95212 19.554 5.82495 19.2457 5.82495C18.8692 5.82495 18.5903 6.01352 18.5593 6.03251L18.1897 6.29288L18.5886 6.50822ZM19.2466 6.10345C19.44 6.10345 19.6654 6.16921 19.8786 6.38973C20.5478 7.07043 21.1703 7.10844 21.1703 7.10844C21.0572 7.35927 20.7291 7.57983 20.3898 7.57983C20.3112 7.57983 20.2326 7.56769 20.1541 7.54087C19.6938 7.38518 19.5289 6.69328 18.7198 6.2626C18.7198 6.2626 18.9461 6.10345 19.2466 6.10345Z" fill="black"/>
<path id="Vector_28" d="M18.7698 10.1833V10.1971C18.5367 8.3134 17.1707 6.95294 15.651 6.12524C15.5102 6.04998 15.3807 5.98601 15.2547 5.9246C15.7175 5.99636 16.4627 6.00504 17.0377 5.50513C17.0377 5.50513 16.1579 6.1538 14.355 5.56482C14.854 5.88911 15.8237 6.34669 16.7088 7.08785C18.9218 9.03562 17.3382 10.9358 17.3382 10.9358C18.1335 10.1046 18.1663 9.21376 17.9323 8.48641C18.3511 9.18434 18.6187 10.0319 18.5772 11.0767C18.516 12.5739 17.6948 13.8686 16.8305 14.909C16.4152 15.4141 16.3219 16.0343 16.3219 16.0343C16.3219 16.0343 16.4894 15.4868 16.9704 14.9237C17.8969 13.8375 18.6886 12.7088 18.7923 11.0828C18.8882 11.3777 19.2828 12.1985 19.9087 12.5073C19.9105 12.5081 19.1239 12.0333 18.7698 10.1833Z" fill="black"/>
<path id="Vector_29" d="M6.97562 17.1534C6.97472 17.1508 6.81416 16.8991 6.76236 16.2184C6.70187 15.4028 6.39448 14.9271 6.09057 14.6539C6.17864 14.6123 6.25979 14.5613 6.32801 14.4982C6.77445 14.096 6.75545 13.6229 6.75286 13.5719L6.73559 13.3168L6.48 13.3124C5.79871 13.3012 5.32295 13.0971 4.93696 12.6499C4.84719 12.5444 4.77465 12.4397 4.7159 12.3368C4.92835 12.4017 5.18826 12.4501 5.4965 12.4501C5.57939 12.4501 5.66487 12.4449 5.75553 12.4389C6.23476 12.3973 6.55946 12.1119 6.59569 12.0799L6.86078 11.836L6.55772 11.6406C5.87991 11.2064 5.18737 10.383 5.71926 8.94038C6.06381 8.00201 6.86078 7.15185 8.15595 6.3371C8.59285 6.06035 8.83207 5.73512 8.83207 5.42374C8.83207 4.9429 8.4314 4.75351 8.13699 4.61856C7.99365 4.55023 7.84428 4.4819 7.7717 4.39805C7.54377 4.13421 7.73632 3.62743 7.94703 3.35324L8.21814 2.99777L7.7795 2.91128C7.76657 2.90955 7.65173 2.88794 7.47555 2.88794C7.14746 2.88794 6.5223 2.96749 6.01112 3.49767C5.58546 3.93878 5.52929 4.4084 5.55093 4.71114C5.50944 4.71456 5.46804 4.71627 5.42485 4.71892H5.37823C4.73753 4.71892 4.43447 4.0391 4.42238 4.01228L4.24192 3.58762L3.95002 3.94567C3.93364 3.96728 3.5071 4.50008 3.61069 5.16692C3.67979 5.6106 3.95782 5.99288 4.43532 6.30768C4.48712 6.34052 4.52339 6.36998 4.54931 6.39333C3.6504 6.68653 3.14791 7.32999 2.61683 8.00632L2.54001 8.10232C1.72836 9.13673 0.579969 9.16701 0.442684 9.16701L0.0515137 9.15491L0.170672 9.52765C0.184476 9.57263 0.530734 10.6312 1.57034 10.6312L1.62044 10.6295C1.7301 10.6261 1.82851 10.6114 1.91662 10.5941C1.87344 11.1709 1.66188 12.2374 0.706003 12.6352L0.414185 12.7563L0.572205 13.0313C0.587732 13.0564 0.941774 13.6558 1.74477 13.6558C2.0953 13.6549 2.36816 13.5667 2.5728 13.4603C2.6039 13.7215 2.66778 14.0571 2.79301 14.4316C3.08398 15.2982 2.81291 15.9053 2.80251 15.9296L2.65921 16.2323L2.98382 16.3187C3.00542 16.324 3.20488 16.3741 3.44062 16.3741C3.55113 16.3741 3.65303 16.362 3.74457 16.3404C3.99062 16.2824 4.18058 16.1735 4.32481 16.0489C4.41284 16.3205 4.56399 16.6266 4.8256 16.8983C5.27116 17.3566 5.91185 17.5884 6.74938 17.5884L7.25713 17.5815L6.97562 17.1534ZM6.73038 17.3117C4.42408 17.3117 4.48283 15.3302 4.48283 15.3302C4.48283 15.3302 4.32218 15.9166 3.6789 16.0697C3.60208 16.0904 3.52003 16.0982 3.43977 16.0982C3.2325 16.0982 3.05378 16.0498 3.05378 16.0498C3.05378 16.0498 3.38882 15.338 3.05463 14.3425C2.77833 13.5165 2.82322 12.9042 2.82322 12.9042C2.82322 12.9042 2.51324 13.3747 1.74219 13.379H1.73442C1.09284 13.379 0.813067 12.8921 0.813067 12.8921C2.35004 12.2529 2.19894 10.1893 2.19894 10.1893C2.19894 10.1893 1.99952 10.3381 1.60919 10.3527C1.59541 10.3536 1.58243 10.3536 1.56864 10.3536C0.720715 10.3536 0.434038 9.44465 0.434038 9.44465H0.451287C0.607585 9.44465 1.86567 9.4083 2.75589 8.27443C3.34216 7.52891 3.82314 6.87416 4.77037 6.61559L4.86535 6.59917L4.88601 6.50403C4.91197 6.35873 4.81351 6.22293 4.58817 6.07592C3.27912 5.21708 4.16849 4.12212 4.16849 4.12212C4.16849 4.12212 4.54066 4.99738 5.37912 4.99738C5.39978 4.99738 5.41878 4.99652 5.44038 4.99652C5.53451 4.9913 5.6278 4.98788 5.71926 4.96796L5.87384 4.93768C5.87384 4.93768 5.63467 4.28816 6.21147 3.69141C6.64494 3.24078 7.17249 3.1647 7.4764 3.1647C7.63099 3.1647 7.72686 3.18458 7.72686 3.18458C7.43844 3.56339 7.22951 4.19131 7.56277 4.5788C7.85115 4.91177 8.55489 4.92819 8.55489 5.42464C8.55489 5.6348 8.3589 5.88042 8.00659 6.10097C6.94711 6.76957 5.89543 7.65693 5.45849 8.84438C4.91282 10.3268 5.52849 11.3102 6.40835 11.875C6.40835 11.875 6.13202 12.1293 5.73224 12.1612C5.65108 12.169 5.57252 12.1724 5.4965 12.1724C4.65375 12.1724 4.21774 11.7764 4.21774 11.7764C4.21774 11.7764 4.29024 12.3238 4.72629 12.8324C5.13388 13.302 5.66487 13.5788 6.47657 13.59C6.47657 13.59 6.50244 13.9671 6.14326 14.2932C5.9127 14.499 5.38256 14.5665 5.38256 14.5665C5.38256 14.5665 6.37726 14.768 6.48603 16.2383C6.54563 17.0349 6.74679 17.3117 6.74679 17.3117H6.73038Z" fill="black"/>
<path id="Vector_30" d="M1.59384 7.85682C1.7052 7.85682 1.81401 7.8404 1.9168 7.8049C2.20688 7.70891 2.39082 7.47796 2.58511 7.23842C2.78368 6.9928 3.00733 6.71602 3.39502 6.50931L3.79391 6.29479L3.42353 6.0345C3.39243 6.01462 3.1144 5.8269 2.7388 5.8269C2.42967 5.8269 2.14303 5.95322 1.90725 6.19537C1.33223 6.78349 0.816762 6.83108 0.797714 6.83194L0.39624 6.85524L0.561142 7.22456C0.726913 7.59042 1.16123 7.85682 1.59384 7.85682ZM2.10502 6.39083C2.31917 6.17031 2.54451 6.10455 2.7388 6.10455C3.03753 6.10455 3.26381 6.26366 3.26381 6.26366C2.45555 6.69528 2.28977 7.38628 1.82784 7.54202C1.75186 7.56878 1.67241 7.58093 1.59384 7.58093C1.25451 7.58093 0.926379 7.36123 0.814132 7.10954C0.814132 7.10868 1.43582 7.07063 2.10502 6.39083Z" fill="black"/>
<path id="Vector_31" d="M3.40607 11.0775C3.36284 10.0327 3.63056 9.18507 4.05015 8.48714C3.8162 9.21449 3.84814 10.1053 4.64427 10.9365C4.64427 10.9365 3.06067 9.03635 5.27457 7.08858C6.1605 6.34742 7.12929 5.88985 7.62749 5.56555C5.8255 6.15453 4.94563 5.50586 4.94563 5.50586C5.52066 6.00577 6.26584 5.99709 6.72866 5.92444C6.60347 5.98584 6.47222 6.0499 6.33316 6.12511C4.81175 6.95282 3.44662 8.31332 3.21267 10.197V10.1823C2.85946 12.0323 2.07373 12.5071 2.07373 12.5071C2.6989 12.1983 3.09261 11.3785 3.18849 11.0826C3.29293 12.7086 4.08473 13.8373 5.01122 14.9236C5.49215 15.4867 5.66141 16.0341 5.66141 16.0341C5.66141 16.0341 5.56728 15.414 5.15023 14.9089C4.28763 13.8702 3.46648 12.5746 3.40607 11.0775Z" fill="black"/>
<path id="Vector_32" d="M10.4712 7.26587V7.63951C10.5999 7.48292 10.8486 7.51495 10.8486 7.51495V8.05377C10.8486 8.05377 10.8399 8.31841 10.7458 8.43348H11.0152H11.2837C11.1913 8.31927 11.1818 8.05377 11.1818 8.05377V7.51495C11.1818 7.51495 11.4305 7.48292 11.5583 7.63951V7.26587H11.0152H10.4712Z" fill="black"/>
<path id="Vector_33" d="M10.2396 5.05006C10.4114 5.18672 10.5107 5.20921 10.5142 5.21178L10.5815 5.24291V4.89091L9.94946 4.62451C9.94946 4.62541 9.95553 4.82865 10.2396 5.05006Z" fill="black"/>
<path id="Vector_34" d="M11.7432 5.05006C12.029 4.82865 12.0341 4.62451 12.0341 4.62451L11.4021 4.89091V5.24291L11.4686 5.21178C11.4729 5.20921 11.5714 5.18672 11.7432 5.05006Z" fill="black"/>
<path id="Vector_35" d="M12.8816 3.6169C12.8816 3.08329 11.9844 2.60327 10.994 2.60327H10.9932H10.9906H10.988C9.99761 2.60327 9.10052 3.08329 9.10052 3.6169L9.12037 3.74839L9.51578 6.02217L9.11863 6.25307L8.09109 6.85419H8.09453C8.09453 6.85419 7.86316 6.97268 7.75609 7.04619C7.36492 7.31865 7.28203 7.7156 7.50915 7.87997C7.56528 7.55644 7.82082 7.21744 8.29921 7.21744C8.64372 7.21744 8.90623 7.39562 9.11863 7.66287C9.17301 7.73031 9.22481 7.8021 9.27317 7.87997C9.33277 7.97767 9.39233 8.06328 9.45194 8.14632H6.80542C6.99971 8.53809 7.18446 8.95325 7.18446 9.4039V15.2712C7.18446 16.6914 8.27503 17.3695 9.45452 17.3695C10.3663 17.3695 10.4889 17.328 10.9923 17.8296C11.4931 17.3271 11.6157 17.3695 12.5284 17.3695C13.7088 17.3695 14.7976 16.6914 14.7976 15.2712V9.4039C14.7976 8.95325 14.9824 8.53809 15.1775 8.14632H12.5302C12.5889 8.06418 12.6484 7.97767 12.7081 7.87997C12.7572 7.8021 12.8082 7.73031 12.8617 7.66287C13.0759 7.39472 13.3375 7.21744 13.682 7.21744C14.1604 7.21744 14.4151 7.55559 14.4721 7.87997C14.6992 7.7156 14.6172 7.31865 14.2234 7.04619C14.1181 6.97268 13.8867 6.85419 13.8867 6.85419H13.8901L12.8626 6.25307L12.4671 6.02217L12.8626 3.74839L12.8816 3.6169ZM9.4899 3.88157L10.8801 4.35379V6.5411L9.85689 6.00057L9.4899 3.88157ZM9.77744 8.52774C10.0054 8.75518 10.2291 8.89621 10.4415 8.97403C10.4138 9.08384 10.3775 9.31047 10.4803 9.5362C10.5641 9.7178 10.716 9.85793 10.9345 9.95136C10.9587 10.1762 11.1003 10.5144 11.4931 10.664C11.3213 10.8379 11.1538 11.0013 11.0856 11.0679L9.49249 11.0429C9.45626 11.0246 9.39492 10.984 9.36731 10.9261C9.36383 10.9183 9.35865 10.914 9.35606 10.9053L9.61598 10.9477C9.62205 10.9486 9.62718 10.9486 9.6324 10.9486C9.68246 10.9486 9.72649 10.914 9.73514 10.8621C9.7438 10.8041 9.70494 10.7514 9.64882 10.7427L9.32934 10.6926L9.68419 9.4653L9.3483 8.75694L8.8095 9.32774L8.77671 10.6043L8.4149 10.5473C8.35873 10.536 8.30524 10.5775 8.29578 10.6338C8.28712 10.69 8.32509 10.7427 8.3821 10.7531L8.53406 10.7765C8.47967 10.8076 8.44425 10.8318 8.43993 10.8353L8.40887 10.8569L8.40022 10.8949C8.31215 11.253 8.51162 11.5929 8.72661 11.7451L8.71881 11.7901C8.71024 11.8454 8.72228 11.899 8.75508 11.9441C8.78617 11.9899 8.83453 12.0176 8.88807 12.0271C8.89931 12.0288 8.9114 12.0297 8.92175 12.0297C9.01499 12.0297 9.09619 11.9648 9.11948 11.8706C9.19978 11.88 9.27317 11.8818 9.32323 11.8818H9.36557L11.456 12.2597L11.4914 12.2364C11.6581 12.1196 12.2927 11.656 12.5008 11.503C12.5578 11.5523 12.6217 11.5972 12.6994 11.6344C12.632 11.861 12.6277 12.2096 12.8945 12.4846H7.56697V9.40471C7.56697 9.10633 7.47975 8.80624 7.37701 8.5295H9.77744V8.52774ZM12.3609 11.3455C12.1494 11.5012 11.6054 11.899 11.4085 12.0375L9.50891 11.6958C9.51324 11.6785 9.51752 11.6621 9.52185 11.6448C9.54692 11.5462 9.57195 11.4113 9.57369 11.253L11.1702 11.279L11.2004 11.2478C11.2246 11.2236 11.7306 10.7341 11.9887 10.4521C12.05 10.5291 12.1269 10.6026 12.2271 10.6675C12.1925 10.8543 12.2072 11.1207 12.3609 11.3455ZM9.18078 11.016C9.2257 11.1103 9.30685 11.1734 9.36298 11.2089C9.36128 11.2971 9.35263 11.4346 9.32934 11.5557C9.32412 11.5825 9.31721 11.6076 9.30944 11.6327C9.30512 11.6483 9.30083 11.6613 9.29735 11.6716C9.21361 11.6716 9.04868 11.6613 8.91399 11.6119C8.76462 11.5566 8.54182 11.2824 8.59362 10.9806C8.6584 10.9408 8.80776 10.8569 8.94763 10.8569C9.05559 10.856 9.12898 10.907 9.18078 11.016ZM8.98305 10.6363L9.01499 9.41078L9.28959 9.11933L9.46229 9.48087L9.12207 10.6571L8.98305 10.6363ZM12.3436 16.9898C12.24 16.9898 12.1442 16.9916 12.0578 16.995L12.284 16.2901C12.3195 16.1924 12.1407 16.067 12.0674 15.9571C12.1787 16.0272 12.4671 16.1802 12.6062 16.2417C12.5914 16.2642 12.3436 16.9898 12.3436 16.9898ZM13.0534 16.1889L12.9058 16.9604C12.8116 16.9733 12.7115 16.9803 12.6087 16.9846L12.7642 16.2425C12.8108 16.022 12.2193 15.9536 11.9275 15.5204C11.785 15.6812 11.5165 15.7288 11.247 15.7288C11.001 15.7288 10.7549 15.689 10.6055 15.6596C10.5675 15.6536 10.5312 15.6492 10.4958 15.6492C10.4095 15.6492 10.3309 15.676 10.2765 15.7677L10.2333 15.8403L9.42776 15.65L9.2274 15.9822C9.19893 16.0358 9.1972 16.0817 9.24297 16.1318L9.29735 16.1915C9.26023 16.3091 9.09275 16.4864 9.09275 16.4864L8.9727 16.3368C8.87772 16.2304 8.89324 16.0367 8.99255 15.8568L9.31203 15.3163L9.99417 15.4148L9.88795 15.1727C9.74549 14.8527 9.96223 14.4453 9.98552 14.2109C9.97775 14.2818 9.91302 14.2974 9.837 14.2974C9.76798 14.2974 9.69111 14.2845 9.64016 14.2845C9.62031 14.2845 9.603 14.2862 9.59354 14.2931L9.40875 14.4055L9.26278 14.2767C9.24555 14.2516 9.23949 14.1936 9.28267 14.1504L9.62031 13.7716L9.22138 13.3054L9.78002 13.5865L9.95014 13.3797C9.99676 13.4256 9.9769 13.5458 9.9769 13.5458C10.1513 13.5501 10.64 13.8209 10.666 14.4522C10.6677 14.4712 10.6677 14.4929 10.6677 14.5136C10.6677 14.5136 10.672 14.5214 10.6806 14.5344C10.7152 14.582 10.8102 14.7039 10.931 14.7151L11.703 14.7913H11.7064C11.791 14.7913 11.9594 14.6918 12.1753 14.6918C12.2927 14.6918 12.424 14.7221 12.5638 14.8103C12.5638 14.8103 12.6338 14.7549 12.7478 14.7488C12.7564 14.748 12.7659 14.748 12.7745 14.748C13.1208 14.748 13.2641 15.0611 13.4498 15.3214C13.5896 15.5195 13.7761 15.8136 13.7761 15.8136C13.7071 15.8957 13.6432 15.9407 13.5361 15.9407C13.5067 15.9407 13.473 15.9381 13.4368 15.9312C13.0655 15.8628 13.012 15.0983 12.8004 15.0378C12.7892 15.0343 12.7771 15.0334 12.7668 15.0334C12.6985 15.0334 12.6683 15.094 12.6683 15.094C12.765 15.3543 12.7089 15.4598 12.8125 15.6605C12.8903 15.8092 13.0284 15.9321 13.0853 15.99C13.0853 15.9917 13.0698 16.1042 13.0534 16.1889ZM8.90792 15.459L8.9433 15.548C8.92001 15.6259 8.65233 15.7366 8.65233 15.7366L8.59451 15.6103C8.53317 15.4754 8.54615 15.2479 8.73268 15.1087L9.1661 14.844L9.62548 14.9418C9.61683 15.0879 9.70405 15.1969 9.70405 15.1969L9.22222 15.1043L8.93384 15.3041C8.88548 15.3379 8.88204 15.401 8.90792 15.459ZM13.1259 16.918L13.258 16.2278C13.265 16.1872 13.2736 16.1396 13.2796 16.0998C13.3168 16.1154 13.3565 16.1284 13.3997 16.1361C13.4489 16.1456 13.4946 16.15 13.5361 16.15C13.7381 16.15 13.8556 16.0436 13.9341 15.9528L14.036 15.8343L13.9531 15.7046C13.9454 15.6916 13.7623 15.401 13.6207 15.2021C13.5931 15.1631 13.5663 15.1242 13.5395 15.0819C13.3789 14.8415 13.1777 14.5396 12.7745 14.5396L12.7383 14.5404C12.6718 14.5447 12.6148 14.5577 12.569 14.575C12.4421 14.5154 12.3117 14.4851 12.1762 14.4851C12.0095 14.4851 11.8687 14.5309 11.7755 14.563C11.7487 14.5707 11.7245 14.5793 11.7055 14.5828L10.9518 14.5084C10.9423 14.5067 10.9112 14.4886 10.874 14.4436V14.4401L11.0372 14.3744C10.9915 13.8303 10.4699 13.4957 10.1789 13.3823C10.166 13.3279 10.1401 13.2734 10.0943 13.2293L9.93198 13.0753L9.78953 13.2466L9.71962 13.3339L8.66442 12.8998L9.35089 13.7629L9.07977 14.1737C8.98046 14.2792 9.09012 14.3848 9.09012 14.3848L9.36985 14.5776L9.66001 14.4695C9.67037 14.4695 9.67902 14.4721 9.68852 14.473C9.67469 14.5171 9.65658 14.6901 9.64449 14.7385L9.14107 14.639L8.61173 14.9383C8.33977 15.1381 8.30265 15.4693 8.40366 15.6959L8.46237 15.8248L8.54615 16.0064L8.7309 15.9294C8.73353 15.9285 8.73611 15.9277 8.73781 15.926C8.67134 16.1388 8.69815 16.3411 8.81727 16.4743L8.92951 16.6162L9.07888 16.8056L9.24297 16.6291C9.29129 16.5807 9.44761 16.4051 9.49593 16.2546L9.53139 16.1396L9.45105 16.0514L9.43811 16.0358L9.52787 15.8871L10.185 16.0419L10.3326 16.0756L10.4112 15.9459L10.4544 15.8749C10.4622 15.8603 10.4648 15.8576 10.495 15.8576C10.5183 15.8576 10.5416 15.8603 10.5666 15.8655C10.8144 15.9122 11.0433 15.9355 11.2462 15.9355C11.443 15.9355 11.5605 15.9277 11.7013 15.881C11.7013 15.881 12.0544 16.2823 12.0665 16.2979L11.8506 16.9656L11.8411 17.0062C11.4318 17.0391 11.2324 17.129 10.9915 17.3704C10.6417 17.0227 10.394 16.9863 9.45363 16.9863C8.32853 16.9863 7.56608 16.3256 7.56608 15.2704V12.6904H14.4151L14.4168 15.2704C14.4177 16.1266 13.916 16.7234 13.1259 16.918ZM14.6068 8.52774C14.5023 8.80453 14.4151 9.10462 14.4151 9.403L14.4159 11.3282C14.0145 11.2608 13.967 10.8275 13.9652 10.8084L13.9575 10.7202L13.8711 10.7124C13.6967 10.696 13.581 10.6217 13.4834 10.5265C13.2866 10.3293 13.2857 10.0093 13.2866 10.0067C13.284 10.0231 13.0698 10.3232 13.3185 10.651C13.423 10.7894 13.574 10.8742 13.7701 10.9079C13.8158 11.1483 13.9946 11.4874 14.4159 11.5393V12.482H13.2313C12.6847 12.1775 12.9161 11.6413 12.9273 11.6189L12.9739 11.5168L12.8695 11.477C12.278 11.2573 12.4404 10.6658 12.449 10.6407L12.4732 10.5542L12.3929 10.5161C11.9041 10.2895 11.9706 9.67808 11.9767 9.65293C11.8264 9.77493 11.7721 10.024 11.8757 10.2679C11.8195 10.3319 11.7444 10.4097 11.6624 10.4945C11.1564 10.3656 11.1409 9.89945 11.1409 9.87785L11.14 9.80606L11.0735 9.7801C10.8758 9.70655 10.7402 9.59675 10.6737 9.44884C10.5986 9.28537 10.6254 9.11411 10.6461 9.03197C10.7039 9.04493 10.7618 9.05446 10.8171 9.05878C10.874 9.06481 10.9327 9.06827 10.9915 9.06827H10.9949H10.9993C11.058 9.06827 11.1158 9.06481 11.1728 9.05878C11.488 9.02765 11.8411 8.89184 12.2089 8.52684H14.6068V8.52774ZM12.7607 6.58173L13.2287 6.85419H13.2356L13.353 6.92252C13.0888 6.99603 12.8867 7.12837 12.7175 7.30219C12.7115 7.30741 12.7054 7.31429 12.6994 7.32036C12.6605 7.36189 12.6217 7.40687 12.5854 7.45267C12.5785 7.46135 12.5716 7.47084 12.5638 7.48037C12.5275 7.52707 12.4939 7.57466 12.4611 7.62482C12.4559 7.63345 12.4498 7.64209 12.4438 7.64988C12.405 7.70782 12.3678 7.77012 12.3307 7.83409C11.9974 8.40925 11.4655 8.75262 10.9923 8.75347C10.52 8.75262 9.98815 8.40925 9.65484 7.83409C9.61853 7.77187 9.5823 7.71128 9.54344 7.65244C9.53563 7.64124 9.52876 7.62999 9.52185 7.6205C9.48905 7.57291 9.45626 7.52621 9.42254 7.48208C9.41393 7.46998 9.40616 7.46049 9.39751 7.4501C9.36128 7.40597 9.32412 7.36189 9.28696 7.32122C9.2792 7.31519 9.27406 7.30741 9.2663 7.30044C9.09619 7.12662 8.89498 6.99513 8.62989 6.92252L8.74905 6.85419H8.75423L9.22222 6.58173L9.7032 6.30588L10.988 7.00638L10.9906 7.00381L10.994 7.00638L12.2789 6.30588L12.7607 6.58173ZM12.1269 6.00138L11.1028 6.54192V4.35379L12.4921 3.88157L12.1269 6.00138ZM10.9915 4.11337L9.46831 3.51053C9.59787 3.20349 10.1953 2.94229 10.9915 2.94144C11.7884 2.94229 12.3859 3.20349 12.5146 3.51053L10.9915 4.11337Z" fill="black"/>
</g>
</svg>
